<svg id="svg" version="1.1" xmlns="http://www.w3.org/2000/svg" xmlns:xlink="http://www.w3.org/1999/xlink" width="400" height="318.75" viewBox="0, 0, 400,318.75"><g id="svgg"><path id="path0" d="M138.750 159.365 L 138.750 244.375 176.328 244.374 C 199.991 244.373,215.237 244.252,217.500 244.046 C 248.925 241.186,267.195 224.578,268.016 198.125 C 268.715 175.633,255.052 159.074,232.435 155.002 C 228.593 154.310,228.261 154.182,229.573 153.900 C 251.841 149.118,264.815 125.832,257.601 103.594 C 253.276 90.263,241.915 80.377,226.399 76.444 C 218.566 74.458,221.099 74.563,178.047 74.454 L 138.750 74.354 138.750 159.365 M210.210 96.988 C 224.574 99.526,231.903 107.392,231.944 120.313 C 231.988 134.011,223.906 142.446,207.813 145.499 C 205.200 145.995,202.526 146.076,185.547 146.174 L 166.250 146.285 166.250 121.476 C 166.250 107.831,166.355 96.559,166.484 96.428 C 166.977 95.926,207.108 96.440,210.210 96.988 M211.228 167.677 C 229.491 169.802,239.098 178.223,239.902 192.813 C 240.663 206.640,233.702 216.284,220.166 220.155 C 213.786 221.980,213.632 221.990,188.984 222.108 L 166.250 222.218 166.250 194.703 L 166.250 167.188 186.641 167.188 C 203.128 167.188,207.835 167.282,211.228 167.677 " stroke="none" fill="#f7f1fb" fill-rule="evenodd"></path><path id="path1" d="M251.499 14.297 C 245.256 22.160,232.978 37.628,224.215 48.670 L 208.281 68.747 194.645 68.748 L 181.009 68.750 180.497 69.531 L 179.986 70.313 166.318 70.313 C 153.252 70.313,152.634 70.339,152.281 70.903 C 151.989 71.372,151.374 71.539,149.316 71.711 C 145.938 71.992,143.004 72.602,141.250 73.388 L 139.844 74.018 176.118 74.040 C 199.212 74.054,213.632 74.183,215.805 74.395 C 242.757 77.017,259.717 93.296,259.728 116.552 C 259.736 133.959,248.360 148.919,231.563 153.591 C 230.102 153.997,229.236 154.340,229.638 154.352 C 230.041 154.365,231.752 154.656,233.440 155.000 C 258.842 160.177,272.675 181.621,267.206 207.344 C 263.295 225.737,249.056 238.418,227.391 242.803 C 219.060 244.489,219.629 244.469,177.578 244.599 L 138.438 244.721 138.425 159.782 L 138.413 74.844 137.066 76.307 C 134.236 79.380,133.216 82.864,132.919 90.469 C 132.757 94.625,132.626 95.609,132.143 96.298 C 131.595 97.082,131.563 98.067,131.563 114.128 L 131.563 131.129 130.781 132.187 L 130.000 133.246 130.000 150.302 L 130.000 167.358 118.346 182.038 C 111.936 190.112,92.599 214.473,75.373 236.174 L 44.055 275.628 44.078 278.986 C 44.210 298.049,57.388 314.408,75.601 318.120 C 80.340 319.086,319.353 319.117,324.286 318.152 C 338.057 315.459,349.253 305.386,353.890 291.518 C 355.799 285.805,355.937 284.298,355.941 269.100 C 355.954 207.253,369.690 174.687,397.734 170.009 L 400.000 169.631 400.000 159.375 L 400.000 149.119 397.734 148.741 C 369.697 144.064,355.954 111.480,355.941 49.650 C 355.937 34.452,355.799 32.945,353.890 27.232 C 349.245 13.340,338.080 3.295,324.286 0.598 C 321.407 0.035,319.514 -0.000,292.039 -0.000 L 262.849 -0.000 251.499 14.297 M166.563 121.386 L 166.563 146.250 182.578 146.247 C 205.910 146.242,210.947 145.612,218.922 141.702 C 236.182 133.239,236.399 107.426,219.273 99.855 C 212.522 96.870,211.782 96.795,187.578 96.649 L 166.563 96.523 166.563 121.386 M166.563 194.684 L 166.563 222.239 188.359 222.105 C 206.967 221.991,210.626 221.894,213.364 221.441 C 231.855 218.379,240.184 209.403,239.598 193.171 C 239.072 178.638,230.357 170.553,212.386 167.928 C 209.535 167.512,205.079 167.394,187.734 167.275 L 166.563 167.129 166.563 194.684 M44.173 265.781 C 44.172 267.328,44.225 268.000,44.291 267.275 C 44.356 266.550,44.357 265.284,44.293 264.463 C 44.228 263.641,44.174 264.234,44.173 265.781 " stroke="none" fill="#7a0bf7" fill-rule="evenodd"></path><path id="path2" d="M76.323 0.468 C 60.806 3.281,48.578 15.369,44.819 31.612 C 44.369 33.557,44.253 36.662,44.057 52.031 C 43.929 62.000,43.662 72.055,43.463 74.375 C 39.451 121.089,25.749 145.421,1.484 148.919 L 0.000 149.133 0.000 159.410 C 0.000 165.063,0.122 169.688,0.272 169.688 C 15.021 169.688,30.299 185.027,36.612 206.175 C 37.401 208.818,38.720 213.654,38.934 214.688 C 39.023 215.117,39.361 216.523,39.684 217.813 C 40.008 219.102,40.361 220.789,40.470 221.563 C 40.579 222.336,40.797 223.556,40.955 224.275 C 41.217 225.463,41.805 229.259,42.352 233.281 C 42.640 235.401,42.729 236.278,42.967 239.375 C 43.079 240.836,43.224 242.242,43.288 242.500 C 43.418 243.017,43.645 245.923,43.946 250.938 C 44.054 252.742,44.160 258.961,44.181 264.757 C 44.216 274.473,44.258 275.253,44.724 274.757 C 45.001 274.461,59.837 255.799,77.692 233.286 C 95.547 210.773,114.621 186.729,120.078 179.856 L 130.000 167.358 130.000 150.302 L 130.000 133.246 130.781 132.188 L 131.562 131.129 131.562 114.128 C 131.563 98.067,131.595 97.082,132.143 96.298 C 132.626 95.609,132.757 94.625,132.919 90.469 C 133.216 82.865,134.216 79.447,137.075 76.268 C 137.824 75.434,138.438 74.613,138.438 74.443 C 138.438 74.273,138.824 74.062,139.297 73.974 C 139.770 73.886,141.141 73.456,142.344 73.018 C 143.740 72.510,145.831 72.093,148.125 71.864 C 150.980 71.580,151.825 71.384,152.238 70.909 C 152.733 70.339,153.360 70.313,166.371 70.313 L 179.986 70.313 180.497 69.531 L 181.009 68.750 194.645 68.749 L 208.281 68.747 212.684 63.202 C 215.106 60.152,226.905 45.281,238.905 30.156 C 250.904 15.031,261.209 2.059,261.805 1.328 L 262.888 0.000 170.741 0.028 C 95.978 0.051,78.165 0.134,76.323 0.468 " stroke="none" fill="#8c0cfc" fill-rule="evenodd"></path><path id="path3" d="M166.399 121.406 C 166.399 135.156,166.437 140.736,166.484 133.805 C 166.531 126.874,166.531 115.624,166.484 108.805 C 166.437 101.986,166.399 107.656,166.399 121.406 M225.000 103.535 C 225.000 103.589,225.457 104.046,226.016 104.551 L 227.031 105.469 226.113 104.453 C 225.258 103.506,225.000 103.294,225.000 103.535 M248.267 143.828 L 247.031 145.156 248.359 143.921 C 249.595 142.772,249.831 142.500,249.595 142.500 C 249.544 142.500,248.946 143.098,248.267 143.828 M255.625 166.035 C 255.625 166.089,256.082 166.546,256.641 167.051 L 257.656 167.969 256.738 166.953 C 255.883 166.006,255.625 165.794,255.625 166.035 M166.400 194.688 C 166.400 209.898,166.438 216.121,166.484 208.516 C 166.531 200.910,166.531 188.465,166.484 180.859 C 166.438 173.254,166.400 179.477,166.400 194.688 M205.078 167.403 C 205.379 167.482,205.871 167.482,206.172 167.403 C 206.473 167.324,206.227 167.260,205.625 167.260 C 205.023 167.260,204.777 167.324,205.078 167.403 M232.188 175.723 C 232.188 175.777,232.645 176.234,233.203 176.738 L 234.219 177.656 233.301 176.641 C 232.445 175.694,232.188 175.481,232.188 175.723 M239.766 193.281 C 239.770 193.969,239.834 194.213,239.909 193.824 C 239.983 193.436,239.980 192.873,239.902 192.574 C 239.824 192.276,239.763 192.594,239.766 193.281 M268.198 194.375 C 268.198 194.977,268.262 195.223,268.340 194.922 C 268.419 194.621,268.419 194.129,268.340 193.828 C 268.262 193.527,268.198 193.773,268.198 194.375 M239.766 195.781 C 239.770 196.469,239.834 196.713,239.909 196.324 C 239.983 195.936,239.980 195.373,239.902 195.074 C 239.824 194.776,239.763 195.094,239.766 195.781 M268.210 198.125 C 268.210 198.898,268.271 199.215,268.346 198.828 C 268.420 198.441,268.420 197.809,268.346 197.422 C 268.271 197.035,268.210 197.352,268.210 198.125 M255.457 228.828 L 253.906 230.469 255.547 228.918 C 256.449 228.065,257.188 227.327,257.188 227.277 C 257.188 227.044,256.898 227.304,255.457 228.828 M156.616 244.609 C 166.701 244.655,183.295 244.655,193.491 244.609 C 203.688 244.564,195.438 244.526,175.156 244.526 C 154.875 244.526,146.532 244.564,156.616 244.609 " stroke="none" fill="#a76bee" fill-rule="evenodd"></path><path id="path4" d="M138.582 74.453 C 138.500 74.668,138.470 113.023,138.514 159.688 L 138.595 244.531 138.672 159.454 L 138.750 74.378 175.078 74.297 L 211.406 74.216 175.068 74.139 C 146.229 74.078,138.700 74.143,138.582 74.453 M248.281 88.438 C 249.128 89.297,249.891 90.000,249.977 90.000 C 250.062 90.000,249.440 89.297,248.594 88.438 C 247.747 87.578,246.984 86.875,246.898 86.875 C 246.813 86.875,247.435 87.578,248.281 88.438 M175.391 96.484 C 180.332 96.533,188.418 96.533,193.359 96.484 C 198.301 96.436,194.258 96.396,184.375 96.396 C 174.492 96.396,170.449 96.436,175.391 96.484 M231.964 120.469 C 231.967 121.328,232.027 121.643,232.099 121.168 C 232.171 120.693,232.169 119.989,232.095 119.605 C 232.021 119.221,231.962 119.609,231.964 120.469 M225.449 137.266 L 224.531 138.281 225.547 137.363 C 226.105 136.859,226.563 136.402,226.563 136.348 C 226.563 136.106,226.305 136.319,225.449 137.266 " stroke="none" fill="#bc8ef4" fill-rule="evenodd"></path></g></svg>