<svg id="svg" version="1.1" xmlns="http://www.w3.org/2000/svg" xmlns:xlink="http://www.w3.org/1999/xlink" width="400" height="564.375" viewBox="0, 0, 400,564.375"><g id="svgg"><path id="path0" d="M74.568 195.100 C 74.690 195.485,75.068 199.040,75.407 203.000 C 76.160 211.798,77.026 221.457,77.612 227.600 C 77.853 230.130,78.264 234.810,78.525 238.000 L 79.000 243.800 174.400 244.000 L 269.800 244.200 269.929 245.773 C 269.999 246.638,269.857 249.518,269.612 252.173 C 268.567 263.495,267.435 276.317,266.624 286.000 C 266.283 290.070,265.899 293.895,265.770 294.500 L 265.536 295.600 174.554 295.600 L 83.572 295.600 83.796 297.500 C 83.919 298.545,84.202 301.650,84.426 304.400 C 84.649 307.150,85.089 312.280,85.402 315.800 C 85.716 319.320,86.156 324.360,86.380 327.000 C 86.740 331.228,87.185 336.086,87.857 343.100 L 88.058 345.200 174.629 345.200 L 261.200 345.200 261.186 346.900 C 261.178 347.835,260.997 350.400,260.783 352.600 C 260.570 354.800,260.223 358.760,260.013 361.400 C 259.802 364.040,259.444 368.000,259.217 370.200 C 258.990 372.400,258.532 377.440,258.198 381.400 C 257.864 385.360,257.423 390.220,257.216 392.200 C 257.009 394.180,256.738 397.240,256.612 399.000 C 256.487 400.760,256.182 404.044,255.934 406.298 L 255.484 410.396 253.442 411.004 C 252.319 411.339,248.700 412.329,245.400 413.204 C 238.802 414.954,235.532 415.835,232.800 416.599 C 229.625 417.486,227.937 417.944,221.000 419.797 C 217.260 420.796,213.570 421.787,212.800 421.999 C 209.767 422.832,208.149 423.275,207.000 423.584 C 206.340 423.761,204.405 424.288,202.700 424.755 L 199.600 425.604 196.500 424.755 C 194.795 424.288,192.860 423.765,192.200 423.593 C 191.540 423.421,188.930 422.717,186.400 422.030 C 183.870 421.342,179.730 420.227,177.200 419.552 C 174.670 418.877,172.060 418.170,171.400 417.980 C 170.252 417.650,168.412 417.149,163.600 415.855 C 162.390 415.529,160.410 414.996,159.200 414.670 C 153.561 413.149,148.860 411.911,147.400 411.563 C 143.661 410.671,143.728 410.753,143.438 406.672 C 143.294 404.652,143.003 401.380,142.791 399.400 C 142.578 397.420,142.130 392.560,141.795 388.600 C 141.460 384.640,140.994 379.420,140.759 377.000 C 140.524 374.580,140.302 372.240,140.266 371.800 C 140.198 370.971,90.391 370.269,90.405 371.097 C 90.408 371.264,90.677 374.460,91.003 378.200 C 91.330 381.940,91.782 387.250,92.008 390.000 C 92.234 392.750,92.508 395.540,92.616 396.200 C 92.725 396.860,92.986 399.650,93.198 402.400 C 93.410 405.150,93.858 410.370,94.194 414.000 C 94.966 422.361,95.921 433.263,96.402 439.200 C 96.607 441.730,96.890 444.911,97.031 446.269 C 97.336 449.218,96.450 448.724,106.205 451.384 C 107.415 451.714,109.349 452.254,110.503 452.584 C 111.656 452.914,113.590 453.448,114.800 453.771 C 116.010 454.093,118.980 454.919,121.400 455.606 C 123.820 456.293,126.700 457.095,127.800 457.387 C 128.900 457.680,130.880 458.227,132.200 458.603 C 135.098 459.428,136.297 459.759,139.302 460.566 C 142.935 461.542,146.097 462.406,147.400 462.779 C 148.060 462.968,153.550 464.502,159.600 466.188 C 165.650 467.873,171.590 469.530,172.800 469.869 C 175.682 470.677,176.944 471.025,179.600 471.743 C 180.810 472.070,182.880 472.629,184.200 472.986 C 185.520 473.343,187.140 473.800,187.800 474.000 C 188.460 474.200,190.080 474.657,191.400 475.014 C 192.720 475.371,194.790 475.935,196.000 476.268 C 197.210 476.600,198.650 476.959,199.200 477.066 C 200.004 477.221,216.493 472.953,225.600 470.233 C 226.590 469.937,228.570 469.379,230.000 468.992 C 231.430 468.605,234.040 467.872,235.800 467.363 C 237.560 466.855,240.350 466.086,242.000 465.655 C 243.650 465.225,250.940 463.220,258.200 461.199 C 265.460 459.179,273.020 457.088,275.000 456.552 C 276.980 456.017,283.910 454.096,290.400 452.283 L 302.200 448.987 302.469 445.993 C 302.617 444.347,303.031 439.670,303.390 435.600 C 304.686 420.868,305.181 415.317,305.600 410.800 C 305.835 408.270,306.280 403.320,306.590 399.800 C 307.616 388.130,308.387 379.480,309.012 372.600 C 309.353 368.860,309.803 363.730,310.014 361.200 C 310.225 358.670,310.574 354.800,310.789 352.600 C 311.004 350.400,311.458 345.360,311.799 341.400 C 312.139 337.440,312.589 332.490,312.797 330.400 C 313.006 328.310,313.279 325.160,313.404 323.400 C 313.530 321.640,313.805 318.490,314.015 316.400 C 314.225 314.310,314.674 309.450,315.011 305.600 C 315.349 301.750,315.805 296.800,316.024 294.600 C 316.244 292.400,316.594 288.530,316.802 286.000 C 317.172 281.516,317.816 274.208,319.023 260.800 C 319.350 257.170,319.790 251.950,320.002 249.200 C 320.214 246.450,320.475 243.660,320.584 243.000 C 320.692 242.340,320.966 239.550,321.192 236.800 C 321.418 234.050,321.878 228.740,322.213 225.000 C 322.548 221.260,323.082 215.230,323.399 211.600 C 323.716 207.970,324.155 203.110,324.374 200.800 C 324.594 198.490,324.779 196.105,324.787 195.500 L 324.800 194.400 199.573 194.400 C 80.491 194.400,74.357 194.434,74.568 195.100 " stroke="none" fill="#f4f4f4" fill-rule="evenodd"></path><path id="path1" d="M0.004 113.300 C 0.005 114.895,0.178 118.630,0.388 121.600 C 0.597 124.570,0.805 128.125,0.850 129.500 C 0.895 130.875,1.058 132.000,1.213 132.000 C 1.368 132.000,1.611 133.935,1.752 136.300 C 1.893 138.665,2.098 141.680,2.207 143.000 C 2.316 144.320,2.512 147.155,2.641 149.300 C 2.771 151.445,3.019 153.200,3.193 153.200 C 3.366 153.200,3.640 156.260,3.800 160.000 C 3.960 163.740,4.251 166.800,4.446 166.800 C 4.641 166.800,4.817 168.285,4.838 170.100 C 4.858 171.915,5.040 175.110,5.242 177.200 C 5.602 180.937,6.230 188.578,6.515 192.697 C 6.595 193.850,6.782 194.915,6.930 195.063 C 7.079 195.212,7.200 196.803,7.200 198.600 C 7.200 200.397,7.335 202.000,7.500 202.164 C 7.665 202.327,8.026 205.552,8.303 209.331 C 9.525 226.029,9.815 229.424,10.053 229.800 C 10.193 230.020,10.437 233.260,10.595 237.000 C 10.754 240.740,11.021 243.980,11.188 244.200 C 11.355 244.420,11.627 246.760,11.794 249.400 C 11.960 252.040,12.175 254.920,12.270 255.800 C 12.365 256.680,12.537 259.108,12.652 261.196 C 12.767 263.284,13.009 265.174,13.189 265.396 C 13.369 265.618,13.647 268.818,13.807 272.507 C 13.967 276.195,14.235 279.298,14.403 279.402 C 14.571 279.505,14.839 282.653,15.000 286.395 C 15.160 290.138,15.424 293.200,15.585 293.200 C 15.746 293.200,16.005 295.585,16.160 298.500 C 16.314 301.415,16.538 304.610,16.657 305.600 C 16.775 306.590,16.959 308.975,17.065 310.900 C 17.170 312.825,17.402 314.400,17.580 314.400 C 17.758 314.400,18.034 317.415,18.194 321.100 C 18.354 324.785,18.625 327.980,18.796 328.200 C 18.968 328.420,19.238 331.616,19.397 335.303 C 19.556 338.989,19.824 342.091,19.994 342.196 C 20.164 342.301,20.433 345.405,20.593 349.093 C 20.753 352.782,21.021 355.980,21.188 356.200 C 21.354 356.420,21.626 358.850,21.792 361.600 C 21.957 364.350,22.165 367.230,22.254 368.000 C 22.342 368.770,22.519 371.155,22.646 373.300 C 22.773 375.445,23.018 377.200,23.190 377.200 C 23.362 377.200,23.634 380.351,23.794 384.203 C 23.955 388.055,24.226 391.293,24.397 391.398 C 24.568 391.504,24.839 394.653,25.000 398.395 C 25.160 402.138,25.423 405.200,25.584 405.200 C 25.827 405.200,26.226 410.266,26.535 417.267 C 26.571 418.074,26.735 418.869,26.900 419.033 C 27.065 419.198,27.200 420.923,27.200 422.867 C 27.200 424.810,27.358 426.400,27.551 426.400 C 27.745 426.400,28.034 429.550,28.194 433.400 C 28.355 437.250,28.627 440.400,28.800 440.400 C 28.973 440.400,29.245 443.550,29.406 447.400 C 29.566 451.250,29.855 454.400,30.049 454.400 C 30.242 454.400,30.417 455.795,30.438 457.500 C 30.458 459.205,30.629 462.220,30.816 464.200 C 31.004 466.180,31.356 469.870,31.598 472.400 C 32.169 478.357,32.382 480.997,32.647 485.398 C 32.767 487.377,33.010 489.177,33.188 489.398 C 33.366 489.619,33.642 492.905,33.802 496.700 C 33.961 500.495,34.226 503.600,34.390 503.600 C 34.554 503.600,34.808 506.345,34.955 509.700 C 35.232 516.037,35.809 519.200,36.687 519.200 C 36.969 519.200,37.200 519.367,37.200 519.571 C 37.200 519.775,38.192 520.066,39.405 520.218 C 40.618 520.370,41.709 520.652,41.829 520.847 C 41.949 521.041,42.476 521.200,43.000 521.200 C 43.524 521.200,44.058 521.370,44.186 521.577 C 44.314 521.784,45.269 522.077,46.309 522.227 C 47.349 522.378,48.380 522.641,48.600 522.813 C 48.820 522.985,49.855 523.252,50.900 523.408 C 51.945 523.564,52.800 523.830,52.800 523.999 C 52.800 524.169,53.790 524.432,55.000 524.583 C 56.210 524.734,57.200 525.025,57.200 525.229 C 57.200 525.433,57.729 525.600,58.376 525.600 C 59.023 525.600,59.654 525.763,59.777 525.963 C 59.900 526.162,60.900 526.449,62.000 526.600 C 63.100 526.751,64.092 527.025,64.206 527.209 C 64.320 527.393,65.400 527.667,66.606 527.818 C 67.813 527.969,68.800 528.231,68.800 528.401 C 68.800 528.570,69.565 528.825,70.500 528.966 C 71.435 529.107,72.920 529.479,73.800 529.794 C 74.680 530.108,75.985 530.373,76.700 530.382 C 77.415 530.392,78.000 530.560,78.000 530.755 C 78.000 530.950,78.495 531.204,79.100 531.320 C 81.108 531.705,83.791 532.450,84.465 532.809 C 84.831 533.004,86.046 533.285,87.165 533.433 C 88.284 533.582,89.200 533.847,89.200 534.023 C 89.200 534.199,90.190 534.466,91.400 534.617 C 92.610 534.768,93.600 535.051,93.600 535.246 C 93.600 535.441,94.039 535.600,94.576 535.600 C 95.113 535.600,95.656 535.767,95.783 535.972 C 95.909 536.177,97.000 536.467,98.206 536.618 C 99.413 536.769,100.400 537.038,100.400 537.217 C 100.400 537.396,101.390 537.666,102.600 537.817 C 103.810 537.968,104.800 538.238,104.800 538.417 C 104.800 538.596,105.790 538.866,107.000 539.017 C 108.210 539.168,109.200 539.431,109.200 539.600 C 109.200 539.769,110.190 540.032,111.400 540.183 C 112.610 540.334,113.600 540.625,113.600 540.829 C 113.600 541.033,114.129 541.200,114.776 541.200 C 115.423 541.200,116.054 541.363,116.177 541.563 C 116.300 541.762,117.301 542.049,118.400 542.200 C 119.500 542.351,120.400 542.617,120.400 542.791 C 120.400 542.965,121.387 543.231,122.594 543.382 C 123.800 543.533,124.880 543.807,124.994 543.991 C 125.108 544.175,126.100 544.449,127.200 544.600 C 128.300 544.751,129.292 545.025,129.406 545.209 C 129.520 545.393,130.600 545.667,131.806 545.818 C 133.013 545.969,134.000 546.251,134.000 546.446 C 134.000 546.641,134.439 546.800,134.976 546.800 C 135.513 546.800,136.054 546.963,136.177 547.163 C 136.300 547.362,137.300 547.649,138.400 547.800 C 139.500 547.951,140.492 548.225,140.606 548.409 C 140.720 548.593,141.802 548.868,143.012 549.019 C 144.221 549.170,145.299 549.437,145.407 549.612 C 145.516 549.787,146.368 550.046,147.302 550.188 C 148.236 550.329,149.360 550.601,149.800 550.791 C 151.482 551.517,154.580 552.400,155.448 552.400 C 155.945 552.400,156.451 552.559,156.571 552.754 C 156.692 552.948,157.647 553.235,158.695 553.391 C 159.743 553.547,160.780 553.815,161.000 553.987 C 161.220 554.159,162.251 554.422,163.291 554.573 C 164.331 554.723,165.272 554.992,165.382 555.170 C 165.492 555.349,166.479 555.613,167.575 555.759 C 168.670 555.904,169.675 556.198,169.807 556.412 C 169.939 556.625,170.577 556.800,171.224 556.800 C 171.871 556.800,172.400 556.959,172.400 557.154 C 172.400 557.349,173.390 557.632,174.600 557.783 C 175.810 557.934,176.800 558.204,176.800 558.383 C 176.800 558.562,177.790 558.832,179.000 558.983 C 180.210 559.134,181.200 559.407,181.200 559.590 C 181.200 559.772,182.280 560.047,183.600 560.200 C 184.920 560.353,186.000 560.641,186.000 560.839 C 186.000 561.038,186.439 561.200,186.976 561.200 C 187.513 561.200,188.051 561.359,188.171 561.554 C 188.292 561.748,189.247 562.035,190.295 562.191 C 191.343 562.347,192.380 562.620,192.600 562.798 C 194.187 564.080,204.571 564.169,206.512 562.918 C 206.950 562.635,209.495 561.964,212.500 561.338 C 213.105 561.212,213.600 560.970,213.600 560.801 C 213.600 560.631,214.587 560.369,215.794 560.218 C 217.000 560.067,218.078 559.797,218.189 559.618 C 218.300 559.439,219.229 559.167,220.254 559.013 C 221.279 558.859,222.406 558.581,222.759 558.394 C 223.518 557.992,226.466 557.207,228.300 556.917 C 229.015 556.805,229.600 556.569,229.600 556.394 C 229.600 556.218,230.500 555.951,231.600 555.800 C 232.699 555.649,233.692 555.375,233.806 555.191 C 233.920 555.007,235.000 554.733,236.206 554.582 C 237.413 554.431,238.400 554.169,238.400 554.000 C 238.400 553.831,239.390 553.568,240.600 553.417 C 241.810 553.266,242.800 552.975,242.800 552.771 C 242.800 552.567,243.256 552.400,243.813 552.400 C 244.370 552.400,245.472 552.130,246.262 551.800 C 247.051 551.470,248.126 551.200,248.649 551.200 C 249.172 551.200,249.600 551.033,249.600 550.829 C 249.600 550.625,250.590 550.334,251.800 550.183 C 253.010 550.032,254.000 549.769,254.000 549.600 C 254.000 549.431,254.987 549.169,256.194 549.018 C 257.400 548.867,258.480 548.593,258.594 548.409 C 258.708 548.225,259.700 547.951,260.800 547.800 C 261.900 547.649,262.900 547.362,263.023 547.163 C 263.146 546.963,263.687 546.800,264.224 546.800 C 264.761 546.800,265.200 546.641,265.200 546.446 C 265.200 546.251,266.187 545.969,267.394 545.818 C 268.600 545.667,269.683 545.389,269.800 545.200 C 269.917 545.011,271.002 544.732,272.212 544.581 C 273.421 544.430,274.502 544.158,274.615 543.976 C 274.727 543.795,275.669 543.523,276.709 543.373 C 277.749 543.222,278.780 542.959,279.000 542.787 C 279.220 542.615,280.257 542.347,281.305 542.191 C 282.353 542.035,283.308 541.748,283.429 541.554 C 283.549 541.359,284.076 541.200,284.600 541.200 C 285.124 541.200,285.656 541.033,285.783 540.828 C 285.909 540.623,287.000 540.333,288.206 540.182 C 289.413 540.031,290.400 539.762,290.400 539.583 C 290.400 539.404,291.390 539.134,292.600 538.983 C 293.810 538.832,294.800 538.569,294.800 538.399 C 294.800 538.230,295.636 537.965,296.659 537.812 C 297.681 537.659,298.806 537.376,299.159 537.183 C 299.738 536.866,301.930 536.310,304.900 535.726 C 305.505 535.607,306.000 535.370,306.000 535.201 C 306.000 535.031,306.990 534.768,308.200 534.617 C 309.410 534.466,310.400 534.196,310.400 534.017 C 310.400 533.838,311.387 533.569,312.594 533.418 C 313.800 533.267,314.880 532.993,314.994 532.809 C 315.108 532.625,316.100 532.351,317.200 532.200 C 318.300 532.049,319.300 531.762,319.423 531.563 C 319.546 531.363,320.076 531.200,320.600 531.200 C 321.124 531.200,321.656 531.033,321.783 530.828 C 321.909 530.623,323.000 530.333,324.206 530.182 C 325.413 530.031,326.400 529.762,326.400 529.583 C 326.400 529.404,327.390 529.134,328.600 528.983 C 329.810 528.832,330.800 528.562,330.800 528.383 C 330.800 528.204,331.790 527.934,333.000 527.783 C 334.210 527.632,335.200 527.372,335.200 527.205 C 335.200 527.039,336.093 526.785,337.184 526.640 C 338.275 526.495,339.275 526.202,339.407 525.988 C 339.539 525.775,340.177 525.600,340.824 525.600 C 341.471 525.600,342.000 525.433,342.000 525.229 C 342.000 525.025,342.990 524.734,344.200 524.583 C 345.410 524.432,346.400 524.169,346.400 524.000 C 346.400 523.831,347.390 523.568,348.600 523.417 C 349.810 523.266,350.800 522.996,350.800 522.817 C 350.800 522.638,351.787 522.369,352.994 522.218 C 354.200 522.067,355.291 521.777,355.417 521.572 C 355.544 521.367,356.076 521.200,356.600 521.200 C 357.124 521.200,357.649 521.044,357.767 520.853 C 357.885 520.662,358.886 520.386,359.991 520.239 C 361.096 520.092,362.000 519.799,362.000 519.586 C 362.000 519.374,362.450 519.200,363.000 519.200 C 363.971 519.200,364.000 519.120,364.000 516.400 C 364.000 514.860,364.161 513.600,364.357 513.600 C 364.553 513.600,364.845 510.450,365.006 506.600 C 365.166 502.750,365.434 499.600,365.600 499.600 C 365.767 499.600,366.034 496.585,366.194 492.900 C 366.354 489.215,366.631 486.019,366.810 485.798 C 366.989 485.577,367.234 483.867,367.354 481.998 C 367.932 472.976,368.626 464.960,368.859 464.600 C 369.001 464.380,369.248 461.230,369.406 457.600 C 369.565 453.970,369.835 450.820,370.005 450.600 C 370.176 450.380,370.446 447.185,370.606 443.500 C 370.766 439.815,371.031 436.800,371.195 436.800 C 371.359 436.800,371.624 433.785,371.784 430.100 C 371.944 426.415,372.224 423.219,372.406 422.998 C 372.587 422.777,372.833 421.067,372.951 419.198 C 373.499 410.549,374.223 402.163,374.453 401.800 C 374.593 401.580,374.837 398.384,374.996 394.697 C 375.155 391.011,375.427 387.907,375.600 387.800 C 375.772 387.693,376.045 384.455,376.206 380.603 C 376.366 376.751,376.643 373.600,376.820 373.600 C 376.998 373.600,377.240 372.025,377.358 370.100 C 378.086 358.252,378.490 353.326,378.780 352.779 C 378.960 352.438,379.240 349.153,379.402 345.479 C 379.565 341.806,379.835 338.800,380.003 338.800 C 380.171 338.800,380.440 335.738,380.600 331.995 C 380.761 328.253,381.032 325.104,381.203 324.998 C 381.374 324.893,381.645 321.655,381.806 317.803 C 381.966 313.951,382.255 310.800,382.449 310.800 C 382.642 310.800,382.800 309.191,382.800 307.224 C 382.800 305.257,382.961 303.548,383.157 303.426 C 383.354 303.305,383.646 300.231,383.806 296.596 C 383.966 292.961,384.236 289.901,384.406 289.796 C 384.575 289.692,384.845 286.455,385.006 282.603 C 385.166 278.751,385.435 275.600,385.603 275.600 C 385.771 275.600,386.040 272.540,386.200 268.800 C 386.360 265.060,386.627 262.000,386.791 262.000 C 386.956 262.000,387.126 260.440,387.168 258.533 C 387.210 256.625,387.395 254.780,387.580 254.433 C 387.765 254.085,388.049 250.871,388.210 247.292 C 388.371 243.712,388.642 240.698,388.812 240.593 C 388.982 240.488,389.252 237.341,389.412 233.601 C 389.571 229.860,389.840 226.800,390.008 226.800 C 390.176 226.800,390.445 223.650,390.606 219.800 C 390.766 215.950,391.032 212.800,391.198 212.800 C 391.363 212.800,391.629 209.695,391.789 205.900 C 391.949 202.105,392.227 198.820,392.407 198.599 C 392.586 198.379,392.832 196.759,392.954 194.999 C 393.680 184.467,394.232 178.150,394.457 177.800 C 394.598 177.580,394.844 174.340,395.003 170.600 C 395.162 166.860,395.432 163.620,395.604 163.400 C 395.775 163.180,396.046 160.120,396.204 156.600 C 396.362 153.080,396.637 150.019,396.814 149.798 C 396.991 149.577,397.234 147.867,397.354 145.998 C 397.860 138.102,398.655 128.957,398.884 128.400 C 399.087 127.908,400.016 113.534,400.004 111.100 C 400.000 110.434,390.208 110.400,200.000 110.400 L 0.000 110.400 0.004 113.300 M363.200 145.232 C 363.200 145.689,363.019 147.714,362.798 149.732 C 362.282 154.436,360.472 174.691,359.986 181.200 C 359.781 183.950,359.525 186.740,359.416 187.400 C 359.308 188.060,359.039 190.850,358.817 193.600 C 358.596 196.350,358.135 201.660,357.793 205.400 C 357.451 209.140,356.913 215.170,356.597 218.800 C 356.281 222.430,355.750 228.460,355.416 232.200 C 355.082 235.940,354.627 241.070,354.404 243.600 C 354.181 246.130,353.907 248.920,353.794 249.800 C 353.681 250.680,353.412 253.650,353.196 256.400 C 352.980 259.150,352.524 264.460,352.184 268.200 C 350.977 281.459,350.378 288.259,350.002 293.000 C 349.792 295.640,349.527 298.430,349.413 299.200 C 349.299 299.970,349.016 302.940,348.783 305.800 C 348.551 308.660,348.094 313.970,347.768 317.600 C 346.688 329.644,346.047 336.944,345.625 342.000 C 345.395 344.750,345.032 348.710,344.818 350.800 C 344.603 352.890,344.148 357.840,343.807 361.800 C 343.465 365.760,343.011 370.890,342.796 373.200 C 342.581 375.510,342.044 381.630,341.602 386.800 C 341.160 391.970,340.620 398.000,340.402 400.200 C 340.184 402.400,339.733 407.350,339.398 411.200 C 339.064 415.050,338.696 419.190,338.580 420.400 C 338.464 421.610,338.102 425.660,337.776 429.400 C 337.450 433.140,336.914 439.170,336.586 442.800 C 336.258 446.430,335.725 452.460,335.402 456.200 C 335.079 459.940,334.640 464.890,334.426 467.200 C 334.212 469.510,333.844 473.650,333.607 476.400 C 333.371 479.150,333.003 482.942,332.789 484.827 C 332.575 486.712,332.397 489.052,332.394 490.027 C 332.391 491.002,332.256 491.998,332.094 492.241 C 331.664 492.887,326.833 494.290,295.000 503.014 C 289.239 504.592,287.117 505.179,284.200 505.996 C 282.440 506.490,280.460 507.034,279.800 507.205 C 279.140 507.377,272.660 509.171,265.400 511.193 C 258.140 513.215,251.030 515.191,249.600 515.584 C 248.170 515.978,245.560 516.703,243.800 517.196 C 242.040 517.690,240.060 518.235,239.400 518.407 C 238.740 518.580,231.630 520.555,223.600 522.797 C 215.570 525.039,208.460 527.016,207.800 527.190 C 207.140 527.364,205.208 527.887,203.507 528.353 C 201.806 528.819,200.321 529.200,200.207 529.200 C 200.093 529.200,200.000 517.714,200.000 503.676 L 200.000 478.151 197.500 477.433 C 196.125 477.039,194.010 476.445,192.800 476.114 C 191.590 475.784,190.311 475.368,189.959 475.190 C 189.606 475.012,188.479 474.741,187.454 474.587 C 186.429 474.433,185.502 474.165,185.395 473.991 C 185.287 473.817,184.300 473.551,183.200 473.400 C 182.100 473.249,181.100 472.962,180.977 472.763 C 180.854 472.563,180.369 472.400,179.900 472.400 C 179.431 472.400,177.597 471.959,175.824 471.421 C 172.764 470.492,170.620 469.884,165.600 468.523 C 164.390 468.195,162.590 467.700,161.600 467.423 C 160.610 467.145,158.630 466.597,157.200 466.203 C 155.770 465.810,153.829 465.243,152.886 464.944 C 151.943 464.645,150.829 464.400,150.410 464.400 C 149.990 464.400,149.546 464.237,149.423 464.037 C 149.300 463.838,148.300 463.551,147.200 463.400 C 146.100 463.249,145.110 462.979,145.000 462.800 C 144.890 462.621,143.900 462.351,142.800 462.200 C 141.700 462.049,140.700 461.762,140.577 461.563 C 140.454 461.363,139.834 461.200,139.200 461.200 C 138.566 461.200,137.946 461.037,137.823 460.837 C 137.700 460.638,136.700 460.351,135.600 460.200 C 134.500 460.049,133.513 459.783,133.405 459.609 C 133.298 459.435,132.371 459.167,131.346 459.013 C 130.321 458.859,129.194 458.581,128.841 458.394 C 128.489 458.207,127.390 457.851,126.400 457.603 C 124.486 457.123,123.608 456.884,119.800 455.807 C 118.480 455.433,116.680 454.952,115.800 454.737 C 114.920 454.521,113.923 454.200,113.585 454.022 C 113.246 453.844,112.166 453.566,111.185 453.404 C 110.203 453.242,109.220 452.970,109.000 452.800 C 108.780 452.630,107.833 452.364,106.897 452.209 C 105.960 452.055,104.274 451.593,103.150 451.182 C 102.027 450.771,100.324 450.318,99.367 450.174 C 96.554 449.752,96.749 450.582,95.241 432.600 C 94.982 429.520,94.588 425.560,94.365 423.800 C 94.141 422.040,93.777 418.170,93.555 415.200 C 93.163 409.962,92.655 403.923,91.420 389.800 C 91.093 386.060,90.658 380.986,90.452 378.525 C 90.247 376.064,89.969 373.364,89.835 372.525 C 89.404 369.829,87.770 369.984,115.425 370.097 L 140.600 370.200 140.905 372.400 C 141.073 373.610,141.478 377.705,141.805 381.500 C 142.132 385.295,142.679 391.595,143.020 395.500 C 143.360 399.405,143.765 404.161,143.920 406.068 C 144.074 407.975,144.290 409.595,144.400 409.668 C 145.407 410.333,146.505 410.800,147.059 410.800 C 147.846 410.800,151.902 411.935,152.865 412.425 C 153.231 412.611,154.446 412.885,155.565 413.033 C 156.684 413.182,157.600 413.437,157.600 413.600 C 157.600 413.763,158.493 414.015,159.584 414.160 C 160.675 414.305,161.662 414.577,161.778 414.765 C 161.894 414.953,162.979 415.230,164.188 415.381 C 165.398 415.532,166.491 415.823,166.617 416.028 C 166.744 416.233,167.226 416.400,167.688 416.400 C 168.578 416.400,172.575 417.475,173.615 417.994 C 173.954 418.163,175.034 418.434,176.015 418.597 C 176.997 418.759,177.980 419.006,178.200 419.145 C 178.420 419.283,179.500 419.605,180.600 419.858 C 181.700 420.112,183.680 420.621,185.000 420.988 C 186.320 421.356,187.940 421.756,188.600 421.878 C 189.260 422.001,189.980 422.238,190.200 422.405 C 190.420 422.573,191.410 422.840,192.400 423.000 C 193.390 423.160,194.380 423.430,194.600 423.600 C 194.820 423.770,195.810 424.041,196.800 424.201 C 197.790 424.362,198.916 424.659,199.302 424.862 C 199.969 425.212,199.999 423.282,199.902 385.715 L 199.800 346.200 143.733 346.000 C 112.897 345.890,87.578 345.710,87.469 345.600 C 87.361 345.490,87.072 342.700,86.828 339.400 C 86.584 336.100,86.233 331.780,86.047 329.800 C 85.862 327.820,85.499 323.680,85.241 320.600 C 84.982 317.520,84.588 313.560,84.365 311.800 C 84.029 309.156,83.567 303.686,83.082 296.600 L 83.000 295.400 141.500 295.299 L 200.000 295.197 200.000 270.041 C 200.000 247.472,199.935 244.861,199.367 244.643 C 199.019 244.509,171.659 244.400,138.567 244.400 L 78.400 244.400 78.358 243.500 C 78.334 243.005,78.156 240.800,77.962 238.600 C 77.768 236.400,77.332 231.450,76.993 227.600 C 76.654 223.750,76.231 219.070,76.053 217.200 C 75.876 215.330,75.515 211.190,75.252 208.000 C 74.989 204.810,74.599 201.199,74.387 199.976 C 74.174 198.753,74.000 196.908,74.000 195.876 L 74.000 194.000 136.367 194.000 C 170.669 194.000,199.019 193.891,199.367 193.757 C 199.935 193.539,200.000 190.981,200.000 168.957 L 200.000 144.400 281.600 144.400 L 363.200 144.400 363.200 145.232 " stroke="none" fill="#244ce4" fill-rule="evenodd"></path><path id="path2" d="M93.600 38.200 L 93.600 76.400 124.400 76.400 L 155.200 76.400 155.200 63.400 L 155.200 50.400 137.800 50.400 L 120.400 50.400 120.400 38.200 L 120.400 26.000 137.800 26.000 L 155.200 26.000 155.200 13.000 L 155.200 0.000 124.400 0.000 L 93.600 0.000 93.600 38.200 M166.000 25.200 L 166.000 50.400 183.800 50.400 L 201.600 50.400 201.600 52.000 L 201.600 53.600 183.800 53.600 L 166.000 53.600 166.000 65.600 L 166.000 77.600 197.000 77.600 L 228.000 77.600 228.000 51.800 L 228.000 26.000 210.400 26.000 L 192.800 26.000 192.800 24.400 L 192.800 22.800 210.400 22.800 L 228.000 22.800 228.000 11.400 L 228.000 0.000 197.000 0.000 L 166.000 0.000 166.000 25.200 M239.200 25.200 L 239.200 50.400 256.600 50.400 L 274.000 50.400 274.000 52.000 L 274.000 53.600 256.600 53.600 L 239.200 53.600 239.200 65.600 L 239.200 77.600 270.000 77.600 L 300.800 77.600 300.800 51.800 L 300.800 26.000 283.000 26.000 L 265.200 26.000 265.200 24.400 L 265.200 22.800 283.000 22.800 L 300.800 22.800 300.800 11.400 L 300.800 0.000 270.000 0.000 L 239.200 0.000 239.200 25.200 " stroke="none" fill="#040404" fill-rule="evenodd"></path><path id="path3" d="M200.000 168.967 C 200.000 188.246,199.892 193.577,199.500 193.735 C 199.225 193.846,227.395 193.951,262.100 193.968 L 325.200 194.000 325.200 196.310 C 325.200 197.581,325.015 200.095,324.789 201.897 C 324.563 203.699,324.194 207.295,323.968 209.887 C 323.743 212.479,323.296 217.570,322.975 221.200 C 322.654 224.830,322.223 230.140,322.017 233.000 C 321.810 235.860,321.461 239.640,321.239 241.400 C 321.018 243.160,320.558 248.020,320.217 252.200 C 319.876 256.380,319.511 260.610,319.406 261.600 C 319.074 264.744,318.031 276.808,317.626 282.200 C 317.411 285.060,317.051 288.840,316.825 290.600 C 316.600 292.360,316.319 295.420,316.202 297.400 C 316.085 299.380,315.815 302.530,315.603 304.400 C 315.390 306.270,314.936 311.130,314.595 315.200 C 314.254 319.270,313.881 323.410,313.767 324.400 C 313.653 325.390,313.305 329.170,312.994 332.800 C 312.220 341.827,311.256 352.900,310.993 355.800 C 310.873 357.120,310.515 361.080,310.198 364.600 C 309.881 368.120,309.524 371.990,309.404 373.200 C 309.285 374.410,308.920 378.460,308.593 382.200 C 308.267 385.940,307.729 392.060,307.398 395.800 C 307.066 399.540,306.620 404.850,306.406 407.600 C 306.192 410.350,305.842 414.130,305.628 416.000 C 305.414 417.870,304.950 423.000,304.598 427.400 C 304.246 431.800,303.789 436.570,303.584 438.000 C 303.379 439.430,303.102 442.520,302.969 444.866 C 302.699 449.634,302.816 449.473,299.000 450.348 C 298.120 450.550,295.181 451.364,292.468 452.157 C 289.755 452.951,287.201 453.600,286.792 453.600 C 286.382 453.600,285.949 453.759,285.829 453.954 C 285.708 454.148,284.771 454.433,283.746 454.587 C 282.721 454.741,281.594 455.019,281.241 455.206 C 280.889 455.393,279.790 455.749,278.800 455.997 C 276.749 456.511,275.587 456.829,272.200 457.806 C 270.880 458.186,268.900 458.715,267.800 458.980 C 266.700 459.245,265.530 459.578,265.200 459.720 C 264.870 459.862,263.880 460.148,263.000 460.355 C 262.120 460.561,260.320 461.035,259.000 461.408 C 257.680 461.781,256.060 462.239,255.400 462.425 C 253.329 463.011,249.872 463.939,248.000 464.413 C 247.010 464.663,245.840 465.018,245.400 465.200 C 244.960 465.382,243.790 465.738,242.800 465.990 C 240.705 466.523,239.740 466.786,235.400 468.005 C 233.640 468.500,231.750 468.984,231.200 469.082 C 230.650 469.180,229.840 469.411,229.400 469.596 C 228.960 469.781,227.790 470.137,226.800 470.387 C 224.362 471.004,220.861 471.956,219.400 472.400 C 217.857 472.869,214.301 473.833,212.000 474.406 C 211.010 474.653,209.911 475.007,209.559 475.194 C 209.206 475.381,208.079 475.659,207.054 475.813 C 206.029 475.967,205.092 476.252,204.971 476.446 C 204.851 476.641,204.379 476.800,203.923 476.800 C 203.466 476.800,202.397 477.008,201.546 477.263 L 200.000 477.727 200.000 503.463 C 200.000 517.618,200.093 529.200,200.207 529.200 C 200.321 529.200,201.806 528.819,203.507 528.353 C 205.208 527.887,207.140 527.364,207.800 527.190 C 208.460 527.016,215.570 525.039,223.600 522.797 C 231.630 520.555,238.740 518.580,239.400 518.407 C 240.060 518.235,242.040 517.690,243.800 517.196 C 245.560 516.703,248.170 515.978,249.600 515.584 C 251.030 515.191,258.140 513.215,265.400 511.193 C 272.660 509.171,279.140 507.377,279.800 507.205 C 280.460 507.034,282.440 506.490,284.200 505.996 C 287.117 505.179,289.239 504.592,295.000 503.014 C 326.833 494.290,331.664 492.887,332.094 492.241 C 332.256 491.998,332.391 491.002,332.394 490.027 C 332.397 489.052,332.575 486.712,332.789 484.827 C 333.003 482.942,333.371 479.150,333.607 476.400 C 333.844 473.650,334.212 469.510,334.426 467.200 C 334.640 464.890,335.079 459.940,335.402 456.200 C 335.725 452.460,336.258 446.430,336.586 442.800 C 336.914 439.170,337.450 433.140,337.776 429.400 C 338.102 425.660,338.464 421.610,338.580 420.400 C 338.696 419.190,339.064 415.050,339.398 411.200 C 339.733 407.350,340.184 402.400,340.402 400.200 C 340.620 398.000,341.160 391.970,341.602 386.800 C 342.044 381.630,342.581 375.510,342.796 373.200 C 343.011 370.890,343.465 365.760,343.807 361.800 C 344.148 357.840,344.603 352.890,344.818 350.800 C 345.032 348.710,345.395 344.750,345.625 342.000 C 346.047 336.944,346.688 329.644,347.768 317.600 C 348.094 313.970,348.551 308.660,348.783 305.800 C 349.016 302.940,349.299 299.970,349.413 299.200 C 349.527 298.430,349.792 295.640,350.002 293.000 C 350.378 288.259,350.977 281.459,352.184 268.200 C 352.524 264.460,352.980 259.150,353.196 256.400 C 353.412 253.650,353.681 250.680,353.794 249.800 C 353.907 248.920,354.181 246.130,354.404 243.600 C 354.627 241.070,355.082 235.940,355.416 232.200 C 355.750 228.460,356.281 222.430,356.597 218.800 C 356.913 215.170,357.451 209.140,357.793 205.400 C 358.135 201.660,358.596 196.350,358.817 193.600 C 359.039 190.850,359.308 188.060,359.416 187.400 C 359.525 186.740,359.781 183.950,359.986 181.200 C 360.472 174.691,362.282 154.436,362.798 149.732 C 363.019 147.714,363.200 145.689,363.200 145.232 L 363.200 144.400 281.600 144.400 L 200.000 144.400 200.000 168.967 M74.128 196.400 C 74.128 197.830,74.201 198.415,74.289 197.700 C 74.378 196.985,74.378 195.815,74.289 195.100 C 74.201 194.385,74.128 194.970,74.128 196.400 M75.320 209.200 C 75.320 210.410,75.395 210.905,75.487 210.300 C 75.578 209.695,75.578 208.705,75.487 208.100 C 75.395 207.495,75.320 207.990,75.320 209.200 M76.006 219.033 C 76.009 219.675,76.184 220.470,76.395 220.800 C 76.655 221.209,76.699 220.890,76.532 219.800 C 76.229 217.823,75.998 217.486,76.006 219.033 M77.206 232.433 C 77.209 233.185,77.377 234.061,77.579 234.379 C 77.816 234.754,77.865 234.330,77.718 233.179 C 77.435 230.970,77.198 230.625,77.206 232.433 M199.500 244.664 C 199.893 244.823,200.000 250.275,200.000 270.033 L 200.000 295.200 232.739 295.200 L 265.477 295.200 265.959 288.900 C 266.224 285.435,266.690 279.720,266.995 276.200 C 267.300 272.680,267.737 267.370,267.966 264.400 C 268.195 261.430,268.488 258.280,268.618 257.400 C 268.839 255.904,269.545 248.486,269.721 245.800 L 269.800 244.600 234.400 244.530 C 214.930 244.492,199.225 244.552,199.500 244.664 M84.124 308.600 C 84.126 309.920,84.201 310.412,84.290 309.693 C 84.379 308.974,84.377 307.894,84.286 307.293 C 84.195 306.692,84.122 307.280,84.124 308.600 M85.320 321.600 C 85.320 322.810,85.395 323.305,85.487 322.700 C 85.578 322.095,85.578 321.105,85.487 320.500 C 85.395 319.895,85.320 320.390,85.320 321.600 M86.006 331.833 C 86.009 332.475,86.196 333.270,86.421 333.600 C 86.714 334.030,86.754 333.746,86.562 332.600 C 86.230 330.616,85.998 330.296,86.006 331.833 M143.800 345.997 L 199.800 346.200 199.902 385.722 C 199.980 416.014,200.114 425.177,200.477 424.952 C 200.737 424.792,201.905 424.418,203.073 424.122 C 206.008 423.379,208.967 422.586,211.800 421.785 C 213.120 421.412,214.830 420.957,215.600 420.775 C 216.370 420.593,218.080 420.150,219.400 419.790 C 223.201 418.756,225.836 418.044,228.100 417.440 C 229.255 417.132,231.190 416.598,232.400 416.254 C 233.610 415.911,236.130 415.251,238.000 414.789 C 239.870 414.327,241.677 413.803,242.015 413.624 C 242.354 413.445,243.434 413.166,244.415 413.004 C 245.397 412.842,246.380 412.573,246.600 412.407 C 246.820 412.240,247.720 411.984,248.600 411.836 C 249.480 411.688,250.650 411.409,251.200 411.216 C 251.750 411.023,252.650 410.762,253.200 410.636 C 255.484 410.113,255.422 410.444,256.786 391.400 C 256.991 388.540,257.342 384.760,257.567 383.000 C 257.792 381.240,258.180 377.280,258.429 374.200 C 258.677 371.120,259.033 366.980,259.220 365.000 C 259.406 363.020,259.821 358.160,260.140 354.200 C 260.460 350.240,260.784 346.730,260.861 346.400 C 260.984 345.868,251.172 345.800,174.400 345.797 C 99.816 345.795,95.570 345.823,143.800 345.997 M102.500 370.300 C 109.485 370.361,120.915 370.361,127.900 370.300 C 134.885 370.239,129.170 370.188,115.200 370.188 C 101.230 370.188,95.515 370.239,102.500 370.300 M141.082 375.800 C 141.209 376.900,141.377 377.875,141.456 377.967 C 141.755 378.314,141.528 375.364,141.197 374.600 C 140.974 374.085,140.933 374.513,141.082 375.800 M142.238 389.400 C 142.570 391.384,142.802 391.704,142.794 390.167 C 142.791 389.525,142.604 388.730,142.379 388.400 C 142.086 387.970,142.046 388.254,142.238 389.400 M91.606 394.633 C 91.609 395.275,91.784 396.070,91.995 396.400 C 92.255 396.809,92.299 396.490,92.132 395.400 C 91.829 393.423,91.598 393.086,91.606 394.633 M143.462 403.000 C 143.596 403.880,143.772 404.675,143.853 404.767 C 144.156 405.110,143.929 402.968,143.581 402.200 C 143.329 401.642,143.293 401.885,143.462 403.000 M92.920 407.600 C 92.920 408.810,92.995 409.305,93.087 408.700 C 93.178 408.095,93.178 407.105,93.087 406.500 C 92.995 405.895,92.920 406.390,92.920 407.600 M144.151 409.652 C 144.200 409.911,144.646 410.273,145.141 410.456 C 145.712 410.668,145.951 410.645,145.797 410.395 C 145.663 410.178,145.308 410.000,145.010 410.000 C 144.711 410.000,144.375 409.815,144.263 409.590 C 144.151 409.365,144.101 409.392,144.151 409.652 M94.128 420.400 C 94.128 421.830,94.201 422.415,94.289 421.700 C 94.378 420.985,94.378 419.815,94.289 419.100 C 94.201 418.385,94.128 418.970,94.128 420.400 M95.320 433.600 C 95.320 434.810,95.395 435.305,95.487 434.700 C 95.578 434.095,95.578 433.105,95.487 432.500 C 95.395 431.895,95.320 432.390,95.320 433.600 M96.006 443.633 C 96.009 444.385,96.192 445.270,96.412 445.600 C 96.691 446.019,96.733 445.658,96.550 444.400 C 96.225 442.159,95.998 441.840,96.006 443.633 M104.400 451.582 C 104.730 451.805,105.345 451.991,105.767 451.994 C 106.790 452.002,106.471 451.773,105.000 451.444 C 104.124 451.248,103.962 451.285,104.400 451.582 " stroke="none" fill="#2c63f3" fill-rule="evenodd"></path><path id="path4" d="M199.542 194.300 L 324.885 194.401 324.620 198.101 C 324.474 200.135,324.195 203.150,324.000 204.800 C 323.469 209.296,323.160 215.945,323.601 213.400 C 324.011 211.036,324.780 202.921,325.090 197.700 L 325.309 194.000 199.755 194.099 L 74.200 194.199 199.542 194.300 M74.675 199.600 C 74.797 202.130,75.042 204.920,75.221 205.800 C 75.638 207.853,75.210 199.274,74.772 196.800 C 74.578 195.702,74.540 196.795,74.675 199.600 M75.868 212.800 C 75.989 215.330,76.235 218.120,76.415 219.000 C 76.836 221.063,76.411 212.471,75.970 210.000 C 75.771 208.886,75.732 209.954,75.868 212.800 M322.632 219.900 C 322.082 226.419,322.001 228.615,322.347 227.581 C 322.723 226.455,323.382 216.800,323.082 216.800 C 322.979 216.800,322.776 218.195,322.632 219.900 M76.825 223.433 C 76.839 224.515,77.012 226.930,77.209 228.800 C 77.406 230.670,77.762 234.630,78.000 237.600 C 78.237 240.570,78.526 243.314,78.642 243.698 C 78.842 244.360,83.886 244.402,174.406 244.498 C 226.961 244.554,269.825 244.465,269.661 244.301 C 269.496 244.136,226.530 243.956,174.181 243.901 L 79.000 243.800 78.543 238.200 C 77.285 222.766,76.759 218.244,76.825 223.433 M321.446 233.300 C 320.885 240.489,320.812 242.652,321.176 241.230 C 321.576 239.671,322.199 230.000,321.900 230.000 C 321.792 230.000,321.587 231.485,321.446 233.300 M320.240 246.829 C 320.061 249.155,319.992 251.405,320.088 251.829 C 320.322 252.869,320.917 245.318,320.721 243.800 C 320.635 243.140,320.419 244.503,320.240 246.829 M269.626 246.600 C 269.589 246.820,269.400 248.890,269.204 251.200 C 269.009 253.510,268.646 257.475,268.397 260.012 C 268.149 262.548,268.003 265.428,268.073 266.412 C 268.144 267.413,268.423 265.561,268.707 262.200 C 268.986 258.900,269.402 254.253,269.632 251.874 C 269.861 249.495,269.969 247.245,269.871 246.874 C 269.773 246.503,269.663 246.380,269.626 246.600 M319.457 255.500 C 318.940 261.180,318.805 264.593,319.138 263.600 C 319.487 262.558,320.142 252.800,319.863 252.800 C 319.775 252.800,319.593 254.015,319.457 255.500 M318.246 269.100 C 317.701 275.495,317.599 278.212,317.942 277.193 C 318.306 276.112,318.978 266.000,318.686 266.000 C 318.589 266.000,318.391 267.395,318.246 269.100 M267.464 270.082 C 267.092 272.830,266.679 281.020,266.924 280.793 C 267.212 280.526,268.131 268.797,267.883 268.550 C 267.780 268.447,267.592 269.136,267.464 270.082 M317.056 282.500 C 316.521 289.035,316.421 291.815,316.771 290.456 C 317.169 288.908,317.787 279.600,317.491 279.600 C 317.383 279.600,317.187 280.905,317.056 282.500 M266.256 283.873 C 265.907 286.261,265.486 294.624,265.727 294.396 C 266.008 294.129,266.906 282.773,266.664 282.531 C 266.563 282.429,266.379 283.033,266.256 283.873 M315.837 296.100 C 315.291 302.874,315.202 305.519,315.576 303.800 C 315.989 301.902,316.591 292.800,316.303 292.800 C 316.193 292.800,315.984 294.285,315.837 296.100 M83.450 299.300 C 83.590 301.555,83.855 304.120,84.038 305.000 C 84.408 306.774,84.123 299.144,83.735 296.901 L 83.511 295.602 174.656 295.500 L 265.800 295.398 174.498 295.299 L 83.196 295.200 83.450 299.300 M314.675 309.600 C 314.499 311.910,314.194 315.150,313.997 316.800 C 313.432 321.539,313.173 327.145,313.572 326.000 C 313.763 325.450,313.938 324.056,313.960 322.902 C 313.982 321.748,314.281 318.228,314.625 315.079 C 314.969 311.929,315.193 308.464,315.122 307.376 C 315.030 305.946,314.906 306.560,314.675 309.600 M84.675 312.000 C 84.797 314.530,85.042 317.320,85.221 318.200 C 85.638 320.253,85.210 311.674,84.772 309.200 C 84.578 308.102,84.540 309.195,84.675 312.000 M85.866 325.456 C 85.986 328.127,86.232 330.917,86.413 331.656 C 86.811 333.273,86.427 325.534,85.965 322.600 C 85.771 321.369,85.733 322.468,85.866 325.456 M312.632 331.900 C 312.082 338.419,312.001 340.615,312.347 339.581 C 312.723 338.455,313.382 328.800,313.082 328.800 C 312.979 328.800,312.776 330.195,312.632 331.900 M87.036 338.400 C 87.142 340.930,87.332 343.584,87.459 344.298 L 87.688 345.596 174.444 345.698 C 222.160 345.754,261.200 345.665,261.200 345.500 C 261.200 345.335,222.254 345.200,174.652 345.200 L 88.105 345.200 87.857 343.700 C 87.720 342.875,87.591 341.210,87.569 340.000 C 87.548 338.790,87.375 336.900,87.187 335.800 C 86.940 334.363,86.898 335.094,87.036 338.400 M311.444 345.100 C 310.873 352.631,310.804 354.651,311.166 353.260 C 311.557 351.761,312.196 341.600,311.900 341.600 C 311.795 341.600,311.590 343.175,311.444 345.100 M260.652 348.274 C 260.245 351.679,259.897 358.207,260.135 357.984 C 260.439 357.699,261.341 346.808,261.082 346.549 C 260.972 346.439,260.778 347.215,260.652 348.274 M310.281 358.400 C 310.112 360.490,309.696 365.022,309.355 368.470 C 309.015 371.919,308.807 375.159,308.893 375.670 C 309.078 376.773,309.325 374.750,310.220 364.800 C 310.587 360.730,310.819 356.770,310.737 356.000 C 310.652 355.203,310.456 356.237,310.281 358.400 M259.645 360.000 C 259.610 360.110,259.408 362.270,259.197 364.800 C 258.985 367.330,258.634 371.110,258.417 373.200 C 258.052 376.707,257.915 382.579,258.230 381.200 C 258.305 380.870,258.555 378.170,258.784 375.200 C 259.014 372.230,259.394 367.957,259.629 365.705 C 259.969 362.449,259.979 358.955,259.645 360.000 M90.214 374.900 C 90.369 377.375,90.648 380.120,90.834 381.000 C 91.196 382.715,90.986 376.851,90.543 372.897 L 90.307 370.794 115.254 370.897 L 140.200 371.000 140.437 373.600 C 140.567 375.030,140.890 378.810,141.153 382.000 C 141.417 385.190,141.709 388.070,141.802 388.400 C 142.121 389.524,141.564 378.839,141.184 376.515 C 140.975 375.242,140.804 373.345,140.802 372.300 L 140.800 370.400 115.366 370.400 L 89.933 370.400 90.214 374.900 M308.237 380.900 C 307.698 387.589,307.604 390.249,307.953 388.925 C 308.327 387.506,308.965 377.600,308.682 377.600 C 308.584 377.600,308.384 379.085,308.237 380.900 M257.460 383.682 C 257.086 386.410,256.674 394.221,256.916 393.998 C 257.206 393.733,258.136 382.403,257.888 382.155 C 257.783 382.049,257.590 382.736,257.460 383.682 M91.428 387.600 C 91.531 390.130,91.788 393.460,91.999 395.000 C 92.210 396.540,92.516 399.600,92.678 401.800 C 92.840 404.000,93.042 405.170,93.126 404.400 C 93.269 403.091,92.358 392.100,91.584 385.800 C 91.295 383.449,91.270 383.738,91.428 387.600 M142.288 393.400 C 142.412 395.820,142.658 398.610,142.835 399.600 C 143.031 400.701,143.071 399.513,142.937 396.544 C 142.816 393.873,142.570 391.083,142.390 390.344 C 142.196 389.548,142.154 390.793,142.288 393.400 M307.053 394.100 C 306.543 400.222,306.418 403.864,306.773 402.200 C 307.181 400.294,307.774 391.200,307.491 391.200 C 307.383 391.200,307.185 392.505,307.053 394.100 M256.254 397.473 C 255.901 399.855,255.480 407.823,255.718 407.600 C 256.003 407.333,256.912 396.378,256.669 396.136 C 256.565 396.031,256.378 396.633,256.254 397.473 M143.341 405.400 C 143.480 406.940,143.596 408.666,143.597 409.236 C 143.600 410.387,144.519 410.968,147.064 411.428 C 149.192 411.813,148.521 411.266,146.147 410.681 L 144.200 410.200 143.931 406.664 C 143.783 404.719,143.532 403.009,143.375 402.864 C 143.217 402.719,143.202 403.860,143.341 405.400 M305.983 405.700 C 305.973 406.195,305.803 408.400,305.605 410.600 C 305.407 412.800,304.970 417.750,304.633 421.600 C 304.297 425.450,303.821 430.713,303.576 433.295 C 303.331 435.877,303.212 438.217,303.313 438.495 C 303.559 439.177,303.826 436.858,304.589 427.400 C 304.945 423.000,305.406 417.960,305.614 416.200 C 306.181 411.405,306.556 404.800,306.260 404.800 C 306.117 404.800,305.992 405.205,305.983 405.700 M93.476 410.600 C 93.593 413.240,93.842 416.030,94.029 416.800 C 94.442 418.494,94.075 411.056,93.590 407.911 C 93.374 406.512,93.336 407.420,93.476 410.600 M255.200 409.351 C 255.200 409.910,253.989 410.503,251.800 411.017 C 251.140 411.172,250.824 411.381,251.098 411.482 C 252.119 411.858,255.600 410.377,255.600 409.568 C 255.600 409.146,255.510 408.800,255.400 408.800 C 255.290 408.800,255.200 409.048,255.200 409.351 M148.891 411.824 C 149.014 411.947,150.799 412.477,152.857 413.001 C 154.916 413.526,157.286 414.157,158.124 414.403 C 158.962 414.649,159.862 414.772,160.124 414.677 C 160.386 414.581,159.880 414.366,159.000 414.199 C 158.120 414.032,157.220 413.763,157.000 413.600 C 156.780 413.437,155.880 413.178,155.000 413.024 C 154.120 412.870,152.629 412.487,151.686 412.172 C 149.957 411.595,148.477 411.411,148.891 411.824 M248.000 411.888 C 247.450 411.987,246.820 412.251,246.600 412.476 C 246.173 412.912,248.302 412.578,249.800 411.973 L 250.600 411.651 249.800 411.680 C 249.360 411.696,248.550 411.790,248.000 411.888 M243.600 413.088 C 243.050 413.187,242.420 413.451,242.200 413.676 C 241.773 414.112,243.902 413.778,245.400 413.173 L 246.200 412.851 245.400 412.880 C 244.960 412.896,244.150 412.990,243.600 413.088 M237.600 414.804 C 236.170 415.203,233.938 415.812,232.639 416.159 C 231.341 416.505,230.186 416.881,230.073 416.994 C 229.691 417.375,231.044 417.204,232.829 416.646 C 233.803 416.341,235.770 415.779,237.200 415.398 C 238.630 415.017,240.250 414.561,240.800 414.384 C 242.846 413.727,240.234 414.070,237.600 414.804 M161.200 415.155 C 161.530 415.360,162.520 415.644,163.400 415.786 C 164.452 415.957,164.795 415.919,164.400 415.674 C 164.070 415.470,163.080 415.186,162.200 415.043 C 161.148 414.872,160.805 414.911,161.200 415.155 M165.600 416.340 C 165.930 416.537,166.920 416.814,167.800 416.957 C 168.806 417.120,169.177 417.084,168.800 416.860 C 168.470 416.663,167.480 416.386,166.600 416.243 C 165.594 416.080,165.223 416.116,165.600 416.340 M169.668 417.388 C 169.816 417.543,170.536 417.817,171.268 417.997 C 173.608 418.572,181.675 420.725,185.531 421.803 C 187.583 422.377,189.473 422.768,189.731 422.672 C 189.989 422.577,189.660 422.372,189.000 422.217 C 188.340 422.062,185.820 421.397,183.400 420.739 C 180.980 420.080,178.010 419.279,176.800 418.958 C 175.590 418.637,174.060 418.215,173.400 418.020 C 171.405 417.431,169.383 417.089,169.668 417.388 M227.280 417.595 C 225.349 418.052,225.127 418.520,227.000 418.184 C 228.732 417.874,230.326 417.199,229.200 417.253 C 228.870 417.269,228.006 417.423,227.280 417.595 M222.400 418.888 C 221.630 419.116,221.183 419.371,221.406 419.454 C 221.629 419.536,222.619 419.351,223.606 419.041 C 224.593 418.732,225.040 418.478,224.600 418.476 C 224.160 418.474,223.170 418.659,222.400 418.888 M94.670 423.800 C 94.792 426.440,95.041 429.320,95.223 430.200 C 95.647 432.258,95.216 423.278,94.771 420.800 C 94.573 419.693,94.534 420.847,94.670 423.800 M217.600 420.185 C 215.198 420.901,211.669 421.859,210.253 422.179 C 209.622 422.322,209.193 422.526,209.300 422.633 C 209.407 422.740,210.193 422.660,211.047 422.454 C 214.518 421.618,220.588 419.945,220.755 419.778 C 221.100 419.433,219.380 419.655,217.600 420.185 M190.502 423.035 C 190.631 423.164,191.336 423.413,192.068 423.588 C 192.801 423.763,194.795 424.288,196.500 424.755 L 199.600 425.604 202.700 424.755 C 204.405 424.288,206.399 423.763,207.132 423.588 C 207.864 423.413,208.569 423.164,208.698 423.035 C 209.123 422.610,207.728 422.789,205.546 423.440 C 204.366 423.792,202.536 424.338,201.481 424.654 C 199.452 425.261,199.363 425.247,193.286 423.338 C 191.509 422.780,190.093 422.626,190.502 423.035 M95.860 437.200 C 95.981 439.730,96.225 442.520,96.403 443.400 C 96.825 445.483,96.402 436.840,95.963 434.400 C 95.761 433.275,95.722 434.326,95.860 437.200 M302.615 444.272 C 302.471 446.212,302.318 448.062,302.275 448.382 C 302.231 448.706,301.219 449.280,299.998 449.675 C 298.172 450.265,298.060 450.348,299.336 450.168 C 302.576 449.709,302.688 449.555,303.005 445.132 C 303.161 442.945,303.197 441.063,303.083 440.950 C 302.969 440.836,302.759 442.331,302.615 444.272 M96.867 447.402 C 96.809 448.797,96.943 449.068,97.903 449.493 C 99.466 450.185,101.991 450.604,101.200 450.040 C 100.870 449.805,100.293 449.609,99.919 449.606 C 98.300 449.592,97.244 448.711,97.088 447.245 L 96.934 445.800 96.867 447.402 M102.613 450.744 C 102.826 450.941,103.720 451.218,104.600 451.360 C 105.595 451.519,105.973 451.483,105.600 451.263 C 104.740 450.757,102.138 450.305,102.613 450.744 M291.400 451.927 C 288.540 452.728,286.479 453.439,286.820 453.506 C 287.414 453.623,297.164 450.969,297.547 450.586 C 297.944 450.189,296.404 450.525,291.400 451.927 M107.000 451.958 C 107.440 452.156,108.970 452.632,110.400 453.015 C 111.830 453.399,113.771 453.957,114.714 454.256 C 116.428 454.800,117.913 454.980,117.530 454.597 C 117.419 454.485,115.904 454.029,114.164 453.584 C 112.424 453.138,110.550 452.611,110.000 452.412 C 108.544 451.885,105.973 451.496,107.000 451.958 M283.400 454.215 L 281.800 454.768 283.600 454.543 C 284.590 454.419,285.571 454.156,285.780 453.959 C 286.322 453.447,285.303 453.557,283.400 454.215 M118.400 455.146 C 118.730 455.356,119.720 455.637,120.600 455.771 C 121.692 455.937,121.946 455.902,121.400 455.659 C 120.172 455.114,117.676 454.687,118.400 455.146 M279.200 455.419 L 277.800 455.976 279.400 455.740 C 280.280 455.609,281.171 455.345,281.380 455.151 C 281.941 454.633,280.831 454.769,279.200 455.419 M122.600 456.309 C 122.820 456.526,123.720 456.818,124.600 456.960 C 126.534 457.270,125.693 456.634,123.600 456.204 C 122.680 456.015,122.337 456.051,122.600 456.309 M274.000 456.802 C 267.628 458.572,265.860 459.145,266.686 459.172 C 267.173 459.187,268.343 458.955,269.286 458.656 C 270.229 458.357,272.170 457.799,273.600 457.415 C 275.030 457.032,276.560 456.568,277.000 456.386 C 278.382 455.813,276.741 456.040,274.000 456.802 M128.800 458.053 C 130.230 458.481,132.210 459.076,133.200 459.376 C 134.190 459.676,135.630 460.029,136.400 460.161 C 138.392 460.503,136.856 459.858,133.600 458.985 C 132.170 458.601,130.229 458.043,129.286 457.744 C 128.343 457.445,127.263 457.217,126.886 457.237 C 126.509 457.258,127.370 457.625,128.800 458.053 M263.400 459.820 L 261.800 460.379 263.400 460.158 C 264.280 460.037,265.171 459.772,265.380 459.569 C 265.895 459.069,265.354 459.138,263.400 459.820 M138.400 460.726 C 138.730 460.930,139.720 461.214,140.600 461.357 C 141.652 461.528,141.995 461.489,141.600 461.245 C 141.270 461.040,140.280 460.756,139.400 460.614 C 138.348 460.443,138.005 460.481,138.400 460.726 M255.437 461.914 C 252.598 462.708,250.492 463.431,250.757 463.519 C 251.022 463.607,252.085 463.418,253.119 463.099 C 254.154 462.780,256.170 462.203,257.600 461.818 C 260.599 461.010,262.085 460.450,261.200 460.462 C 260.870 460.466,258.277 461.120,255.437 461.914 M143.000 461.986 C 143.440 462.168,144.970 462.633,146.400 463.018 C 147.830 463.403,149.846 463.980,150.881 464.299 C 151.915 464.618,152.969 464.810,153.222 464.726 C 153.475 464.642,152.178 464.152,150.341 463.637 C 148.503 463.123,146.229 462.454,145.286 462.151 C 143.363 461.533,141.601 461.406,143.000 461.986 M247.400 464.220 L 245.800 464.779 247.400 464.553 C 249.078 464.316,250.794 463.606,249.600 463.643 C 249.270 463.653,248.280 463.913,247.400 464.220 M154.400 465.146 C 154.730 465.356,155.720 465.637,156.600 465.771 C 157.692 465.937,157.946 465.902,157.400 465.659 C 156.172 465.114,153.676 464.687,154.400 465.146 M244.200 465.078 C 242.519 465.467,231.753 468.489,230.800 468.839 C 229.274 469.401,232.083 468.958,234.600 468.240 C 239.599 466.814,241.530 466.284,243.267 465.857 C 244.294 465.606,245.269 465.265,245.434 465.100 C 245.751 464.782,245.497 464.778,244.200 465.078 M158.492 466.225 C 158.742 466.476,161.368 467.228,166.200 468.433 C 167.960 468.872,169.677 469.382,170.015 469.566 C 170.774 469.979,174.000 470.547,174.000 470.268 C 174.000 470.156,173.235 469.886,172.300 469.668 C 171.365 469.450,167.990 468.538,164.800 467.642 C 158.996 466.012,158.070 465.804,158.492 466.225 M227.000 469.808 C 223.283 470.839,221.193 471.607,222.800 471.350 C 223.570 471.228,224.971 470.873,225.914 470.564 C 226.857 470.254,227.971 470.000,228.390 470.000 C 228.810 470.000,229.264 469.820,229.400 469.600 C 229.709 469.100,229.478 469.120,227.000 469.808 M174.613 470.744 C 174.826 470.941,175.720 471.218,176.600 471.360 C 177.595 471.519,177.973 471.483,177.600 471.263 C 176.740 470.757,174.138 470.305,174.613 470.744 M179.000 471.986 C 179.440 472.168,180.970 472.632,182.400 473.015 C 183.830 473.399,185.771 473.957,186.714 474.256 C 188.656 474.872,190.377 474.988,189.000 474.410 C 188.560 474.225,187.120 473.778,185.800 473.417 C 184.480 473.055,182.524 472.499,181.454 472.180 C 179.312 471.542,177.603 471.407,179.000 471.986 M215.037 473.114 C 212.198 473.908,210.086 474.629,210.343 474.714 C 210.601 474.800,211.754 474.595,212.906 474.258 C 214.058 473.921,216.080 473.348,217.400 472.986 C 220.232 472.207,221.661 471.651,220.800 471.662 C 220.470 471.666,217.877 472.320,215.037 473.114 M190.400 475.155 C 190.730 475.360,191.720 475.644,192.600 475.786 C 193.652 475.957,193.995 475.919,193.600 475.674 C 193.270 475.470,192.280 475.186,191.400 475.043 C 190.348 474.872,190.005 474.911,190.400 475.155 M207.000 475.415 L 205.400 475.968 207.200 475.743 C 208.190 475.619,209.171 475.356,209.380 475.159 C 209.922 474.647,208.903 474.757,207.000 475.415 M195.000 476.365 C 197.729 477.618,199.699 477.929,201.305 477.363 C 202.182 477.053,203.317 476.800,203.827 476.800 C 204.336 476.800,204.864 476.620,205.000 476.400 C 205.328 475.869,205.159 475.886,202.171 476.682 C 200.128 477.227,199.347 477.274,198.305 476.915 C 196.525 476.302,193.917 475.868,195.000 476.365 " stroke="none" fill="#628bef" fill-rule="evenodd"></path></g></svg>