<svg id="svg" version="1.1" xmlns="http://www.w3.org/2000/svg" xmlns:xlink="http://www.w3.org/1999/xlink" width="400" height="400" viewBox="0, 0, 400,400"><g id="svgg"><path id="path0" d="M59.294 80.332 C 58.952 81.223,59.546 86.053,60.076 86.692 C 60.419 87.105,60.663 90.062,60.861 96.215 C 61.079 103.003,61.294 105.421,61.760 106.322 C 62.219 107.211,62.459 109.741,62.717 116.453 C 62.960 122.733,63.226 125.698,63.613 126.400 C 64.005 127.112,64.244 129.934,64.443 136.200 C 64.648 142.640,64.891 145.448,65.349 146.671 C 65.804 147.883,66.048 150.627,66.239 156.671 C 66.438 162.976,66.651 165.292,67.118 166.200 C 67.588 167.115,67.799 169.488,68.010 176.200 C 68.214 182.712,68.444 185.364,68.895 186.400 C 69.352 187.447,69.553 189.867,69.695 196.000 C 69.848 202.619,70.019 204.509,70.582 205.800 C 71.145 207.092,71.315 208.978,71.466 215.600 C 71.616 222.178,71.800 224.235,72.397 226.000 C 72.993 227.763,73.182 229.867,73.348 236.600 C 73.520 243.544,73.678 245.243,74.262 246.400 C 74.845 247.557,75.007 249.294,75.195 256.400 C 75.362 262.684,75.574 265.269,75.984 266.000 C 76.390 266.724,76.629 269.507,76.849 276.079 C 77.086 283.133,77.289 285.365,77.761 286.085 C 78.229 286.798,78.449 289.087,78.716 296.006 C 78.959 302.323,79.226 305.298,79.613 306.000 C 80.010 306.721,80.229 309.468,80.399 315.860 C 80.540 321.154,80.807 324.937,81.061 325.260 C 81.775 326.164,81.980 328.114,82.246 336.526 C 82.440 342.642,82.653 344.891,83.123 345.800 C 83.599 346.722,83.804 349.035,84.007 355.800 C 84.319 366.197,84.666 367.600,86.926 367.600 C 87.708 367.600,88.748 367.959,89.359 368.439 C 90.080 369.006,91.231 369.345,92.913 369.485 C 94.410 369.609,95.587 369.926,95.870 370.281 C 96.137 370.616,97.487 371.012,98.999 371.200 C 100.462 371.381,101.961 371.799,102.330 372.127 C 102.698 372.456,104.218 372.853,105.707 373.010 C 107.476 373.196,108.531 373.505,108.753 373.901 C 108.981 374.310,110.022 374.593,111.940 374.769 C 113.817 374.941,114.960 375.247,115.294 375.667 C 115.617 376.073,116.742 376.394,118.400 376.553 C 120.045 376.711,121.169 377.030,121.459 377.421 C 121.750 377.814,122.937 378.149,124.705 378.338 C 126.342 378.513,127.749 378.892,128.114 379.257 C 128.485 379.627,129.818 379.979,131.416 380.129 C 133.163 380.292,134.257 380.598,134.557 381.009 C 134.846 381.404,135.908 381.724,137.409 381.866 C 138.724 381.991,140.250 382.380,140.800 382.730 C 141.350 383.080,142.934 383.487,144.320 383.634 C 145.994 383.811,147.006 384.129,147.336 384.581 C 147.679 385.049,148.638 385.330,150.417 385.482 C 151.840 385.604,153.309 385.972,153.687 386.302 C 154.065 386.631,155.573 387.025,157.038 387.176 C 158.700 387.348,159.872 387.682,160.151 388.063 C 160.431 388.443,161.535 388.757,163.087 388.897 C 164.746 389.047,165.930 389.401,166.641 389.961 C 167.421 390.574,168.280 390.800,169.838 390.800 C 171.392 390.800,172.162 391.001,172.684 391.544 C 173.185 392.064,174.231 392.362,176.162 392.535 C 178.201 392.717,179.120 392.993,179.677 393.591 C 180.247 394.202,180.941 394.401,182.516 394.403 C 183.901 394.404,184.993 394.665,185.773 395.179 C 186.432 395.613,188.058 396.071,189.480 396.223 C 190.995 396.386,192.139 396.720,192.327 397.055 C 192.524 397.408,193.668 397.707,195.420 397.863 C 198.512 398.138,199.600 398.542,199.600 399.414 C 199.600 400.294,200.158 400.119,200.605 399.100 C 200.946 398.323,201.407 398.164,203.980 397.934 C 206.001 397.754,207.110 397.464,207.425 397.034 C 207.722 396.627,208.807 396.308,210.444 396.146 C 211.859 396.006,213.322 395.613,213.722 395.265 C 214.119 394.919,215.608 394.516,217.034 394.369 C 218.460 394.221,219.935 393.825,220.313 393.487 C 220.691 393.150,222.080 392.743,223.400 392.584 C 224.720 392.425,226.278 391.958,226.862 391.547 C 227.553 391.061,228.616 390.800,229.908 390.800 C 231.329 390.800,232.201 390.557,232.979 389.945 C 233.706 389.373,234.927 389.001,236.662 388.821 C 238.090 388.673,239.393 388.335,239.557 388.069 C 239.721 387.804,241.053 387.442,242.516 387.266 C 243.979 387.090,245.496 386.667,245.888 386.326 C 246.280 385.986,247.759 385.592,249.176 385.452 C 250.938 385.277,252.021 384.944,252.602 384.398 C 253.208 383.829,254.004 383.600,255.379 383.600 C 256.553 383.600,257.793 383.307,258.553 382.850 C 259.249 382.431,260.918 382.005,262.330 381.885 C 263.976 381.745,265.024 381.449,265.330 381.036 C 265.626 380.637,266.727 380.307,268.305 380.144 C 269.867 379.982,271.133 379.605,271.666 379.142 C 272.265 378.624,273.150 378.400,274.607 378.400 C 276.119 378.400,276.985 378.169,277.759 377.561 C 278.475 376.997,279.642 376.651,281.313 376.507 C 283.006 376.360,284.029 376.053,284.516 375.546 C 285.030 375.009,285.803 374.800,287.268 374.800 C 288.631 374.800,289.750 374.526,290.646 373.972 C 291.389 373.512,293.013 373.044,294.293 372.919 C 295.562 372.796,296.925 372.412,297.322 372.066 C 297.719 371.719,299.206 371.317,300.634 371.169 C 302.060 371.021,303.535 370.629,303.913 370.298 C 304.291 369.966,305.611 369.616,306.846 369.519 C 308.345 369.402,309.460 369.053,310.200 368.472 C 310.868 367.946,311.882 367.598,312.754 367.594 C 315.454 367.582,315.845 366.111,316.200 354.625 C 316.368 349.152,316.598 346.703,317.029 345.796 C 317.467 344.872,317.704 342.162,317.927 335.514 C 318.156 328.696,318.368 326.320,318.793 325.808 C 319.220 325.294,319.424 322.963,319.635 316.194 C 319.859 308.971,320.043 307.003,320.592 305.929 C 321.144 304.847,321.311 302.999,321.485 296.000 C 321.649 289.449,321.848 287.066,322.322 286.000 C 322.794 284.940,323.007 282.461,323.199 275.800 C 323.410 268.492,323.574 266.771,324.162 265.652 C 324.750 264.533,324.919 262.753,325.158 255.185 C 325.377 248.269,325.582 245.903,326.010 245.389 C 326.437 244.874,326.637 242.571,326.838 235.855 C 327.032 229.395,327.265 226.621,327.700 225.600 C 328.135 224.580,328.357 221.948,328.519 215.900 C 328.702 209.082,328.866 207.367,329.436 206.300 C 330.007 205.232,330.179 203.432,330.398 196.200 C 330.591 189.852,330.835 186.954,331.273 185.800 C 331.705 184.661,331.955 181.803,332.142 175.877 C 332.341 169.535,332.551 167.267,333.025 166.352 C 333.502 165.428,333.717 163.031,333.949 156.005 C 334.181 148.996,334.386 146.699,334.826 146.169 C 335.271 145.634,335.449 143.485,335.615 136.639 C 335.796 129.196,335.944 127.579,336.551 126.400 C 337.155 125.226,337.305 123.612,337.485 116.400 C 337.649 109.849,337.848 107.466,338.322 106.400 C 338.794 105.340,339.007 102.861,339.199 96.200 C 339.399 89.282,339.590 87.140,340.092 86.186 C 340.638 85.151,340.966 82.596,340.836 80.400 C 340.785 79.547,59.622 79.478,59.294 80.332 M289.511 137.023 C 290.869 137.974,290.592 142.739,289.126 143.646 C 288.683 143.920,288.400 149.210,288.400 157.228 C 288.400 161.303,288.301 161.991,287.600 162.800 C 286.894 163.615,286.800 164.297,286.800 168.633 C 286.800 172.757,286.689 173.654,286.107 174.236 C 285.454 174.889,281.558 174.919,218.421 174.764 L 151.428 174.600 151.552 181.585 C 151.649 187.062,151.839 189.092,152.432 190.985 C 153.037 192.912,153.192 194.654,153.199 199.600 C 153.205 203.010,153.321 206.479,153.458 207.310 L 153.708 208.820 218.005 208.544 L 282.302 208.269 282.768 209.140 C 283.709 210.898,283.080 222.800,282.047 222.800 C 281.869 222.800,281.619 226.742,281.490 231.560 C 281.285 239.259,281.156 240.540,280.428 242.138 C 279.676 243.790,279.600 244.714,279.600 252.231 C 279.600 259.650,279.522 260.635,278.841 261.753 C 278.173 262.851,278.062 264.057,277.909 271.867 C 277.755 279.755,277.651 280.859,276.972 281.867 C 276.292 282.875,276.192 283.945,276.063 291.578 C 275.937 299.061,275.821 300.336,275.159 301.572 C 274.492 302.816,274.400 303.885,274.400 310.354 L 274.400 317.719 273.075 319.006 C 271.939 320.109,271.396 320.319,269.273 320.472 C 267.444 320.604,266.652 320.850,266.242 321.410 C 265.811 322.000,265.052 322.205,262.833 322.330 C 260.635 322.454,259.893 322.652,259.605 323.191 C 259.320 323.723,258.542 323.940,256.359 324.096 C 254.383 324.237,253.382 324.489,253.150 324.903 C 252.932 325.293,251.863 325.607,250.115 325.794 C 248.216 325.998,247.269 326.294,246.918 326.796 C 246.542 327.333,245.726 327.548,243.608 327.667 C 241.262 327.800,240.694 327.973,240.176 328.713 C 239.653 329.460,239.179 329.600,237.177 329.600 C 235.333 329.600,234.621 329.779,234.000 330.400 C 233.365 331.035,232.667 331.200,230.614 331.200 C 228.438 331.200,227.960 331.327,227.600 332.000 C 227.273 332.611,226.762 332.800,225.436 332.800 C 222.964 332.800,221.200 333.218,221.200 333.803 C 221.200 334.457,219.907 334.788,217.327 334.795 C 215.608 334.799,215.211 334.937,215.000 335.600 C 214.800 336.231,214.393 336.401,213.073 336.404 C 210.465 336.411,208.400 336.855,208.400 337.410 C 208.400 338.114,207.462 338.400,205.151 338.400 C 203.756 338.400,202.827 338.652,202.017 339.251 C 200.750 340.188,198.490 340.072,197.622 339.027 C 197.370 338.723,196.047 338.348,194.682 338.194 C 193.317 338.040,191.878 337.630,191.485 337.282 C 191.057 336.903,189.771 336.581,188.285 336.480 C 186.668 336.370,185.521 336.064,185.000 335.602 C 184.543 335.197,183.176 334.770,181.813 334.607 C 180.450 334.444,179.010 333.994,178.459 333.560 C 177.768 333.017,176.847 332.800,175.235 332.800 C 173.537 332.800,172.821 332.617,172.347 332.063 C 171.918 331.562,170.905 331.241,169.188 331.062 C 167.749 330.911,166.351 330.518,165.943 330.149 C 165.532 329.776,164.136 329.387,162.669 329.235 C 161.081 329.070,159.854 328.711,159.428 328.285 C 158.954 327.811,158.091 327.600,156.625 327.600 C 155.089 327.600,154.219 327.373,153.454 326.771 C 152.796 326.254,151.536 325.855,150.100 325.709 C 148.835 325.581,147.372 325.198,146.849 324.858 C 146.326 324.519,144.830 324.115,143.526 323.961 C 142.221 323.808,140.849 323.415,140.477 323.089 C 140.104 322.762,138.720 322.368,137.400 322.212 C 136.080 322.055,134.439 321.584,133.753 321.164 C 132.975 320.688,131.770 320.399,130.553 320.398 C 128.950 320.397,128.378 320.188,127.361 319.235 L 126.122 318.073 125.901 311.693 C 125.741 307.087,125.508 304.982,125.063 304.122 C 124.600 303.226,124.377 300.900,124.166 294.765 C 123.978 289.263,123.691 286.013,123.287 284.800 C 122.869 283.542,122.615 280.385,122.444 274.319 C 122.272 268.191,122.053 265.492,121.700 265.139 C 120.938 264.378,121.095 263.659,122.258 262.581 L 123.317 261.600 140.287 261.600 C 160.201 261.600,158.437 261.129,158.803 266.550 C 158.938 268.557,159.306 270.650,159.619 271.200 C 160.044 271.946,160.241 274.420,160.394 280.936 C 160.632 291.044,160.693 291.200,164.390 291.200 C 165.629 291.200,166.625 291.458,167.246 291.939 C 167.817 292.382,169.218 292.782,170.734 292.937 C 172.351 293.101,173.636 293.485,174.288 293.997 C 175.014 294.569,175.911 294.800,177.400 294.800 C 178.858 294.800,179.788 295.033,180.469 295.568 C 181.111 296.073,182.434 296.434,184.332 296.621 C 186.253 296.810,187.332 297.107,187.556 297.507 C 187.778 297.904,188.825 298.196,190.646 298.368 C 192.161 298.511,193.850 298.916,194.400 299.268 C 196.475 300.596,204.672 300.445,205.724 299.060 C 206.044 298.638,207.065 298.380,208.848 298.269 C 210.871 298.143,211.697 297.903,212.348 297.252 C 213.041 296.559,213.681 296.400,215.777 296.400 C 217.829 296.400,218.461 296.249,218.877 295.661 C 219.268 295.107,220.103 294.865,222.192 294.699 C 224.434 294.521,225.093 294.312,225.541 293.639 C 226.007 292.937,226.503 292.800,228.588 292.800 C 230.503 292.800,231.290 292.616,232.000 292.000 C 232.524 291.546,233.544 291.183,234.361 291.161 C 237.747 291.068,237.750 291.067,238.031 289.702 C 238.178 288.989,238.546 288.107,238.849 287.742 C 239.272 287.233,239.430 284.977,239.531 278.039 C 239.648 269.961,239.739 268.915,240.391 268.200 C 241.042 267.486,241.139 266.404,241.286 258.184 C 241.447 249.250,241.481 248.929,242.397 247.689 C 242.918 246.985,243.254 246.320,243.145 246.211 C 243.035 246.102,215.395 245.890,181.720 245.741 L 120.495 245.468 119.837 244.356 C 119.314 243.470,119.112 241.455,118.848 234.504 C 118.613 228.325,118.354 225.477,117.962 224.782 C 117.563 224.075,117.343 221.452,117.175 215.400 C 116.986 208.601,116.807 206.695,116.235 205.400 C 115.670 204.123,115.465 202.061,115.217 195.200 C 114.998 189.126,114.723 186.071,114.282 184.800 C 113.823 183.481,113.608 180.810,113.474 174.800 C 113.320 167.886,113.177 166.380,112.563 165.200 C 111.953 164.026,111.798 162.443,111.605 155.400 C 111.441 149.404,111.218 146.718,110.827 146.014 C 109.997 144.519,109.741 137.913,110.489 137.292 C 111.093 136.791,112.067 136.785,243.611 136.498 C 283.806 136.411,288.717 136.467,289.511 137.023 " stroke="none" fill="#e85225" fill-rule="evenodd"></path><path id="path1" d="M85.697 26.500 L 85.800 53.000 93.200 53.114 C 103.551 53.273,102.400 54.331,102.400 44.654 C 102.400 34.317,101.595 35.198,111.031 35.206 C 120.252 35.214,119.360 34.248,119.600 44.485 L 119.800 53.000 127.971 53.109 C 134.241 53.192,136.217 53.099,136.465 52.709 C 136.643 52.429,136.791 40.455,136.794 26.100 L 136.800 0.000 128.200 0.000 L 119.600 0.000 119.600 8.571 C 119.600 15.830,119.504 17.239,118.971 17.771 C 118.062 18.681,104.933 18.696,103.180 17.790 L 102.000 17.179 102.000 8.590 L 102.000 0.000 93.797 0.000 L 85.594 0.000 85.697 26.500 M146.092 8.700 L 146.200 17.400 153.658 17.509 C 159.233 17.590,161.227 17.750,161.554 18.144 C 161.852 18.503,162.025 24.147,162.096 35.836 L 162.200 53.000 169.200 53.114 C 173.050 53.177,176.605 53.128,177.100 53.006 L 178.000 52.785 178.000 35.606 C 178.000 15.271,176.947 17.600,186.141 17.600 C 194.942 17.600,194.000 18.684,194.000 8.557 L 194.000 0.000 169.992 0.000 L 145.984 0.000 146.092 8.700 M203.297 26.500 L 203.400 53.000 211.600 53.000 L 219.800 53.000 220.000 40.961 C 220.208 28.448,220.435 26.867,221.853 28.044 C 222.154 28.294,222.400 28.668,222.400 28.876 C 222.400 29.083,222.850 29.843,223.400 30.564 C 223.950 31.286,224.400 32.165,224.400 32.518 C 224.400 32.871,224.626 33.304,224.902 33.480 C 225.756 34.024,227.543 36.635,227.822 37.745 C 227.968 38.325,228.245 38.800,228.438 38.800 C 228.833 38.800,230.732 41.614,231.476 43.300 C 232.047 44.595,233.860 44.853,234.281 43.700 C 234.421 43.315,234.956 42.491,235.468 41.869 C 235.981 41.247,236.400 40.543,236.400 40.303 C 236.400 40.063,236.674 39.582,237.010 39.234 C 237.810 38.402,239.600 35.651,239.600 35.252 C 239.600 35.080,240.050 34.517,240.600 34.000 C 241.150 33.483,241.600 32.760,241.600 32.392 C 241.600 32.025,241.944 31.413,242.364 31.033 C 242.784 30.652,243.233 29.924,243.361 29.415 C 243.643 28.291,244.694 27.814,245.471 28.459 C 245.943 28.851,246.029 30.985,245.976 40.966 L 245.911 53.000 254.255 53.000 L 262.600 53.000 262.703 26.500 L 262.806 -0.000 254.003 -0.000 C 248.341 -0.000,245.200 0.144,245.200 0.404 C 245.200 0.626,244.570 1.705,243.800 2.800 C 243.030 3.895,242.400 4.960,242.400 5.165 C 242.400 5.371,241.975 6.047,241.455 6.669 C 240.935 7.291,240.383 8.205,240.228 8.700 C 240.073 9.195,239.790 9.600,239.599 9.600 C 239.408 9.600,239.024 10.230,238.746 11.000 C 238.467 11.770,238.086 12.400,237.899 12.400 C 237.712 12.400,237.301 13.018,236.985 13.774 C 236.669 14.530,235.971 15.796,235.434 16.588 C 234.897 17.379,234.388 18.236,234.303 18.492 C 233.995 19.415,231.602 17.971,230.785 16.370 C 230.359 15.536,229.829 14.741,229.606 14.604 C 229.383 14.466,229.200 14.031,229.200 13.638 C 229.200 13.245,228.856 12.613,228.436 12.233 C 228.016 11.852,227.564 11.111,227.432 10.585 C 227.300 10.059,226.744 9.180,226.196 8.632 C 225.648 8.085,225.200 7.441,225.200 7.201 C 225.200 6.962,225.012 6.549,224.783 6.283 C 223.705 5.035,221.600 1.351,221.600 0.713 C 221.600 0.050,220.961 0.000,212.397 0.000 L 203.194 0.000 203.297 26.500 M273.106 26.100 C 273.048 40.455,273.144 52.380,273.320 52.600 C 273.669 53.037,311.638 53.412,313.900 53.000 L 315.200 52.764 315.200 45.671 C 315.200 35.819,316.624 36.800,302.321 36.800 C 291.711 36.800,290.641 36.738,290.157 36.100 C 289.734 35.543,289.623 31.784,289.613 17.700 L 289.600 0.000 281.406 0.000 L 273.211 0.000 273.106 26.100 " stroke="none" fill="#040404" fill-rule="evenodd"></path><path id="path2" d="M0.000 200.000 L 0.000 400.000 98.200 400.000 C 181.591 400.000,196.400 399.916,196.400 399.446 C 196.400 399.072,195.654 398.799,194.100 398.605 C 192.836 398.447,191.308 398.062,190.705 397.751 C 190.102 397.439,188.392 396.932,186.904 396.623 C 185.417 396.315,183.390 395.800,182.400 395.480 C 181.410 395.159,179.835 394.695,178.900 394.448 C 177.965 394.202,176.435 393.798,175.500 393.552 C 174.565 393.305,172.990 392.847,172.000 392.533 C 171.010 392.220,169.120 391.716,167.800 391.414 C 166.480 391.112,164.731 390.580,163.913 390.232 C 163.095 389.884,162.015 389.600,161.513 389.600 C 161.011 389.600,159.700 389.260,158.600 388.846 C 157.500 388.431,155.790 387.960,154.800 387.799 C 153.810 387.637,152.550 387.283,152.000 387.011 C 151.450 386.739,149.880 386.302,148.511 386.040 C 147.142 385.778,145.522 385.303,144.911 384.985 C 144.300 384.666,143.260 384.400,142.600 384.394 C 141.940 384.387,140.642 384.039,139.717 383.618 C 138.791 383.198,137.171 382.731,136.117 382.580 C 135.062 382.429,133.390 381.982,132.400 381.586 C 131.410 381.190,129.799 380.753,128.820 380.616 C 127.841 380.478,126.826 380.187,126.564 379.970 C 126.302 379.753,124.769 379.300,123.157 378.964 C 121.544 378.628,120.040 378.209,119.813 378.034 C 119.586 377.858,118.232 377.491,116.805 377.219 C 115.378 376.946,113.722 376.470,113.125 376.161 C 112.528 375.853,111.577 375.600,111.012 375.600 C 110.447 375.600,108.697 375.150,107.123 374.600 C 105.549 374.050,103.857 373.600,103.363 373.600 C 102.870 373.600,101.626 373.240,100.600 372.800 C 99.574 372.360,98.344 371.992,97.867 371.982 C 97.390 371.973,96.280 371.689,95.400 371.353 C 94.520 371.016,92.720 370.484,91.400 370.171 C 88.806 369.555,85.413 368.410,84.319 367.781 C 83.746 367.452,83.575 366.309,83.245 360.595 C 83.029 356.858,82.572 351.460,82.230 348.600 C 81.888 345.740,81.425 340.880,81.200 337.800 C 80.976 334.720,80.534 329.950,80.219 327.200 C 79.905 324.450,79.636 320.760,79.622 319.000 C 79.608 317.240,79.338 314.180,79.021 312.200 C 78.704 310.220,78.250 305.270,78.011 301.200 C 77.772 297.130,77.322 292.090,77.009 290.000 C 76.697 287.910,76.328 283.860,76.188 281.000 C 76.049 278.140,75.593 273.190,75.175 270.000 C 74.758 266.810,74.412 262.670,74.406 260.800 C 74.400 258.930,74.125 255.607,73.795 253.416 C 73.464 251.224,73.013 246.364,72.791 242.616 C 72.570 238.867,72.214 234.810,72.001 233.600 C 71.595 231.290,71.002 224.353,70.591 217.105 C 70.457 214.743,70.182 212.235,69.981 211.532 C 69.779 210.829,69.425 206.732,69.195 202.427 C 68.964 198.122,68.507 192.980,68.180 191.000 C 67.853 189.020,67.430 184.520,67.240 181.000 C 67.050 177.480,66.605 172.170,66.251 169.200 C 65.897 166.230,65.427 161.280,65.206 158.200 C 64.985 155.120,64.626 151.250,64.407 149.600 C 64.189 147.950,63.827 143.450,63.603 139.600 C 63.379 135.750,63.030 131.880,62.828 131.000 C 62.626 130.120,62.262 125.980,62.020 121.800 C 61.777 117.620,61.324 112.490,61.012 110.400 C 60.700 108.310,60.334 104.350,60.200 101.600 C 60.065 98.850,59.605 93.848,59.178 90.485 C 58.087 81.908,58.118 78.883,59.300 78.598 C 59.795 78.479,123.470 78.431,200.800 78.491 L 341.400 78.600 341.351 84.018 C 341.323 86.999,341.097 90.388,340.848 91.552 C 340.598 92.715,340.202 96.846,339.968 100.733 C 339.734 104.620,339.373 108.880,339.167 110.200 C 338.960 111.520,338.523 116.560,338.194 121.400 C 337.866 126.240,337.407 131.100,337.175 132.200 C 336.942 133.300,336.579 137.170,336.367 140.800 C 336.154 144.430,335.818 148.750,335.619 150.400 C 335.421 152.050,335.055 156.280,334.807 159.800 C 334.559 163.320,334.099 168.090,333.786 170.400 C 333.472 172.710,333.024 177.750,332.791 181.600 C 332.557 185.450,332.104 190.220,331.785 192.200 C 331.465 194.180,331.192 197.330,331.178 199.200 C 331.165 201.070,330.883 204.760,330.551 207.400 C 330.220 210.040,329.774 214.900,329.559 218.200 C 329.345 221.500,328.887 226.450,328.542 229.200 C 328.197 231.950,327.756 237.170,327.562 240.800 C 327.368 244.430,326.928 249.290,326.585 251.600 C 326.241 253.910,325.788 258.913,325.578 262.718 C 325.367 266.523,325.016 270.436,324.797 271.413 C 324.578 272.390,324.206 276.387,323.970 280.295 C 323.735 284.203,323.373 288.480,323.167 289.800 C 322.960 291.120,322.528 296.070,322.205 300.800 C 321.883 305.530,321.426 310.190,321.190 311.155 C 320.954 312.121,320.586 316.081,320.372 319.955 C 320.158 323.830,319.812 328.350,319.602 330.000 C 319.392 331.650,319.029 335.790,318.795 339.200 C 318.561 342.610,318.104 347.470,317.778 350.000 C 317.453 352.530,317.012 357.480,316.797 361.000 C 316.384 367.793,316.174 368.397,314.224 368.402 C 313.771 368.404,312.900 368.666,312.289 368.985 C 311.678 369.303,310.058 369.782,308.689 370.047 C 307.320 370.313,305.840 370.754,305.400 371.027 C 304.960 371.300,303.790 371.652,302.800 371.809 C 301.810 371.967,300.100 372.416,299.000 372.808 C 297.900 373.200,296.216 373.634,295.258 373.772 C 294.300 373.910,292.998 374.291,292.365 374.618 C 291.732 374.946,290.356 375.326,289.307 375.463 C 288.258 375.600,286.948 375.940,286.395 376.217 C 285.842 376.495,284.222 376.946,282.795 377.219 C 281.368 377.491,280.012 377.860,279.783 378.038 C 279.554 378.215,278.204 378.621,276.783 378.940 C 275.362 379.259,273.480 379.800,272.600 380.143 C 271.720 380.485,270.528 380.773,269.951 380.782 C 269.374 380.792,268.114 381.142,267.151 381.560 C 266.188 381.978,264.590 382.441,263.600 382.589 C 262.610 382.737,261.212 383.125,260.493 383.451 C 259.774 383.777,258.244 384.201,257.093 384.392 C 255.942 384.584,254.370 385.004,253.600 385.325 C 252.830 385.647,251.390 386.042,250.400 386.203 C 249.410 386.363,248.150 386.722,247.600 387.000 C 247.050 387.278,245.790 387.637,244.800 387.797 C 243.810 387.958,242.370 388.353,241.600 388.675 C 240.830 388.997,239.184 389.428,237.942 389.632 C 236.700 389.837,235.175 390.268,234.553 390.591 C 233.930 390.914,232.606 391.296,231.611 391.441 C 230.615 391.586,229.342 391.936,228.783 392.219 C 228.224 392.503,226.604 392.945,225.183 393.202 C 223.762 393.460,222.414 393.824,222.187 394.012 C 221.960 394.199,220.456 394.628,218.843 394.964 C 217.231 395.300,215.681 395.767,215.398 396.002 C 215.116 396.236,213.921 396.537,212.742 396.670 C 211.564 396.803,210.060 397.190,209.400 397.529 C 208.740 397.869,207.044 398.340,205.632 398.577 C 197.407 399.956,200.373 400.000,301.367 400.000 L 400.000 400.000 400.000 200.000 L 400.000 0.000 345.400 0.000 L 290.800 0.000 290.800 17.392 L 290.800 34.785 291.700 34.989 C 292.195 35.101,297.679 35.240,303.886 35.297 C 317.979 35.426,316.560 34.432,316.725 44.285 C 316.877 53.268,316.845 53.438,314.896 54.009 C 311.892 54.888,272.848 54.354,272.168 53.424 C 271.691 52.772,271.600 48.421,271.600 26.324 L 271.600 0.000 267.800 0.000 L 264.000 0.000 264.000 26.400 C 264.000 52.267,263.984 52.816,263.200 53.600 C 261.896 54.904,246.344 54.826,245.423 53.511 C 244.895 52.757,244.796 50.822,244.772 40.811 L 244.743 29.000 243.988 30.700 C 243.573 31.635,243.045 32.400,242.816 32.400 C 242.587 32.400,242.397 32.625,242.393 32.900 C 242.385 33.449,240.383 36.627,239.412 37.634 C 239.075 37.982,238.800 38.413,238.800 38.592 C 238.800 38.771,238.125 39.903,237.300 41.109 C 236.475 42.314,235.438 43.953,234.997 44.750 C 234.555 45.548,233.970 46.182,233.697 46.160 C 233.423 46.138,232.853 46.093,232.429 46.060 C 231.942 46.022,231.398 45.410,230.952 44.400 C 230.564 43.520,230.105 42.800,229.933 42.800 C 229.761 42.800,229.323 42.224,228.958 41.520 C 228.594 40.815,228.050 39.992,227.748 39.691 C 227.447 39.390,227.200 38.908,227.200 38.620 C 227.200 38.333,226.902 37.851,226.538 37.549 C 226.174 37.247,225.632 36.415,225.333 35.700 C 225.034 34.985,224.624 34.400,224.422 34.400 C 224.219 34.400,223.931 33.995,223.781 33.500 C 223.631 33.005,223.159 32.219,222.733 31.752 C 222.307 31.286,221.804 30.386,221.614 29.752 C 221.401 29.041,221.256 33.200,221.234 40.611 C 221.190 56.002,222.303 54.400,211.657 54.400 C 205.737 54.400,203.222 54.262,202.880 53.920 C 202.516 53.556,202.400 46.969,202.400 26.720 L 202.400 0.000 199.000 0.000 L 195.600 0.000 195.600 8.732 C 195.600 19.342,196.482 18.363,186.800 18.501 L 179.800 18.600 179.600 35.988 L 179.400 53.377 178.400 53.882 C 177.704 54.235,175.175 54.390,170.074 54.394 C 163.418 54.399,161.805 54.211,160.800 53.313 C 160.690 53.214,160.510 45.364,160.400 35.867 L 160.200 18.600 152.916 18.400 C 143.627 18.145,144.429 19.098,144.413 8.300 L 144.400 0.000 141.000 0.000 L 137.600 0.000 137.600 26.571 C 137.600 50.194,137.530 53.213,136.971 53.771 C 136.157 54.586,120.081 54.721,119.280 53.920 C 118.941 53.581,118.798 51.207,118.795 45.820 C 118.787 35.262,119.734 36.400,110.953 36.400 L 103.600 36.400 103.600 44.771 C 103.600 51.848,103.503 53.240,102.971 53.771 C 101.979 54.763,86.457 54.701,85.231 53.700 L 84.373 53.000 84.392 26.500 L 84.411 0.000 42.205 0.000 L 0.000 0.000 0.000 200.000 M103.600 8.609 L 103.600 17.218 111.100 17.109 L 118.600 17.000 118.708 8.500 L 118.816 0.000 111.208 0.000 L 103.600 0.000 103.600 8.609 M222.800 0.751 C 222.800 1.164,223.080 1.735,223.423 2.019 C 223.766 2.304,224.315 3.091,224.645 3.768 C 225.645 5.828,226.695 7.619,227.316 8.328 C 227.640 8.697,228.024 9.388,228.168 9.863 C 228.312 10.338,228.677 10.821,228.978 10.936 C 229.278 11.051,229.649 11.710,229.800 12.400 C 229.951 13.090,230.320 13.748,230.618 13.862 C 230.917 13.977,231.355 14.658,231.592 15.376 C 232.239 17.336,233.941 17.993,234.259 16.405 C 234.390 15.752,234.755 15.003,235.071 14.741 C 235.388 14.478,235.897 13.664,236.203 12.932 C 236.509 12.199,236.934 11.600,237.148 11.600 C 237.362 11.600,237.655 11.059,237.801 10.397 C 237.946 9.735,238.410 9.009,238.833 8.783 C 239.255 8.557,239.600 8.046,239.600 7.648 C 239.600 7.250,239.960 6.598,240.400 6.200 C 240.840 5.802,241.200 5.248,241.200 4.969 C 241.200 4.690,241.623 3.953,242.139 3.331 C 242.656 2.709,243.199 1.705,243.347 1.100 L 243.615 0.000 233.208 0.000 C 223.293 0.000,222.800 0.036,222.800 0.751 M156.800 137.997 C 125.647 138.141,112.782 138.329,112.246 138.646 C 111.536 139.066,111.518 139.352,111.934 143.646 C 112.177 146.151,112.485 150.180,112.619 152.600 C 112.753 155.020,113.015 157.810,113.200 158.800 C 113.386 159.790,113.737 163.570,113.980 167.200 C 114.223 170.830,114.684 175.870,115.004 178.400 C 115.324 180.930,115.776 185.970,116.009 189.600 C 116.241 193.230,116.600 197.010,116.806 198.000 C 117.012 198.990,117.370 202.950,117.601 206.800 C 117.832 210.650,118.276 215.690,118.589 218.000 C 118.901 220.310,119.260 224.270,119.387 226.800 C 119.611 231.264,120.590 240.358,121.153 243.200 L 121.430 244.600 181.976 244.701 C 225.916 244.775,242.669 244.925,243.061 245.250 C 243.766 245.836,243.755 248.976,243.033 253.248 C 242.721 255.091,242.344 259.030,242.196 262.000 C 242.047 264.970,241.666 269.380,241.350 271.800 C 241.033 274.220,240.611 279.174,240.412 282.808 C 239.966 290.942,239.810 291.428,237.525 291.807 C 236.576 291.964,234.900 292.431,233.800 292.846 C 232.700 293.260,231.440 293.602,231.000 293.605 C 230.560 293.608,228.798 294.058,227.085 294.605 C 225.371 295.152,223.520 295.600,222.971 295.600 C 222.421 295.600,221.573 295.848,221.086 296.150 C 220.599 296.453,219.030 296.921,217.600 297.190 C 216.170 297.459,214.675 297.853,214.278 298.065 C 213.881 298.278,212.441 298.630,211.078 298.849 C 209.715 299.067,208.071 299.509,207.423 299.830 C 206.776 300.152,205.516 300.517,204.623 300.641 C 203.731 300.765,202.188 301.142,201.195 301.478 C 199.560 302.032,199.244 302.029,197.846 301.445 C 196.997 301.090,195.829 300.792,195.251 300.782 C 194.673 300.773,193.480 300.499,192.600 300.175 C 191.720 299.850,189.753 299.314,188.230 298.983 C 186.706 298.652,185.266 298.229,185.030 298.043 C 184.793 297.858,183.356 297.476,181.835 297.195 C 180.314 296.914,178.604 296.442,178.035 296.145 C 177.466 295.848,176.601 295.604,176.112 295.602 C 175.624 295.601,173.846 295.150,172.161 294.600 C 170.476 294.050,168.693 293.600,168.198 293.600 C 167.703 293.600,166.648 293.329,165.854 292.997 C 165.061 292.665,163.522 292.203,162.435 291.970 C 160.045 291.458,159.601 290.561,159.598 286.240 C 159.596 284.678,159.409 282.320,159.182 281.000 C 158.955 279.680,158.534 275.298,158.247 271.262 C 157.861 265.842,157.577 263.830,157.162 263.566 C 156.848 263.365,149.200 263.250,139.800 263.304 L 123.000 263.400 123.138 268.600 C 123.214 271.460,123.515 275.240,123.808 277.000 C 124.100 278.760,124.543 283.530,124.792 287.600 C 125.042 291.670,125.410 295.841,125.612 296.868 C 125.813 297.896,126.258 302.733,126.601 307.617 C 127.342 318.167,128.010 319.576,132.284 319.608 C 132.898 319.613,134.660 320.062,136.200 320.607 C 137.740 321.151,139.360 321.597,139.800 321.598 C 140.240 321.600,141.500 321.940,142.600 322.354 C 143.700 322.769,145.410 323.239,146.400 323.399 C 147.390 323.559,148.650 323.916,149.200 324.192 C 150.109 324.647,151.357 325.009,156.800 326.395 C 157.790 326.647,159.410 327.125,160.400 327.458 C 161.390 327.791,163.100 328.236,164.200 328.448 C 165.300 328.660,167.043 329.186,168.074 329.616 C 169.105 330.047,170.403 330.400,170.959 330.400 C 171.515 330.400,172.922 330.749,174.085 331.177 C 175.248 331.604,176.920 332.079,177.800 332.233 C 178.680 332.386,179.850 332.695,180.400 332.918 C 181.600 333.405,187.493 335.062,189.981 335.612 C 190.960 335.829,192.850 336.344,194.181 336.757 C 199.951 338.549,200.691 338.549,206.000 336.754 C 207.210 336.346,209.010 335.894,210.000 335.750 C 210.990 335.606,212.258 335.258,212.817 334.977 C 213.376 334.696,214.996 334.255,216.417 333.998 C 217.838 333.740,219.188 333.375,219.417 333.185 C 219.646 332.995,220.996 332.579,222.417 332.259 C 223.838 331.940,225.810 331.403,226.800 331.066 C 227.790 330.729,229.365 330.261,230.300 330.026 C 233.225 329.293,235.292 328.734,238.600 327.783 C 241.817 326.858,243.373 326.444,247.800 325.332 C 249.120 325.001,250.830 324.491,251.600 324.200 C 252.370 323.909,254.080 323.399,255.400 323.068 C 259.121 322.134,263.929 320.804,269.694 319.114 C 272.550 318.277,272.996 316.723,273.592 305.534 C 273.795 301.720,274.135 297.700,274.347 296.600 C 274.559 295.500,274.934 291.450,275.182 287.600 C 275.429 283.750,275.885 278.890,276.194 276.800 C 276.503 274.710,276.950 269.760,277.188 265.800 C 277.425 261.840,277.882 256.890,278.203 254.800 C 278.523 252.710,278.803 249.290,278.823 247.200 C 278.844 245.110,279.117 241.510,279.430 239.200 C 279.743 236.890,280.192 232.030,280.428 228.400 C 280.664 224.770,281.204 219.306,281.627 216.259 C 282.050 213.211,282.296 210.556,282.174 210.359 C 282.045 210.150,255.229 209.997,217.876 209.994 C 182.634 209.991,153.569 209.841,153.286 209.661 C 152.941 209.442,152.652 207.567,152.410 203.967 C 152.212 201.015,151.868 197.430,151.646 196.000 C 151.425 194.570,151.041 190.160,150.794 186.200 C 150.546 182.240,150.178 178.370,149.974 177.600 C 149.412 175.472,149.521 174.479,150.413 173.587 L 151.227 172.773 217.173 173.052 C 269.797 173.274,283.365 173.229,284.336 172.827 C 285.702 172.261,285.606 172.723,286.364 163.000 C 286.587 160.140,286.946 156.360,287.162 154.600 C 288.041 147.443,288.416 139.215,287.902 138.391 C 287.358 137.520,270.769 137.470,156.800 137.997 " stroke="none" fill="#faf9f9" fill-rule="evenodd"></path><path id="path3" d="M58.900 78.665 C 58.165 78.961,58.268 83.331,59.178 90.485 C 59.605 93.848,60.065 98.850,60.200 101.600 C 60.334 104.350,60.700 108.310,61.012 110.400 C 61.324 112.490,61.777 117.620,62.020 121.800 C 62.262 125.980,62.626 130.120,62.828 131.000 C 63.030 131.880,63.379 135.750,63.603 139.600 C 63.827 143.450,64.189 147.950,64.407 149.600 C 64.626 151.250,64.985 155.120,65.206 158.200 C 65.427 161.280,65.897 166.230,66.251 169.200 C 66.605 172.170,67.050 177.480,67.240 181.000 C 67.430 184.520,67.853 189.020,68.180 191.000 C 68.507 192.980,68.964 198.122,69.195 202.427 C 69.425 206.732,69.779 210.829,69.981 211.532 C 70.182 212.235,70.457 214.743,70.591 217.105 C 71.002 224.353,71.595 231.290,72.001 233.600 C 72.214 234.810,72.570 238.867,72.791 242.616 C 73.013 246.364,73.464 251.224,73.795 253.416 C 74.125 255.607,74.400 258.930,74.406 260.800 C 74.412 262.670,74.758 266.810,75.175 270.000 C 75.593 273.190,76.049 278.140,76.188 281.000 C 76.328 283.860,76.697 287.910,77.009 290.000 C 77.322 292.090,77.772 297.130,78.011 301.200 C 78.250 305.270,78.704 310.220,79.021 312.200 C 79.338 314.180,79.608 317.240,79.622 319.000 C 79.636 320.760,79.905 324.450,80.219 327.200 C 80.534 329.950,80.976 334.720,81.200 337.800 C 81.425 340.880,81.888 345.740,82.230 348.600 C 82.572 351.460,83.029 356.858,83.245 360.595 C 83.575 366.309,83.746 367.452,84.319 367.781 C 85.413 368.410,88.806 369.555,91.400 370.171 C 92.720 370.484,94.520 371.016,95.400 371.353 C 96.280 371.689,97.390 371.973,97.867 371.982 C 98.344 371.992,99.574 372.360,100.600 372.800 C 101.626 373.240,102.870 373.600,103.363 373.600 C 103.857 373.600,105.549 374.050,107.123 374.600 C 108.697 375.150,110.447 375.600,111.012 375.600 C 111.577 375.600,112.528 375.853,113.125 376.161 C 113.722 376.470,115.378 376.946,116.805 377.219 C 118.232 377.491,119.586 377.858,119.813 378.034 C 120.040 378.209,121.544 378.628,123.157 378.964 C 124.769 379.300,126.302 379.753,126.564 379.970 C 126.826 380.187,127.841 380.478,128.820 380.616 C 129.799 380.753,131.410 381.190,132.400 381.586 C 133.390 381.982,135.062 382.429,136.117 382.580 C 137.171 382.731,138.791 383.198,139.717 383.618 C 140.642 384.039,141.940 384.387,142.600 384.394 C 143.260 384.400,144.300 384.666,144.911 384.985 C 145.522 385.303,147.142 385.778,148.511 386.040 C 149.880 386.302,151.450 386.736,152.000 387.005 C 152.550 387.273,153.720 387.614,154.600 387.762 C 155.480 387.909,157.280 388.367,158.600 388.778 C 160.914 389.499,161.775 389.735,167.000 391.082 C 168.320 391.423,169.968 391.937,170.662 392.226 C 171.357 392.515,173.013 392.949,174.344 393.190 C 175.675 393.431,177.267 393.891,177.882 394.212 C 178.497 394.533,179.450 394.804,180.000 394.815 C 180.550 394.826,181.720 395.113,182.600 395.453 C 183.480 395.793,185.417 396.322,186.904 396.628 C 188.392 396.934,190.102 397.439,190.705 397.751 C 191.308 398.062,192.836 398.447,194.100 398.605 C 195.654 398.799,196.400 399.072,196.400 399.446 C 196.400 399.826,196.904 400.000,198.000 400.000 C 201.732 400.000,199.602 398.235,195.420 397.863 C 193.668 397.707,192.524 397.408,192.327 397.055 C 192.139 396.720,190.995 396.386,189.480 396.223 C 188.058 396.071,186.432 395.613,185.773 395.179 C 184.993 394.665,183.901 394.404,182.516 394.403 C 180.941 394.401,180.247 394.202,179.677 393.591 C 179.120 392.993,178.201 392.717,176.162 392.535 C 174.231 392.362,173.185 392.064,172.684 391.544 C 172.162 391.001,171.392 390.800,169.838 390.800 C 168.280 390.800,167.421 390.574,166.641 389.961 C 165.930 389.401,164.746 389.047,163.087 388.897 C 161.535 388.757,160.431 388.443,160.151 388.063 C 159.872 387.682,158.700 387.348,157.038 387.176 C 155.573 387.025,154.065 386.631,153.687 386.302 C 153.309 385.972,151.840 385.604,150.417 385.482 C 148.638 385.330,147.679 385.049,147.336 384.581 C 147.006 384.129,145.994 383.811,144.320 383.634 C 142.934 383.487,141.350 383.080,140.800 382.730 C 140.250 382.380,138.724 381.991,137.409 381.866 C 135.908 381.724,134.846 381.404,134.557 381.009 C 134.257 380.598,133.163 380.292,131.416 380.129 C 129.818 379.979,128.485 379.627,128.114 379.257 C 127.749 378.892,126.342 378.513,124.705 378.338 C 122.937 378.149,121.750 377.814,121.459 377.421 C 121.169 377.030,120.045 376.711,118.400 376.553 C 116.742 376.394,115.617 376.073,115.294 375.667 C 114.960 375.247,113.817 374.941,111.940 374.769 C 110.022 374.593,108.981 374.310,108.753 373.901 C 108.531 373.505,107.476 373.196,105.707 373.010 C 104.218 372.853,102.698 372.456,102.330 372.127 C 101.961 371.799,100.462 371.381,98.999 371.200 C 97.487 371.012,96.137 370.616,95.870 370.281 C 95.587 369.926,94.410 369.609,92.913 369.485 C 91.231 369.345,90.080 369.006,89.359 368.439 C 88.748 367.959,87.708 367.600,86.926 367.600 C 84.666 367.600,84.319 366.197,84.007 355.800 C 83.804 349.035,83.599 346.722,83.123 345.800 C 82.653 344.891,82.440 342.642,82.246 336.526 C 81.980 328.114,81.775 326.164,81.061 325.260 C 80.807 324.937,80.540 321.154,80.399 315.860 C 80.229 309.468,80.010 306.721,79.613 306.000 C 79.226 305.298,78.959 302.323,78.716 296.006 C 78.449 289.087,78.229 286.798,77.761 286.085 C 77.289 285.365,77.086 283.133,76.849 276.079 C 76.629 269.507,76.390 266.724,75.984 266.000 C 75.574 265.269,75.362 262.684,75.195 256.400 C 75.007 249.294,74.845 247.557,74.262 246.400 C 73.678 245.243,73.520 243.544,73.348 236.600 C 73.182 229.867,72.993 227.763,72.397 226.000 C 71.800 224.235,71.616 222.178,71.466 215.600 C 71.315 208.978,71.145 207.092,70.582 205.800 C 70.019 204.509,69.848 202.619,69.695 196.000 C 69.553 189.867,69.352 187.447,68.895 186.400 C 68.444 185.364,68.214 182.712,68.010 176.200 C 67.799 169.488,67.588 167.115,67.118 166.200 C 66.651 165.292,66.438 162.976,66.239 156.671 C 66.048 150.627,65.804 147.883,65.349 146.671 C 64.891 145.448,64.648 142.640,64.443 136.200 C 64.244 129.934,64.005 127.112,63.613 126.400 C 63.226 125.698,62.960 122.733,62.717 116.453 C 62.459 109.741,62.219 107.211,61.760 106.322 C 61.294 105.421,61.079 103.003,60.861 96.215 C 60.650 89.668,60.430 87.119,60.035 86.642 C 59.700 86.239,59.478 84.857,59.448 83.000 L 59.400 80.007 200.100 79.904 C 324.933 79.812,340.804 79.868,340.836 80.400 C 340.966 82.596,340.638 85.151,340.092 86.186 C 339.590 87.140,339.399 89.282,339.199 96.200 C 339.007 102.861,338.794 105.340,338.322 106.400 C 337.848 107.466,337.649 109.849,337.485 116.400 C 337.305 123.612,337.155 125.226,336.551 126.400 C 335.944 127.579,335.796 129.196,335.615 136.639 C 335.449 143.485,335.271 145.634,334.826 146.169 C 334.386 146.699,334.181 148.996,333.949 156.005 C 333.717 163.031,333.502 165.428,333.025 166.352 C 332.551 167.267,332.341 169.535,332.142 175.877 C 331.955 181.803,331.705 184.661,331.273 185.800 C 330.835 186.954,330.591 189.852,330.398 196.200 C 330.179 203.432,330.007 205.232,329.436 206.300 C 328.866 207.367,328.702 209.082,328.519 215.900 C 328.357 221.948,328.135 224.580,327.700 225.600 C 327.265 226.621,327.032 229.395,326.838 235.855 C 326.637 242.571,326.437 244.874,326.010 245.389 C 325.582 245.903,325.377 248.269,325.158 255.185 C 324.919 262.753,324.750 264.533,324.162 265.652 C 323.574 266.771,323.410 268.492,323.199 275.800 C 323.007 282.461,322.794 284.940,322.322 286.000 C 321.848 287.066,321.649 289.449,321.485 296.000 C 321.311 302.999,321.144 304.847,320.592 305.929 C 320.043 307.003,319.859 308.971,319.635 316.194 C 319.424 322.963,319.220 325.294,318.793 325.808 C 318.368 326.320,318.156 328.696,317.927 335.514 C 317.704 342.162,317.467 344.872,317.029 345.796 C 316.598 346.703,316.368 349.152,316.200 354.625 C 315.845 366.111,315.454 367.582,312.754 367.594 C 311.882 367.598,310.868 367.946,310.200 368.472 C 309.460 369.053,308.345 369.402,306.846 369.519 C 305.611 369.616,304.291 369.966,303.913 370.298 C 303.535 370.629,302.060 371.021,300.634 371.169 C 299.206 371.317,297.719 371.719,297.322 372.066 C 296.925 372.412,295.562 372.796,294.293 372.919 C 293.013 373.044,291.389 373.512,290.646 373.972 C 289.750 374.526,288.631 374.800,287.268 374.800 C 285.803 374.800,285.030 375.009,284.516 375.546 C 284.029 376.053,283.006 376.360,281.313 376.507 C 279.642 376.651,278.475 376.997,277.759 377.561 C 276.985 378.169,276.119 378.400,274.607 378.400 C 273.150 378.400,272.265 378.624,271.666 379.142 C 271.133 379.605,269.867 379.982,268.305 380.144 C 266.727 380.307,265.626 380.637,265.330 381.036 C 265.024 381.449,263.976 381.745,262.330 381.885 C 260.918 382.005,259.249 382.431,258.553 382.850 C 257.793 383.307,256.553 383.600,255.379 383.600 C 254.004 383.600,253.208 383.829,252.602 384.398 C 252.021 384.944,250.938 385.277,249.176 385.452 C 247.759 385.592,246.280 385.986,245.888 386.326 C 245.496 386.667,243.979 387.090,242.516 387.266 C 241.053 387.442,239.721 387.804,239.557 388.069 C 239.393 388.335,238.090 388.673,236.662 388.821 C 234.927 389.001,233.706 389.373,232.979 389.945 C 232.201 390.557,231.329 390.800,229.908 390.800 C 228.616 390.800,227.553 391.061,226.862 391.547 C 226.278 391.958,224.720 392.425,223.400 392.584 C 222.080 392.743,220.691 393.150,220.313 393.487 C 219.935 393.825,218.460 394.221,217.034 394.369 C 215.608 394.516,214.119 394.919,213.722 395.265 C 213.322 395.613,211.859 396.006,210.444 396.146 C 208.796 396.309,207.722 396.627,207.420 397.040 C 207.101 397.477,206.070 397.747,204.176 397.892 C 201.321 398.110,200.400 398.490,200.400 399.449 C 200.400 400.180,202.645 400.181,202.925 399.450 C 203.051 399.123,204.082 398.782,205.464 398.609 C 206.744 398.449,208.424 398.002,209.196 397.616 C 209.968 397.229,211.564 396.804,212.742 396.670 C 213.921 396.537,215.116 396.236,215.398 396.002 C 215.681 395.767,217.231 395.300,218.843 394.964 C 220.456 394.628,221.960 394.199,222.187 394.012 C 222.414 393.824,223.762 393.460,225.183 393.202 C 226.604 392.945,228.224 392.503,228.783 392.219 C 229.342 391.936,230.615 391.586,231.611 391.441 C 232.606 391.296,233.930 390.914,234.553 390.591 C 235.175 390.268,236.700 389.837,237.942 389.632 C 239.184 389.428,240.830 388.997,241.600 388.675 C 242.370 388.353,243.810 387.958,244.800 387.797 C 245.790 387.637,247.050 387.278,247.600 387.000 C 248.150 386.722,249.410 386.363,250.400 386.203 C 251.390 386.042,252.830 385.647,253.600 385.325 C 254.370 385.004,255.942 384.584,257.093 384.392 C 258.244 384.201,259.774 383.777,260.493 383.451 C 261.212 383.125,262.610 382.737,263.600 382.589 C 264.590 382.441,266.188 381.978,267.151 381.560 C 268.114 381.142,269.374 380.792,269.951 380.782 C 270.528 380.773,271.720 380.485,272.600 380.143 C 273.480 379.800,275.362 379.259,276.783 378.940 C 278.204 378.621,279.554 378.215,279.783 378.038 C 280.012 377.860,281.368 377.491,282.795 377.219 C 284.222 376.946,285.842 376.495,286.395 376.217 C 286.948 375.940,288.258 375.600,289.307 375.463 C 290.356 375.326,291.732 374.946,292.365 374.618 C 292.998 374.291,294.300 373.910,295.258 373.772 C 296.216 373.634,297.900 373.200,299.000 372.808 C 300.100 372.416,301.810 371.967,302.800 371.809 C 303.790 371.652,304.960 371.300,305.400 371.027 C 305.840 370.754,307.320 370.313,308.689 370.047 C 310.058 369.782,311.678 369.303,312.289 368.985 C 312.900 368.666,313.771 368.404,314.224 368.402 C 316.174 368.397,316.384 367.793,316.797 361.000 C 317.012 357.480,317.453 352.530,317.778 350.000 C 318.104 347.470,318.561 342.610,318.795 339.200 C 319.029 335.790,319.392 331.650,319.602 330.000 C 319.812 328.350,320.158 323.830,320.372 319.955 C 320.586 316.081,320.954 312.121,321.190 311.155 C 321.426 310.190,321.883 305.530,322.205 300.800 C 322.528 296.070,322.960 291.120,323.167 289.800 C 323.373 288.480,323.735 284.203,323.970 280.295 C 324.206 276.387,324.578 272.390,324.797 271.413 C 325.016 270.436,325.367 266.523,325.578 262.718 C 325.788 258.913,326.241 253.910,326.585 251.600 C 326.928 249.290,327.368 244.430,327.562 240.800 C 327.756 237.170,328.197 231.950,328.542 229.200 C 328.887 226.450,329.345 221.500,329.559 218.200 C 329.774 214.900,330.220 210.040,330.551 207.400 C 330.883 204.760,331.165 201.070,331.178 199.200 C 331.192 197.330,331.465 194.180,331.785 192.200 C 332.104 190.220,332.557 185.450,332.791 181.600 C 333.024 177.750,333.472 172.710,333.786 170.400 C 334.099 168.090,334.559 163.320,334.807 159.800 C 335.055 156.280,335.421 152.050,335.619 150.400 C 335.818 148.750,336.154 144.430,336.367 140.800 C 336.579 137.170,336.942 133.300,337.175 132.200 C 337.407 131.100,337.866 126.240,338.194 121.400 C 338.523 116.560,338.960 111.520,339.167 110.200 C 339.373 108.880,339.734 104.620,339.968 100.733 C 340.202 96.846,340.598 92.715,340.848 91.552 C 341.097 90.388,341.323 86.999,341.351 84.018 L 341.400 78.600 200.400 78.531 C 122.850 78.493,59.175 78.553,58.900 78.665 M154.839 136.700 C 121.093 136.780,110.943 136.915,110.489 137.292 C 109.741 137.913,109.997 144.519,110.827 146.014 C 111.218 146.718,111.441 149.404,111.605 155.400 C 111.798 162.443,111.953 164.026,112.563 165.200 C 113.177 166.380,113.320 167.886,113.474 174.800 C 113.608 180.810,113.823 183.481,114.282 184.800 C 114.723 186.071,114.998 189.126,115.217 195.200 C 115.465 202.061,115.670 204.123,116.235 205.400 C 116.807 206.695,116.986 208.601,117.175 215.400 C 117.343 221.452,117.563 224.075,117.962 224.782 C 118.354 225.477,118.613 228.325,118.848 234.504 C 119.112 241.455,119.314 243.470,119.837 244.356 L 120.495 245.468 181.720 245.741 C 215.395 245.890,243.035 246.102,243.145 246.211 C 243.254 246.320,242.918 246.985,242.397 247.689 C 241.481 248.929,241.447 249.250,241.286 258.184 C 241.139 266.404,241.042 267.486,240.391 268.200 C 239.739 268.915,239.648 269.961,239.531 278.039 C 239.430 284.977,239.272 287.233,238.849 287.742 C 238.546 288.107,238.178 288.989,238.031 289.702 C 237.750 291.067,237.747 291.068,234.361 291.161 C 233.544 291.183,232.524 291.546,232.000 292.000 C 231.290 292.616,230.503 292.800,228.588 292.800 C 226.503 292.800,226.007 292.937,225.541 293.639 C 225.093 294.312,224.434 294.521,222.192 294.699 C 220.103 294.865,219.268 295.107,218.877 295.661 C 218.461 296.249,217.829 296.400,215.777 296.400 C 213.681 296.400,213.041 296.559,212.348 297.252 C 211.697 297.903,210.871 298.143,208.848 298.269 C 207.065 298.380,206.044 298.638,205.724 299.060 C 204.672 300.445,196.475 300.596,194.400 299.268 C 193.850 298.916,192.161 298.511,190.646 298.368 C 188.825 298.196,187.778 297.904,187.556 297.507 C 187.332 297.107,186.253 296.810,184.332 296.621 C 182.434 296.434,181.111 296.073,180.469 295.568 C 179.788 295.033,178.858 294.800,177.400 294.800 C 175.911 294.800,175.014 294.569,174.288 293.997 C 173.636 293.485,172.351 293.101,170.734 292.937 C 169.218 292.782,167.817 292.382,167.246 291.939 C 166.625 291.458,165.629 291.200,164.390 291.200 C 160.693 291.200,160.632 291.044,160.394 280.936 C 160.241 274.420,160.044 271.946,159.619 271.200 C 159.306 270.650,158.938 268.557,158.803 266.550 C 158.437 261.129,160.201 261.600,140.287 261.600 L 123.317 261.600 122.258 262.581 C 121.095 263.659,120.938 264.378,121.700 265.139 C 122.053 265.492,122.272 268.191,122.444 274.319 C 122.615 280.385,122.869 283.542,123.287 284.800 C 123.691 286.013,123.978 289.263,124.166 294.765 C 124.377 300.900,124.600 303.226,125.063 304.122 C 125.508 304.982,125.741 307.087,125.901 311.693 L 126.122 318.073 127.361 319.235 C 128.378 320.188,128.950 320.397,130.553 320.398 C 131.770 320.399,132.975 320.688,133.753 321.164 C 134.439 321.584,136.080 322.055,137.400 322.212 C 138.720 322.368,140.104 322.762,140.477 323.089 C 140.849 323.415,142.221 323.808,143.526 323.961 C 144.830 324.115,146.326 324.519,146.849 324.858 C 147.372 325.198,148.835 325.581,150.100 325.709 C 151.536 325.855,152.796 326.254,153.454 326.771 C 154.219 327.373,155.089 327.600,156.625 327.600 C 158.091 327.600,158.954 327.811,159.428 328.285 C 159.854 328.711,161.081 329.070,162.669 329.235 C 164.136 329.387,165.532 329.776,165.943 330.149 C 166.351 330.518,167.749 330.911,169.188 331.062 C 170.905 331.241,171.918 331.562,172.347 332.063 C 172.821 332.617,173.537 332.800,175.235 332.800 C 176.847 332.800,177.768 333.017,178.459 333.560 C 179.010 333.994,180.450 334.444,181.813 334.607 C 183.176 334.770,184.543 335.197,185.000 335.602 C 185.521 336.064,186.668 336.370,188.285 336.480 C 189.771 336.581,191.057 336.903,191.485 337.282 C 191.878 337.630,193.317 338.040,194.682 338.194 C 196.047 338.348,197.370 338.723,197.622 339.027 C 198.490 340.072,200.750 340.188,202.017 339.251 C 202.827 338.652,203.756 338.400,205.151 338.400 C 207.462 338.400,208.400 338.114,208.400 337.410 C 208.400 336.855,210.465 336.411,213.073 336.404 C 214.393 336.401,214.800 336.231,215.000 335.600 C 215.211 334.937,215.608 334.799,217.327 334.795 C 219.907 334.788,221.200 334.457,221.200 333.803 C 221.200 333.218,222.964 332.800,225.436 332.800 C 226.762 332.800,227.273 332.611,227.600 332.000 C 227.960 331.327,228.438 331.200,230.614 331.200 C 232.667 331.200,233.365 331.035,234.000 330.400 C 234.621 329.779,235.333 329.600,237.177 329.600 C 239.179 329.600,239.653 329.460,240.176 328.713 C 240.694 327.973,241.262 327.800,243.608 327.667 C 245.726 327.548,246.542 327.333,246.918 326.796 C 247.269 326.294,248.216 325.998,250.115 325.794 C 251.863 325.607,252.932 325.293,253.150 324.903 C 253.382 324.489,254.383 324.237,256.359 324.096 C 258.542 323.940,259.320 323.723,259.605 323.191 C 259.893 322.652,260.635 322.454,262.833 322.330 C 265.052 322.205,265.811 322.000,266.242 321.410 C 266.652 320.850,267.444 320.604,269.273 320.472 C 271.396 320.319,271.939 320.109,273.075 319.006 L 274.400 317.719 274.400 310.354 C 274.400 303.885,274.492 302.816,275.159 301.572 C 275.821 300.336,275.937 299.061,276.063 291.578 C 276.192 283.945,276.292 282.875,276.972 281.867 C 277.651 280.859,277.755 279.755,277.909 271.867 C 278.062 264.057,278.173 262.851,278.841 261.753 C 279.522 260.635,279.600 259.650,279.600 252.231 C 279.600 244.714,279.676 243.790,280.428 242.138 C 281.156 240.540,281.285 239.259,281.490 231.560 C 281.619 226.742,281.869 222.800,282.047 222.800 C 283.080 222.800,283.709 210.898,282.768 209.140 L 282.302 208.269 218.005 208.544 L 153.708 208.820 153.458 207.310 C 153.321 206.479,153.205 203.010,153.199 199.600 C 153.192 194.654,153.037 192.912,152.432 190.985 C 151.839 189.092,151.649 187.062,151.552 181.585 L 151.428 174.600 218.421 174.764 C 281.558 174.919,285.454 174.889,286.107 174.236 C 286.689 173.654,286.800 172.757,286.800 168.633 C 286.800 164.297,286.894 163.615,287.600 162.800 C 288.301 161.991,288.400 161.303,288.400 157.228 C 288.400 149.210,288.683 143.920,289.126 143.646 C 290.592 142.739,290.869 137.974,289.511 137.023 C 288.558 136.355,294.480 136.370,154.839 136.700 M287.902 138.391 C 288.416 139.215,288.041 147.443,287.162 154.600 C 286.946 156.360,286.587 160.140,286.364 163.000 C 285.606 172.723,285.702 172.261,284.336 172.827 C 283.365 173.229,269.797 173.274,217.173 173.052 L 151.227 172.773 150.413 173.587 C 149.511 174.489,149.447 175.059,149.988 177.390 C 150.190 178.264,150.553 182.134,150.794 185.990 C 151.034 189.845,151.413 194.260,151.636 195.800 C 151.858 197.340,152.206 200.916,152.409 203.746 C 152.612 206.576,152.985 209.141,153.238 209.446 C 153.626 209.914,163.671 210.000,217.825 210.000 C 255.216 210.000,282.045 210.150,282.174 210.359 C 282.296 210.556,282.050 213.211,281.627 216.259 C 281.204 219.306,280.664 224.770,280.428 228.400 C 280.192 232.030,279.743 236.890,279.430 239.200 C 279.117 241.510,278.844 245.110,278.823 247.200 C 278.803 249.290,278.523 252.710,278.203 254.800 C 277.882 256.890,277.425 261.840,277.188 265.800 C 276.950 269.760,276.503 274.710,276.194 276.800 C 275.885 278.890,275.429 283.750,275.182 287.600 C 274.934 291.450,274.559 295.500,274.347 296.600 C 274.135 297.700,273.795 301.720,273.592 305.534 C 272.996 316.723,272.550 318.277,269.694 319.114 C 263.929 320.804,259.121 322.134,255.400 323.068 C 254.080 323.399,252.370 323.909,251.600 324.200 C 250.830 324.491,249.120 325.001,247.800 325.332 C 243.373 326.444,241.817 326.858,238.600 327.783 C 235.292 328.734,233.225 329.293,230.300 330.026 C 229.365 330.261,227.790 330.729,226.800 331.066 C 225.810 331.403,223.838 331.940,222.417 332.259 C 220.996 332.579,219.646 332.995,219.417 333.185 C 219.188 333.375,217.838 333.740,216.417 333.998 C 214.996 334.255,213.376 334.696,212.817 334.977 C 212.258 335.258,210.990 335.606,210.000 335.750 C 209.010 335.894,207.210 336.346,206.000 336.754 C 200.608 338.577,200.242 338.572,193.400 336.606 C 190.097 335.656,188.588 335.254,183.800 334.048 C 182.260 333.660,180.607 333.131,180.126 332.871 C 179.646 332.612,178.877 332.400,178.419 332.400 C 177.960 332.400,176.297 331.950,174.723 331.400 C 173.149 330.850,171.397 330.396,170.830 330.391 C 170.264 330.386,169.042 330.039,168.117 329.618 C 167.191 329.198,165.571 328.728,164.517 328.575 C 163.462 328.422,162.090 328.037,161.466 327.720 C 160.843 327.404,159.229 326.967,157.880 326.750 C 156.531 326.532,155.217 326.180,154.959 325.966 C 154.701 325.752,153.290 325.326,151.823 325.019 C 150.356 324.712,148.940 324.293,148.678 324.088 C 148.415 323.883,147.032 323.491,145.605 323.219 C 144.178 322.946,142.522 322.470,141.925 322.161 C 141.328 321.853,140.412 321.600,139.890 321.600 C 139.367 321.600,137.651 321.150,136.077 320.600 C 134.503 320.050,132.741 319.600,132.162 319.600 C 130.742 319.600,127.202 317.630,127.194 316.836 C 127.171 314.418,125.965 299.274,125.615 297.000 C 125.378 295.460,124.922 290.600,124.603 286.200 C 124.284 281.800,123.858 277.300,123.658 276.200 C 123.457 275.100,123.227 271.770,123.146 268.800 L 123.000 263.400 140.084 263.296 C 156.050 263.198,157.191 263.238,157.532 263.896 C 157.732 264.283,158.022 267.030,158.176 270.000 C 158.330 272.970,158.713 277.110,159.026 279.200 C 159.339 281.290,159.597 284.260,159.600 285.800 C 159.607 290.185,160.116 291.513,161.915 291.838 C 162.732 291.986,164.300 292.427,165.400 292.818 C 166.500 293.208,168.300 293.651,169.400 293.801 C 170.500 293.952,171.605 294.244,171.856 294.450 C 172.107 294.656,173.618 295.097,175.215 295.430 C 176.812 295.763,178.407 296.190,178.759 296.378 C 179.112 296.567,180.565 296.950,181.988 297.230 C 183.411 297.510,185.031 297.976,185.588 298.267 C 186.145 298.557,186.999 298.796,187.488 298.798 C 187.976 298.799,189.754 299.250,191.439 299.800 C 193.124 300.350,194.925 300.800,195.443 300.800 C 195.960 300.800,197.101 301.087,197.979 301.438 C 199.419 302.014,199.740 302.017,201.287 301.466 C 202.229 301.130,203.731 300.756,204.623 300.635 C 205.516 300.514,206.776 300.152,207.423 299.830 C 208.071 299.509,209.715 299.067,211.078 298.849 C 212.441 298.630,213.881 298.278,214.278 298.065 C 214.675 297.853,216.170 297.459,217.600 297.190 C 219.030 296.921,220.599 296.453,221.086 296.150 C 221.573 295.848,222.421 295.600,222.971 295.600 C 223.520 295.600,225.371 295.152,227.085 294.605 C 228.798 294.058,230.560 293.608,231.000 293.605 C 231.440 293.602,232.700 293.260,233.800 292.846 C 234.900 292.431,236.576 291.964,237.525 291.807 C 239.810 291.428,239.966 290.942,240.412 282.808 C 240.611 279.174,241.033 274.220,241.350 271.800 C 241.666 269.380,242.047 264.970,242.196 262.000 C 242.344 259.030,242.721 255.091,243.033 253.248 C 243.755 248.976,243.766 245.836,243.061 245.250 C 242.669 244.925,225.916 244.775,181.976 244.701 L 121.430 244.600 121.141 243.200 C 120.567 240.417,119.625 231.696,119.390 227.000 C 119.258 224.360,118.901 220.490,118.597 218.400 C 118.293 216.310,117.846 211.367,117.605 207.415 C 117.363 203.463,117.010 199.503,116.819 198.615 C 116.629 197.727,116.274 193.850,116.029 190.000 C 115.785 186.150,115.327 181.110,115.012 178.800 C 114.697 176.490,114.238 171.543,113.992 167.808 C 113.746 164.072,113.392 160.202,113.206 159.208 C 113.021 158.213,112.756 155.510,112.619 153.200 C 112.482 150.890,112.170 146.772,111.926 144.049 C 111.506 139.355,111.522 139.074,112.241 138.649 C 113.027 138.184,151.807 137.904,244.004 137.697 C 286.863 137.601,287.414 137.610,287.902 138.391 " stroke="none" fill="#eb745c" fill-rule="evenodd"></path><path id="path4" d="M84.306 26.300 L 84.200 52.600 85.082 53.500 C 86.243 54.686,101.821 54.922,102.971 53.771 C 103.503 53.240,103.600 51.848,103.600 44.771 L 103.600 36.400 110.953 36.400 C 119.734 36.400,118.787 35.262,118.795 45.820 C 118.798 51.207,118.941 53.581,119.280 53.920 C 120.081 54.721,136.157 54.586,136.971 53.771 C 137.728 53.015,137.953 0.000,137.200 0.000 C 136.937 0.000,136.798 8.971,136.794 26.100 C 136.791 40.455,136.643 52.429,136.465 52.709 C 136.217 53.099,134.241 53.192,127.971 53.109 L 119.800 53.000 119.600 44.485 C 119.359 34.245,120.262 35.214,110.962 35.206 C 101.603 35.198,102.400 34.313,102.400 44.724 C 102.400 54.319,103.548 53.273,93.200 53.114 L 85.800 53.000 85.697 26.500 C 85.608 3.428,85.518 0.000,85.003 0.000 C 84.488 0.000,84.398 3.405,84.306 26.300 M102.000 8.590 L 102.000 17.179 103.180 17.790 C 104.933 18.696,118.062 18.681,118.971 17.771 C 119.712 17.030,119.939 0.000,119.208 0.000 C 118.968 0.000,118.774 3.288,118.708 8.500 L 118.600 17.000 111.100 17.109 L 103.600 17.218 103.600 8.609 C 103.600 0.267,103.575 0.000,102.800 0.000 C 102.025 0.000,102.000 0.267,102.000 8.590 M144.413 8.300 C 144.429 19.098,143.627 18.145,152.916 18.400 L 160.200 18.600 160.400 35.867 C 160.510 45.364,160.690 53.214,160.800 53.313 C 161.805 54.211,163.418 54.399,170.074 54.394 C 175.175 54.390,177.704 54.235,178.400 53.882 L 179.400 53.377 179.600 35.988 L 179.800 18.600 186.800 18.501 C 196.482 18.363,195.600 19.342,195.600 8.732 C 195.600 0.267,195.576 0.000,194.800 0.000 C 194.025 0.000,194.000 0.267,194.000 8.557 C 194.000 18.684,194.942 17.600,186.141 17.600 C 176.947 17.600,178.000 15.271,178.000 35.606 L 178.000 52.785 177.100 53.006 C 176.605 53.128,173.050 53.177,169.200 53.114 L 162.200 53.000 162.096 35.836 C 162.025 24.147,161.852 18.503,161.554 18.144 C 161.227 17.750,159.233 17.590,153.658 17.509 L 146.200 17.400 146.092 8.700 C 145.989 0.332,145.954 0.000,145.192 0.000 C 144.428 0.000,144.400 0.290,144.413 8.300 M202.400 26.720 C 202.400 46.969,202.516 53.556,202.880 53.920 C 203.222 54.262,205.737 54.400,211.657 54.400 C 222.303 54.400,221.190 56.002,221.234 40.611 C 221.256 33.200,221.401 29.041,221.614 29.752 C 221.804 30.386,222.307 31.286,222.733 31.752 C 223.159 32.219,223.631 33.005,223.781 33.500 C 223.931 33.995,224.219 34.400,224.422 34.400 C 224.624 34.400,225.034 34.985,225.333 35.700 C 225.632 36.415,226.174 37.247,226.538 37.549 C 226.902 37.851,227.200 38.333,227.200 38.620 C 227.200 38.908,227.447 39.390,227.748 39.691 C 228.050 39.992,228.594 40.815,228.958 41.520 C 229.323 42.224,229.761 42.800,229.933 42.800 C 230.105 42.800,230.564 43.520,230.952 44.400 C 231.398 45.410,231.942 46.022,232.429 46.060 C 232.853 46.093,233.423 46.138,233.697 46.160 C 233.970 46.182,234.555 45.548,234.997 44.750 C 235.438 43.953,236.475 42.314,237.300 41.109 C 238.125 39.903,238.800 38.771,238.800 38.592 C 238.800 38.413,239.075 37.982,239.412 37.634 C 240.383 36.627,242.385 33.449,242.393 32.900 C 242.397 32.625,242.587 32.400,242.816 32.400 C 243.045 32.400,243.573 31.635,243.988 30.700 L 244.743 29.000 244.772 40.811 C 244.796 50.822,244.895 52.757,245.423 53.511 C 246.344 54.826,261.896 54.904,263.200 53.600 C 264.283 52.517,264.482 0.000,263.403 -0.000 C 262.880 -0.000,262.793 3.313,262.703 26.500 L 262.600 53.000 254.255 53.000 L 245.911 53.000 245.976 40.966 C 246.029 30.985,245.943 28.851,245.471 28.459 C 244.694 27.814,243.643 28.291,243.361 29.415 C 243.233 29.924,242.784 30.652,242.364 31.033 C 241.944 31.413,241.600 32.025,241.600 32.392 C 241.600 32.760,241.150 33.483,240.600 34.000 C 240.050 34.517,239.600 35.080,239.600 35.252 C 239.600 35.651,237.810 38.402,237.010 39.234 C 236.674 39.582,236.400 40.063,236.400 40.303 C 236.400 40.543,235.981 41.247,235.468 41.869 C 234.956 42.491,234.421 43.315,234.281 43.700 C 233.860 44.853,232.047 44.595,231.476 43.300 C 230.732 41.614,228.833 38.800,228.438 38.800 C 228.245 38.800,227.968 38.325,227.822 37.745 C 227.543 36.635,225.756 34.024,224.902 33.480 C 224.626 33.304,224.400 32.871,224.400 32.518 C 224.400 32.165,223.950 31.286,223.400 30.564 C 222.850 29.843,222.400 29.083,222.400 28.876 C 222.400 28.668,222.154 28.294,221.853 28.044 C 220.435 26.867,220.208 28.448,220.000 40.961 L 219.800 53.000 211.600 53.000 L 203.400 53.000 203.297 26.500 C 203.230 9.296,203.055 -0.000,202.797 -0.000 C 202.538 -0.000,202.400 9.301,202.400 26.720 M221.600 0.713 C 221.600 1.351,223.705 5.035,224.783 6.283 C 225.012 6.549,225.200 6.962,225.200 7.201 C 225.200 7.441,225.648 8.085,226.196 8.632 C 226.744 9.180,227.300 10.059,227.432 10.585 C 227.564 11.111,228.016 11.852,228.436 12.233 C 228.856 12.613,229.200 13.245,229.200 13.638 C 229.200 14.031,229.383 14.466,229.606 14.604 C 229.829 14.741,230.359 15.536,230.785 16.370 C 231.602 17.971,233.995 19.415,234.303 18.492 C 234.388 18.236,234.897 17.379,235.434 16.588 C 235.971 15.796,236.669 14.530,236.985 13.774 C 237.301 13.018,237.712 12.400,237.899 12.400 C 238.086 12.400,238.467 11.770,238.746 11.000 C 239.024 10.230,239.408 9.600,239.599 9.600 C 239.790 9.600,240.073 9.195,240.228 8.700 C 240.383 8.205,240.935 7.291,241.455 6.669 C 241.975 6.047,242.400 5.371,242.400 5.165 C 242.400 4.960,243.030 3.895,243.800 2.800 C 245.406 0.516,245.517 -0.000,244.408 0.000 C 243.875 0.000,243.527 0.361,243.347 1.100 C 243.199 1.705,242.656 2.709,242.139 3.331 C 241.623 3.953,241.200 4.690,241.200 4.969 C 241.200 5.248,240.840 5.802,240.400 6.200 C 239.960 6.598,239.600 7.250,239.600 7.648 C 239.600 8.046,239.255 8.557,238.833 8.783 C 238.410 9.009,237.946 9.735,237.801 10.397 C 237.655 11.059,237.362 11.600,237.148 11.600 C 236.934 11.600,236.509 12.199,236.203 12.932 C 235.897 13.664,235.388 14.478,235.071 14.741 C 234.755 15.003,234.390 15.752,234.259 16.405 C 233.941 17.993,232.239 17.336,231.592 15.376 C 231.355 14.658,230.917 13.977,230.618 13.862 C 230.320 13.748,229.951 13.090,229.800 12.400 C 229.649 11.710,229.278 11.051,228.978 10.936 C 228.677 10.821,228.312 10.338,228.168 9.863 C 228.024 9.388,227.640 8.697,227.316 8.328 C 226.695 7.619,225.645 5.828,224.645 3.768 C 224.315 3.091,223.766 2.304,223.423 2.019 C 223.080 1.735,222.800 1.164,222.800 0.751 C 222.800 0.338,222.530 0.000,222.200 0.000 C 221.870 0.000,221.600 0.321,221.600 0.713 M271.600 26.324 C 271.600 48.421,271.691 52.772,272.168 53.424 C 272.848 54.354,311.892 54.888,314.896 54.009 C 316.845 53.438,316.877 53.268,316.725 44.285 C 316.560 34.432,317.979 35.426,303.886 35.297 C 297.679 35.240,292.195 35.101,291.700 34.989 L 290.800 34.785 290.800 17.392 C 290.800 2.199,290.724 0.000,290.200 0.000 C 289.355 0.000,289.313 34.988,290.157 36.100 C 290.641 36.738,291.711 36.800,302.321 36.800 C 316.622 36.800,315.200 35.824,315.200 45.642 C 315.200 52.630,315.190 52.709,314.300 52.948 C 313.032 53.288,274.755 53.205,273.883 52.861 C 273.204 52.592,273.168 51.203,273.191 26.289 C 273.216 0.169,273.211 0.000,272.408 0.000 C 271.605 0.000,271.600 0.178,271.600 26.324 " stroke="none" fill="#979797" fill-rule="evenodd"></path></g></svg>