<svg id="svg" version="1.1" xmlns="http://www.w3.org/2000/svg" xmlns:xlink="http://www.w3.org/1999/xlink" width="400" height="400" viewBox="0, 0, 400,400"><g id="svgg"><path id="path0" d="M0.000 200.000 L 0.000 400.000 200.000 400.000 L 400.000 400.000 400.000 200.000 L 400.000 0.000 200.000 0.000 L 0.000 0.000 0.000 200.000 M228.452 5.637 C 234.416 9.884,236.032 26.306,231.596 37.600 C 231.121 38.810,230.626 40.160,230.495 40.600 C 230.364 41.040,229.750 42.263,229.129 43.318 C 228.508 44.372,228.000 45.350,228.000 45.490 C 228.000 45.701,225.915 48.862,222.814 53.351 C 220.110 57.267,210.541 67.286,206.000 70.957 C 205.230 71.579,203.845 72.789,202.922 73.646 C 201.999 74.503,200.019 76.137,198.522 77.278 C 195.751 79.389,188.926 86.041,187.309 88.207 C 183.077 93.872,180.608 98.640,180.268 101.800 C 180.149 102.900,179.871 104.947,179.650 106.350 C 178.655 112.643,182.124 122.486,188.760 132.200 C 190.413 134.620,192.896 138.310,194.279 140.400 C 195.662 142.490,197.064 144.552,197.396 144.981 C 197.728 145.411,198.000 146.002,198.000 146.295 C 198.000 146.588,198.249 147.227,198.552 147.714 C 199.670 149.506,199.751 150.902,198.718 150.574 C 197.706 150.253,197.748 150.288,191.000 144.106 C 185.712 139.261,184.575 138.074,175.917 128.361 C 173.930 126.131,170.311 120.985,169.474 119.200 C 169.320 118.870,168.841 118.019,168.410 117.309 C 160.831 104.820,163.380 90.339,174.905 80.400 C 176.053 79.410,178.344 77.232,179.996 75.559 C 181.648 73.887,183.900 71.817,185.000 70.959 C 186.100 70.102,187.090 69.300,187.200 69.179 C 187.310 69.057,188.120 68.427,189.000 67.779 C 189.880 67.130,190.803 66.420,191.051 66.200 C 191.299 65.980,192.526 64.990,193.777 64.000 C 195.027 63.010,196.714 61.657,197.525 60.994 C 198.336 60.331,200.044 59.088,201.320 58.232 C 204.458 56.126,212.258 48.415,217.222 42.511 C 219.455 39.855,224.338 31.487,224.406 30.200 C 224.418 29.980,224.775 29.080,225.200 28.200 C 225.625 27.320,225.979 26.117,225.986 25.526 C 225.994 24.935,226.196 23.945,226.437 23.326 C 227.013 21.838,226.994 10.205,226.411 8.040 C 225.608 5.057,226.373 4.157,228.452 5.637 M257.372 60.355 C 257.578 60.689,255.170 62.800,254.584 62.800 C 254.436 62.800,253.633 63.340,252.800 64.000 C 251.967 64.660,251.142 65.200,250.968 65.200 C 250.794 65.200,250.280 65.543,249.826 65.962 C 249.372 66.381,246.120 68.623,242.600 70.944 C 239.080 73.266,235.394 75.758,234.409 76.483 C 233.424 77.207,232.482 77.859,232.314 77.932 C 229.304 79.234,218.569 91.497,217.897 94.400 C 217.770 94.950,217.350 96.210,216.963 97.200 C 214.875 102.554,217.185 108.996,224.783 119.000 C 226.453 121.200,228.031 123.450,228.288 124.000 C 230.603 128.945,230.567 128.784,230.567 134.200 C 230.567 141.040,228.402 145.737,222.639 151.400 C 215.950 157.972,208.138 162.307,211.360 157.658 C 211.932 156.832,212.400 156.020,212.400 155.852 C 212.400 155.684,212.841 154.969,213.379 154.263 C 216.157 150.621,216.485 143.208,214.117 137.612 C 213.652 136.514,208.998 130.093,208.019 129.200 C 207.416 128.650,205.981 126.309,204.709 123.800 C 203.928 122.260,203.001 120.460,202.647 119.800 C 202.294 119.140,202.004 118.394,202.002 118.141 C 202.001 117.889,201.461 116.359,200.801 114.741 C 199.114 110.602,199.031 103.034,200.622 98.386 C 201.183 96.744,201.748 95.040,201.876 94.600 C 202.683 91.831,209.973 83.045,214.800 79.024 C 216.000 78.024,220.902 74.800,221.222 74.800 C 221.402 74.800,223.276 73.630,225.385 72.200 C 227.494 70.770,229.338 69.600,229.483 69.600 C 229.628 69.600,231.918 68.534,234.573 67.231 C 237.228 65.928,239.914 64.734,240.542 64.577 C 241.170 64.421,242.505 63.855,243.509 63.321 C 244.514 62.787,246.070 62.193,246.968 62.001 C 250.076 61.335,252.134 60.765,252.765 60.395 C 253.580 59.919,257.084 59.889,257.372 60.355 M281.400 149.542 C 282.940 149.795,284.560 150.158,285.000 150.350 C 289.396 152.263,290.757 153.129,293.195 155.567 C 296.033 158.406,298.000 161.697,298.000 163.609 C 298.000 164.238,298.180 164.864,298.400 165.000 C 298.942 165.335,298.908 170.997,298.353 172.772 C 297.752 174.691,295.159 180.069,294.516 180.729 C 294.232 181.019,294.000 181.392,294.000 181.558 C 294.000 182.492,284.840 190.818,282.800 191.738 C 282.470 191.887,281.660 192.361,281.000 192.792 C 280.340 193.223,278.720 194.129,277.400 194.807 C 276.080 195.484,274.190 196.467,273.200 196.990 C 270.650 198.338,268.577 199.200,267.885 199.200 C 267.559 199.200,266.776 199.469,266.146 199.798 C 265.516 200.126,264.550 200.402,264.000 200.410 C 263.450 200.419,262.651 200.690,262.224 201.013 C 261.796 201.336,260.862 201.600,260.147 201.600 C 259.432 201.600,258.736 201.780,258.600 202.000 C 258.195 202.656,256.400 202.478,256.400 201.782 C 256.400 200.954,258.104 199.294,259.704 198.565 C 260.417 198.240,261.540 197.622,262.200 197.192 C 262.860 196.761,263.664 196.283,263.986 196.129 C 264.308 195.975,265.637 195.118,266.939 194.224 C 268.241 193.331,269.590 192.420,269.936 192.200 C 270.283 191.980,270.809 191.578,271.106 191.306 C 271.402 191.034,272.760 189.970,274.123 188.941 C 278.327 185.767,284.800 178.065,284.800 176.237 C 284.800 175.940,285.076 175.038,285.412 174.232 C 288.668 166.441,283.811 157.145,274.928 154.163 C 271.670 153.069,271.003 153.056,265.400 153.968 C 262.924 154.371,262.116 154.118,262.520 153.065 C 262.858 152.184,268.441 149.601,270.023 149.594 C 270.780 149.591,271.670 149.406,272.000 149.184 C 272.706 148.710,277.430 148.889,281.400 149.542 M166.656 152.654 C 166.076 153.233,164.927 153.855,164.101 154.035 C 161.118 154.686,157.792 155.683,157.420 156.038 C 157.211 156.237,156.671 156.401,156.220 156.402 C 155.769 156.404,154.884 156.674,154.254 157.002 C 153.624 157.331,152.901 157.600,152.648 157.600 C 152.395 157.600,151.516 157.960,150.696 158.400 C 149.875 158.840,148.932 159.200,148.601 159.200 C 148.271 159.200,148.000 159.366,148.000 159.569 C 148.000 159.772,147.370 160.146,146.600 160.400 C 145.830 160.654,145.200 161.028,145.200 161.231 C 145.200 161.434,144.989 161.600,144.731 161.600 C 143.993 161.600,142.800 162.853,142.800 163.629 C 142.800 164.463,145.117 166.000,146.374 166.000 C 146.857 166.000,147.646 166.216,148.126 166.481 C 150.817 167.962,187.625 169.195,194.800 168.044 C 196.230 167.814,201.810 167.441,207.200 167.215 C 217.516 166.781,222.250 166.348,227.209 165.385 C 228.864 165.063,231.204 164.792,232.409 164.783 C 233.614 164.773,235.410 164.589,236.400 164.375 C 242.969 162.950,254.273 162.091,254.493 163.000 C 254.546 163.220,253.624 163.888,252.444 164.484 C 251.264 165.080,249.992 165.845,249.618 166.184 C 249.243 166.523,248.726 166.800,248.469 166.800 C 248.211 166.800,248.000 166.977,248.000 167.192 C 248.000 167.408,247.557 167.696,247.016 167.832 C 246.475 167.967,245.823 168.331,245.567 168.639 C 245.311 168.948,244.629 169.206,244.051 169.213 C 243.473 169.220,242.651 169.490,242.224 169.813 C 241.796 170.136,240.783 170.400,239.972 170.400 C 239.161 170.400,237.851 170.670,237.062 171.000 C 236.272 171.330,234.833 171.600,233.863 171.600 C 232.894 171.600,231.335 171.870,230.400 172.200 C 229.465 172.530,227.506 172.800,226.047 172.800 C 224.588 172.800,222.766 172.987,221.997 173.215 C 221.229 173.444,218.548 173.804,216.040 174.016 C 213.533 174.228,210.833 174.572,210.040 174.781 C 209.248 174.989,205.540 175.249,201.800 175.357 C 198.060 175.466,191.850 175.760,188.000 176.010 C 172.709 177.007,141.871 175.457,135.229 173.359 C 134.255 173.052,132.905 172.794,132.229 172.786 C 131.553 172.778,130.550 172.514,130.000 172.200 C 129.450 171.886,128.527 171.622,127.949 171.614 C 127.371 171.606,126.674 171.330,126.400 171.000 C 126.126 170.670,125.734 170.400,125.530 170.400 C 124.300 170.400,122.400 168.142,122.400 166.680 C 122.400 164.461,128.576 159.600,131.395 159.600 C 131.674 159.600,132.126 159.330,132.400 159.000 C 132.674 158.670,133.339 158.400,133.878 158.400 C 134.416 158.400,135.127 158.130,135.457 157.800 C 135.787 157.470,136.562 157.200,137.180 157.200 C 137.797 157.200,138.526 156.930,138.800 156.600 C 139.074 156.270,139.738 156.000,140.275 156.000 C 140.813 156.000,141.633 155.796,142.098 155.548 C 143.209 154.953,147.126 154.047,150.499 153.604 C 151.983 153.409,153.416 153.114,153.683 152.949 C 154.199 152.630,162.472 151.742,165.755 151.653 L 167.709 151.600 166.656 152.654 M157.477 183.030 C 157.555 183.266,157.146 184.157,156.568 185.009 C 154.647 187.840,155.442 190.360,158.459 191.005 C 159.197 191.163,159.980 191.429,160.200 191.595 C 160.420 191.762,162.533 192.023,164.895 192.175 C 167.257 192.328,169.777 192.627,170.495 192.839 C 176.175 194.521,209.771 193.616,218.983 191.532 C 220.073 191.285,222.503 190.939,224.383 190.762 C 226.262 190.585,229.505 190.171,231.589 189.841 C 235.870 189.164,235.228 188.975,240.431 192.449 C 242.284 193.687,244.205 194.824,244.700 194.976 C 246.797 195.623,245.603 197.316,242.600 197.954 C 239.033 198.712,236.225 199.449,235.074 199.930 C 234.455 200.188,233.442 200.400,232.823 200.400 C 232.204 200.400,231.051 200.670,230.262 201.000 C 229.472 201.330,227.752 201.600,226.439 201.600 C 225.126 201.600,223.545 201.793,222.926 202.028 C 222.307 202.264,220.180 202.616,218.200 202.811 C 216.220 203.005,213.250 203.347,211.600 203.571 C 200.269 205.106,183.037 205.629,177.162 204.615 C 175.203 204.277,172.565 203.998,171.300 203.995 C 170.035 203.993,168.010 203.725,166.800 203.400 C 165.590 203.075,163.948 202.807,163.150 202.805 C 162.353 202.802,160.935 202.530,160.000 202.200 C 159.065 201.870,157.827 201.599,157.250 201.598 C 156.672 201.596,155.684 201.326,155.054 200.998 C 154.424 200.669,153.566 200.400,153.148 200.400 C 151.864 200.400,146.276 197.320,144.900 195.854 C 143.035 193.867,143.035 191.217,144.900 189.184 C 146.256 187.706,148.811 185.874,150.800 184.954 C 151.130 184.801,151.643 184.487,151.940 184.255 C 153.514 183.032,157.205 182.214,157.477 183.030 M162.932 212.629 C 163.458 212.831,163.454 212.989,162.902 213.952 C 161.004 217.258,164.664 218.988,174.800 219.577 C 177.770 219.749,181.190 220.110,182.400 220.378 C 187.272 221.458,211.350 220.394,217.400 218.832 C 218.280 218.605,219.743 218.415,220.651 218.410 C 221.559 218.404,222.949 218.130,223.738 217.800 C 225.328 217.136,228.226 216.995,228.579 217.565 C 228.848 218.001,240.124 223.600,240.732 223.600 C 241.355 223.600,241.637 224.238,241.347 224.993 C 241.046 225.777,238.181 227.095,234.000 228.372 C 232.350 228.876,230.707 229.436,230.349 229.617 C 229.991 229.797,229.001 230.072,228.149 230.226 C 227.297 230.381,226.114 230.753,225.520 231.053 C 224.926 231.354,223.846 231.606,223.120 231.614 C 222.394 231.622,221.350 231.886,220.800 232.200 C 220.250 232.514,219.073 232.778,218.184 232.786 C 217.295 232.794,215.585 233.056,214.384 233.368 C 206.012 235.546,173.655 234.623,168.926 232.071 C 168.446 231.812,167.456 231.594,166.726 231.587 C 165.997 231.580,165.051 231.310,164.624 230.987 C 164.196 230.664,163.364 230.400,162.773 230.400 C 162.182 230.400,161.474 230.130,161.200 229.800 C 160.926 229.470,160.469 229.200,160.184 229.200 C 156.874 229.200,151.200 223.640,151.200 220.397 C 151.200 217.419,160.085 211.537,162.932 212.629 M142.148 232.196 C 142.963 233.311,142.701 233.512,140.094 233.775 C 134.197 234.369,124.284 237.369,123.379 238.835 C 123.254 239.036,122.803 239.200,122.376 239.200 C 121.949 239.200,121.600 239.370,121.600 239.578 C 121.600 239.786,121.105 240.194,120.500 240.484 C 119.615 240.908,119.400 241.280,119.400 242.390 C 119.400 243.806,119.553 243.946,122.400 245.144 C 122.950 245.375,124.120 245.873,125.000 246.250 C 126.983 247.099,130.218 247.918,133.503 248.401 C 134.880 248.604,136.680 248.957,137.503 249.186 C 138.326 249.415,140.800 249.769,143.000 249.973 C 145.200 250.176,148.620 250.528,150.600 250.756 C 160.366 251.876,166.333 252.076,190.031 252.080 C 206.605 252.083,216.479 251.925,219.400 251.609 C 221.820 251.348,226.230 250.970,229.200 250.769 C 239.820 250.052,247.823 249.281,249.197 248.844 C 249.966 248.600,251.519 248.400,252.649 248.400 C 253.778 248.400,255.349 248.130,256.138 247.800 C 256.928 247.470,258.486 247.200,259.600 247.200 C 260.714 247.200,262.272 246.930,263.062 246.600 C 263.851 246.270,265.021 246.000,265.662 246.000 C 266.302 246.000,267.472 245.730,268.262 245.400 C 269.051 245.070,270.171 244.799,270.749 244.798 C 271.327 244.796,272.316 244.526,272.946 244.198 C 273.576 243.869,274.456 243.600,274.902 243.600 C 275.794 243.600,279.093 242.090,279.929 241.300 C 280.219 241.025,280.581 240.800,280.732 240.800 C 281.379 240.800,282.191 238.839,282.388 236.800 C 282.637 234.217,283.360 234.034,285.400 236.037 C 288.636 239.215,286.160 243.323,278.800 246.990 C 274.333 249.215,271.419 250.400,270.413 250.400 C 269.937 250.400,269.154 250.612,268.674 250.870 C 268.193 251.129,267.170 251.478,266.400 251.648 C 264.908 251.975,262.645 252.547,259.400 253.417 C 258.300 253.712,255.960 254.252,254.200 254.618 C 252.440 254.983,250.280 255.463,249.400 255.684 C 248.520 255.905,246.540 256.258,245.000 256.468 C 243.460 256.678,241.597 257.037,240.860 257.266 C 240.123 257.494,237.603 257.835,235.260 258.023 C 232.917 258.210,230.081 258.537,228.958 258.749 C 227.835 258.960,224.931 259.149,222.504 259.168 C 220.078 259.187,217.127 259.387,215.946 259.612 C 210.488 260.653,174.872 260.877,162.600 259.947 C 159.740 259.730,154.070 259.398,150.000 259.208 C 145.930 259.018,141.971 258.668,141.203 258.431 C 140.434 258.194,138.454 257.992,136.803 257.983 C 135.151 257.973,132.990 257.788,132.000 257.572 C 131.010 257.356,128.906 257.014,127.326 256.812 C 125.745 256.610,123.688 256.239,122.756 255.988 C 121.824 255.737,119.697 255.381,118.031 255.196 C 114.434 254.799,110.665 254.101,109.000 253.524 C 108.340 253.295,107.311 253.020,106.713 252.911 C 106.115 252.802,105.418 252.463,105.164 252.156 C 104.910 251.850,104.409 251.594,104.051 251.587 C 102.023 251.548,100.265 248.298,100.842 245.655 C 101.246 243.806,105.653 239.600,107.187 239.600 C 107.377 239.600,107.593 239.449,107.667 239.265 C 107.806 238.917,113.608 236.000,114.162 236.000 C 114.336 236.000,115.046 235.760,115.740 235.466 C 117.891 234.554,119.726 233.932,121.667 233.457 C 122.694 233.205,123.669 232.865,123.834 232.700 C 123.998 232.535,124.868 232.383,125.767 232.361 C 126.665 232.340,128.390 232.088,129.600 231.801 C 133.228 230.941,141.420 231.198,142.148 232.196 M298.202 250.100 C 297.766 252.268,297.563 252.800,297.173 252.800 C 296.968 252.800,296.800 253.019,296.800 253.287 C 296.800 253.941,292.764 258.000,292.114 258.000 C 291.831 258.000,291.600 258.184,291.600 258.410 C 291.600 258.635,291.195 258.998,290.700 259.216 C 290.205 259.434,289.260 259.967,288.600 260.402 C 287.940 260.836,287.130 261.301,286.800 261.434 C 285.913 261.794,283.989 262.610,282.400 263.301 C 280.116 264.295,277.519 265.163,275.600 265.573 C 274.610 265.785,272.630 266.252,271.200 266.611 C 267.368 267.574,263.341 268.409,260.400 268.852 C 258.970 269.067,257.260 269.404,256.600 269.600 C 255.940 269.797,254.230 270.076,252.800 270.220 C 251.370 270.365,249.429 270.735,248.486 271.042 C 247.543 271.349,245.307 271.600,243.517 271.600 C 241.727 271.600,238.808 271.856,237.031 272.170 C 235.104 272.509,229.443 272.837,223.000 272.981 C 217.060 273.113,208.870 273.388,204.800 273.590 C 197.210 273.969,179.281 273.318,170.800 272.356 C 168.710 272.119,165.020 271.789,162.600 271.622 C 160.180 271.455,157.480 271.118,156.600 270.873 C 155.720 270.627,153.606 270.315,151.903 270.179 C 150.199 270.043,148.704 269.767,148.579 269.566 C 148.455 269.365,147.598 269.199,146.676 269.198 C 145.754 269.196,144.484 268.926,143.854 268.598 C 143.224 268.269,142.384 268.000,141.987 268.000 C 140.853 268.000,137.137 265.987,137.312 265.468 C 137.511 264.878,142.014 264.900,145.600 265.508 C 163.928 268.613,214.553 269.270,227.279 266.569 C 228.752 266.256,231.272 265.992,232.879 265.983 C 234.486 265.973,236.610 265.784,237.600 265.562 C 238.590 265.340,241.238 265.003,243.484 264.813 C 245.730 264.622,247.751 264.354,247.974 264.216 C 248.197 264.078,249.600 263.878,251.090 263.772 C 252.581 263.666,254.970 263.320,256.400 263.003 C 257.830 262.685,260.080 262.223,261.400 261.976 C 263.804 261.525,266.510 260.939,271.000 259.896 C 272.320 259.589,273.793 259.127,274.274 258.869 C 274.754 258.611,275.564 258.394,276.074 258.387 C 276.583 258.380,277.349 258.110,277.776 257.787 C 278.204 257.464,279.014 257.194,279.576 257.187 C 280.139 257.180,280.949 256.910,281.376 256.587 C 281.804 256.264,282.406 256.000,282.716 256.000 C 283.891 256.000,293.738 251.172,295.494 249.735 C 297.248 248.299,298.530 248.472,298.202 250.100 M121.761 290.122 C 123.516 291.405,122.695 374.306,120.896 377.474 C 120.623 377.954,120.400 378.720,120.400 379.175 C 120.400 381.829,113.646 390.247,109.393 392.893 C 101.900 397.554,101.830 397.553,97.800 392.629 C 94.764 388.920,94.694 388.483,96.948 387.331 C 97.637 386.980,99.550 385.299,101.200 383.595 C 103.947 380.759,104.592 379.795,106.543 375.600 C 107.684 373.147,107.911 364.589,107.822 327.400 C 107.750 297.720,107.830 291.242,108.277 290.500 C 108.935 289.407,120.345 289.087,121.761 290.122 M166.673 311.944 C 172.109 313.628,178.000 318.409,178.000 321.138 C 178.000 321.524,178.225 322.065,178.500 322.339 C 179.497 323.335,180.191 372.607,179.225 373.771 C 178.726 374.371,178.018 374.446,173.909 374.332 C 168.533 374.182,168.416 374.114,168.406 371.129 C 168.398 368.615,167.673 368.533,164.456 370.686 C 161.961 372.355,160.393 373.169,156.807 374.656 C 154.634 375.558,144.789 375.632,141.670 374.771 C 126.623 370.615,126.118 348.222,140.906 340.907 C 144.840 338.961,146.251 338.401,147.260 338.386 C 147.777 338.378,148.650 338.114,149.200 337.800 C 149.750 337.486,151.010 337.218,152.000 337.205 C 152.990 337.192,154.520 337.011,155.400 336.803 C 156.280 336.595,158.890 336.303,161.200 336.153 C 165.991 335.843,165.986 335.847,165.994 332.552 C 166.006 327.864,164.452 324.448,161.400 322.448 C 159.361 321.112,147.332 320.885,144.920 322.136 C 144.216 322.501,143.238 322.800,142.748 322.800 C 142.258 322.800,140.715 323.186,139.319 323.657 C 135.377 324.989,134.893 324.471,133.733 317.682 C 133.487 316.242,134.400 314.802,135.562 314.798 C 135.913 314.796,136.683 314.543,137.273 314.235 C 137.863 313.927,138.943 313.548,139.673 313.392 C 140.403 313.235,141.189 312.957,141.419 312.772 C 143.696 310.948,161.565 310.363,166.673 311.944 M281.600 311.765 C 283.443 312.442,285.855 313.569,286.589 314.095 C 287.984 315.095,290.400 317.522,290.400 317.923 C 290.400 318.185,290.564 318.400,290.764 318.400 C 291.125 318.400,292.207 320.492,293.249 323.200 C 294.030 325.233,294.286 373.572,293.517 374.060 C 293.233 374.240,290.913 374.391,288.362 374.394 C 283.011 374.401,282.673 374.220,282.224 371.100 C 281.906 368.888,281.624 368.804,279.658 370.335 C 278.033 371.599,276.489 372.477,274.400 373.324 C 273.630 373.636,272.195 374.231,271.210 374.646 C 268.705 375.701,257.652 375.728,255.800 374.682 C 255.140 374.310,254.402 374.004,254.160 374.002 C 253.918 374.001,252.975 373.460,252.063 372.800 C 251.152 372.140,250.231 371.600,250.016 371.600 C 249.454 371.600,246.323 367.345,245.632 365.643 C 245.245 364.689,244.998 362.282,244.903 358.544 L 244.760 352.887 246.214 350.144 C 248.974 344.938,254.592 339.600,257.310 339.600 C 257.721 339.600,258.327 339.330,258.657 339.000 C 258.987 338.670,259.796 338.400,260.455 338.400 C 261.114 338.400,262.046 338.180,262.526 337.910 C 263.563 337.329,267.541 336.874,274.400 336.553 C 280.692 336.259,280.573 336.355,280.259 331.806 C 279.904 326.657,277.972 322.800,275.750 322.800 C 275.469 322.800,275.063 322.485,274.848 322.100 C 274.260 321.050,261.637 321.086,258.171 322.148 C 249.634 324.762,250.173 324.759,249.118 322.200 C 247.451 318.154,248.013 315.074,250.491 314.683 C 251.211 314.569,252.880 314.081,254.200 313.598 C 261.396 310.966,276.647 309.945,281.600 311.765 M200.202 312.566 C 200.733 313.097,201.270 314.042,201.395 314.666 C 201.520 315.289,201.815 316.340,202.051 317.000 C 202.286 317.660,202.623 318.830,202.800 319.600 C 203.160 321.168,203.843 323.203,204.611 325.000 C 204.894 325.660,205.527 327.550,206.019 329.200 C 206.511 330.850,207.157 332.767,207.456 333.460 C 207.755 334.154,208.006 335.144,208.014 335.660 C 208.022 336.177,208.286 337.050,208.600 337.600 C 208.914 338.150,209.184 339.050,209.199 339.600 C 209.213 340.150,209.490 340.949,209.813 341.376 C 210.136 341.804,210.400 342.580,210.400 343.103 C 210.400 343.625,210.612 344.446,210.870 344.926 C 211.355 345.827,211.685 347.123,212.572 351.600 C 213.015 353.837,213.569 356.053,214.269 358.392 C 214.444 358.979,215.997 355.990,216.002 355.056 C 216.004 354.805,216.263 354.106,216.578 353.502 C 216.893 352.898,217.272 351.591,217.421 350.597 C 217.570 349.603,217.852 348.692,218.046 348.571 C 218.241 348.451,218.400 347.727,218.400 346.962 C 218.400 346.198,218.649 345.173,218.953 344.686 C 219.257 344.199,219.620 343.027,219.760 342.083 C 219.900 341.138,220.182 340.058,220.387 339.683 C 220.592 339.307,220.869 338.149,221.003 337.109 C 221.137 336.069,221.416 335.114,221.623 334.986 C 221.830 334.858,222.008 334.088,222.018 333.276 C 222.027 332.464,222.295 331.080,222.612 330.200 C 222.929 329.320,223.191 328.196,223.194 327.702 C 223.197 327.207,223.544 325.767,223.964 324.502 C 224.384 323.236,224.827 320.850,224.947 319.200 C 225.484 311.870,225.659 311.702,232.850 311.640 C 240.449 311.575,241.267 312.088,239.864 316.037 C 239.499 317.066,239.200 318.546,239.200 319.328 C 239.200 320.109,238.997 321.255,238.750 321.874 C 238.502 322.493,238.064 323.990,237.777 325.200 C 236.990 328.513,236.414 330.784,235.800 333.000 C 235.496 334.100,234.945 336.170,234.577 337.600 C 234.208 339.030,233.658 340.879,233.353 341.708 C 233.049 342.538,232.799 343.528,232.798 343.908 C 232.796 344.289,232.526 345.116,232.198 345.746 C 231.869 346.376,231.600 347.170,231.600 347.511 C 231.600 348.317,230.468 352.265,229.796 353.800 C 229.508 354.460,229.177 355.360,229.062 355.800 C 228.789 356.845,227.695 359.930,227.147 361.200 C 223.577 369.478,221.734 373.207,220.870 373.900 C 220.180 374.453,206.129 374.630,205.400 374.094 C 204.845 373.686,203.601 370.920,203.598 370.086 C 203.596 369.709,203.326 368.884,202.998 368.254 C 202.669 367.624,202.400 366.889,202.400 366.622 C 202.400 365.806,200.786 360.669,200.174 359.538 C 199.858 358.954,199.594 358.054,199.587 357.538 C 199.580 357.022,199.310 356.251,198.987 355.824 C 198.664 355.396,198.394 354.496,198.387 353.824 C 198.380 353.151,198.110 352.251,197.787 351.824 C 197.464 351.396,197.200 350.397,197.200 349.604 C 197.200 348.810,197.030 347.989,196.823 347.780 C 196.616 347.571,196.264 346.680,196.041 345.800 C 194.947 341.470,194.666 340.501,194.154 339.286 C 193.849 338.564,193.599 337.664,193.598 337.286 C 193.596 336.909,193.326 336.084,192.998 335.454 C 192.669 334.824,192.400 334.089,192.400 333.822 C 192.400 333.145,190.836 327.952,190.377 327.105 C 190.169 326.723,189.994 326.183,189.986 325.905 C 189.979 325.627,189.625 324.680,189.200 323.800 C 188.775 322.920,188.415 321.750,188.399 321.200 C 188.384 320.650,188.114 319.750,187.800 319.200 C 187.486 318.650,187.222 317.745,187.214 317.189 C 187.206 316.633,186.918 315.776,186.574 315.284 C 185.657 313.975,185.973 312.294,187.200 311.956 C 190.129 311.147,199.210 311.573,200.202 312.566 M300.574 312.390 C 301.138 312.605,301.600 313.089,301.600 313.466 C 301.600 314.045,301.730 314.012,302.437 313.252 C 303.930 311.650,304.979 312.238,305.123 314.757 C 305.258 317.126,304.796 318.026,303.848 317.240 C 303.388 316.858,303.088 316.863,302.441 317.267 C 301.821 317.654,301.507 317.667,301.159 317.319 C 300.810 316.970,300.511 316.973,299.936 317.329 C 298.974 317.925,298.441 317.211,298.346 315.200 C 298.285 313.913,298.261 313.945,298.040 315.600 C 297.701 318.145,296.018 318.272,295.400 315.800 C 295.180 314.920,294.850 313.967,294.666 313.682 C 293.740 312.251,297.845 311.353,300.574 312.390 M157.542 345.791 C 157.437 345.896,155.922 346.189,154.175 346.442 C 147.193 347.453,144.272 350.281,144.259 356.041 C 144.238 365.887,155.234 368.416,164.577 360.715 L 166.000 359.542 165.995 353.471 C 165.987 345.011,166.314 345.600,161.620 345.600 C 159.482 345.600,157.647 345.686,157.542 345.791 M271.950 345.783 C 271.849 345.884,270.424 346.169,268.783 346.417 C 258.877 347.912,254.554 356.821,260.735 363.002 C 263.713 365.980,273.014 365.716,275.617 362.580 C 275.881 362.261,276.308 362.000,276.566 362.000 C 276.823 362.000,277.674 361.396,278.457 360.657 L 279.881 359.314 280.095 352.969 C 280.212 349.480,280.219 346.394,280.111 346.113 C 279.922 345.620,272.416 345.317,271.950 345.783 " stroke="none" fill="#f3f3f3" fill-rule="evenodd"></path><path id="path1" d="M271.000 150.252 C 270.340 150.356,269.233 150.702,268.540 151.021 C 267.846 151.339,266.901 151.600,266.440 151.600 C 265.978 151.600,265.600 151.786,265.600 152.013 C 265.600 152.240,265.195 152.604,264.700 152.821 C 263.935 153.158,263.980 153.178,265.000 152.956 C 267.992 152.305,273.326 152.336,274.968 153.013 C 282.250 156.020,284.739 158.400,286.839 164.363 C 290.419 174.533,281.420 186.968,262.200 198.406 C 261.320 198.929,260.505 199.493,260.389 199.659 C 260.272 199.825,259.732 200.138,259.189 200.355 C 258.223 200.740,258.230 200.750,259.476 200.775 C 260.178 200.789,260.854 200.636,260.978 200.435 C 261.103 200.234,261.968 199.944,262.902 199.790 C 263.836 199.636,264.780 199.377,265.000 199.216 C 265.220 199.054,266.390 198.610,267.600 198.229 C 269.505 197.629,277.043 194.101,279.400 192.706 C 280.188 192.240,284.220 189.662,285.000 189.125 C 288.425 186.771,293.638 181.023,295.270 177.800 C 297.407 173.584,297.400 173.613,297.400 168.632 C 297.400 156.170,285.594 147.950,271.000 150.252 M157.400 153.243 C 156.740 153.448,155.030 153.781,153.600 153.983 C 149.876 154.508,146.418 155.219,144.800 155.793 C 144.030 156.066,141.600 156.871,139.400 157.582 C 135.042 158.990,132.183 160.162,127.561 162.431 C 125.287 163.548,124.350 164.293,123.399 165.745 L 122.659 166.875 124.046 168.184 C 124.809 168.904,125.876 169.629,126.417 169.796 C 126.958 169.962,127.580 170.237,127.800 170.407 C 128.370 170.846,134.333 172.222,138.800 172.945 C 156.751 175.849,195.051 175.876,217.000 172.999 C 232.604 170.954,233.661 170.795,234.435 170.381 C 234.827 170.172,235.564 169.997,236.074 169.994 C 238.485 169.979,244.365 168.112,247.079 166.500 C 248.652 165.565,250.133 164.800,250.370 164.800 C 250.606 164.800,250.800 164.512,250.800 164.159 C 250.800 163.421,247.545 163.591,241.856 164.627 C 240.127 164.942,238.072 165.200,237.290 165.200 C 236.509 165.200,234.323 165.462,232.435 165.782 C 214.332 168.848,162.843 170.409,151.400 168.239 C 138.764 165.843,138.271 162.626,149.800 157.788 C 150.460 157.511,151.450 157.090,152.000 156.853 C 153.710 156.116,156.537 155.152,158.000 154.808 C 159.325 154.496,161.219 153.876,163.000 153.171 C 164.159 152.712,158.887 152.779,157.400 153.243 M153.000 184.931 C 147.867 186.944,143.626 190.856,144.181 193.068 C 144.785 195.475,149.622 198.644,154.700 199.960 C 160.602 201.489,164.954 202.400,166.357 202.400 C 167.040 202.400,169.265 202.702,171.300 203.072 C 176.580 204.031,202.216 204.018,208.370 203.053 C 210.664 202.694,213.176 202.400,213.953 202.400 C 215.856 202.400,225.185 200.959,230.800 199.799 C 235.100 198.910,239.761 197.775,242.767 196.886 C 244.325 196.426,244.175 195.706,242.326 194.763 C 240.837 194.004,238.120 192.153,236.517 190.806 C 235.883 190.273,231.766 190.283,230.764 190.819 C 230.333 191.050,228.500 191.396,226.691 191.589 C 222.760 192.008,217.897 192.679,214.600 193.257 C 209.998 194.064,192.670 195.121,187.000 194.941 C 175.579 194.577,160.866 193.120,158.400 192.108 C 156.095 191.162,155.837 190.979,154.927 189.644 C 154.037 188.338,154.115 187.165,155.229 185.100 C 155.682 184.260,154.870 184.198,153.000 184.931 M157.494 215.044 C 150.269 218.832,150.743 223.531,158.741 227.419 C 164.012 229.981,172.327 232.400,175.866 232.400 C 176.710 232.400,178.660 232.667,180.200 232.993 C 184.208 233.842,205.039 233.847,209.465 233.000 C 211.189 232.670,213.204 232.400,213.943 232.400 C 215.193 232.400,218.851 231.708,222.600 230.762 C 223.480 230.540,225.010 230.174,226.000 229.949 C 226.990 229.724,228.367 229.284,229.060 228.970 C 229.754 228.657,230.678 228.400,231.115 228.400 C 231.551 228.400,232.424 228.131,233.054 227.802 C 233.684 227.474,234.560 227.198,235.000 227.190 C 235.440 227.181,236.149 226.910,236.576 226.587 C 237.004 226.264,237.651 226.000,238.014 226.000 C 239.171 226.000,240.290 224.475,239.354 224.174 C 238.940 224.040,235.875 222.573,232.544 220.914 C 229.213 219.256,226.280 218.027,226.026 218.184 C 225.516 218.499,220.271 219.431,215.600 220.037 C 213.950 220.251,211.880 220.621,211.000 220.860 C 208.617 221.507,184.121 221.777,179.101 221.212 C 176.845 220.958,173.470 220.597,171.600 220.409 C 165.035 219.749,160.984 217.750,161.270 215.311 C 161.446 213.803,160.050 213.704,157.494 215.044 M131.200 232.477 C 126.390 233.056,118.784 235.134,114.600 237.013 C 113.940 237.309,112.527 237.935,111.461 238.404 C 95.368 245.475,99.524 252.605,121.000 254.773 C 122.540 254.928,124.880 255.261,126.200 255.513 C 131.860 256.594,144.160 257.852,154.200 258.377 C 158.380 258.596,163.690 258.991,166.000 259.254 C 171.596 259.893,202.331 259.894,208.000 259.255 C 210.310 258.995,215.350 258.597,219.200 258.370 C 229.077 257.788,239.313 256.596,244.857 255.382 C 246.319 255.062,248.051 254.800,248.707 254.800 C 249.363 254.800,250.665 254.530,251.600 254.200 C 252.535 253.870,253.797 253.600,254.404 253.600 C 255.011 253.600,256.384 253.342,257.454 253.027 C 258.524 252.711,261.200 251.983,263.400 251.408 C 265.600 250.833,268.120 250.173,269.000 249.941 C 269.880 249.709,271.167 249.267,271.860 248.960 C 272.554 248.652,273.304 248.400,273.528 248.400 C 273.752 248.400,274.445 248.139,275.068 247.820 C 275.690 247.500,277.065 246.825,278.123 246.320 C 281.605 244.654,282.138 244.300,284.078 242.360 C 286.170 240.268,286.472 239.092,285.354 237.386 C 284.539 236.142,283.600 236.107,283.600 237.320 C 283.600 238.444,281.617 241.600,280.911 241.600 C 280.630 241.600,280.400 241.735,280.400 241.901 C 280.400 242.769,273.370 245.405,267.639 246.685 C 263.867 247.528,259.606 248.306,255.000 248.992 C 252.800 249.320,250.100 249.760,249.000 249.970 C 247.900 250.180,245.920 250.367,244.600 250.386 C 243.280 250.404,241.436 250.596,240.502 250.811 C 239.569 251.027,235.879 251.380,232.302 251.597 C 228.726 251.814,224.090 252.195,222.000 252.443 C 216.643 253.081,162.212 253.097,157.600 252.463 C 155.730 252.206,151.886 251.816,149.058 251.596 C 146.231 251.376,143.780 251.111,143.613 251.008 C 143.446 250.905,141.619 250.629,139.555 250.395 C 137.490 250.162,135.170 249.808,134.400 249.609 C 133.630 249.410,131.650 248.957,130.000 248.602 C 119.656 246.382,115.740 243.521,118.823 240.439 C 120.291 238.970,128.750 234.800,130.260 234.800 C 130.608 234.800,131.727 234.532,132.746 234.204 C 133.766 233.876,135.455 233.505,136.500 233.379 C 137.780 233.225,138.400 232.963,138.400 232.575 C 138.400 231.913,136.143 231.882,131.200 232.477 M296.200 250.491 C 295.760 250.733,295.310 251.037,295.200 251.166 C 294.886 251.533,292.015 253.116,289.600 254.253 C 288.390 254.822,287.087 255.449,286.705 255.644 C 285.427 256.299,279.851 258.205,275.200 259.578 C 273.550 260.065,271.570 260.662,270.800 260.905 C 270.030 261.149,268.590 261.486,267.600 261.655 C 264.557 262.175,261.495 262.835,259.365 263.431 C 258.246 263.744,256.716 264.006,255.965 264.014 C 255.214 264.022,253.520 264.289,252.200 264.608 C 250.880 264.927,249.096 265.190,248.235 265.194 C 247.373 265.197,245.123 265.462,243.235 265.782 C 225.625 268.764,182.824 270.157,163.400 268.379 C 160.980 268.157,156.930 267.810,154.400 267.607 C 151.870 267.404,148.339 267.021,146.554 266.756 C 143.011 266.228,140.496 266.628,143.400 267.257 C 144.280 267.448,145.360 267.771,145.800 267.975 C 146.875 268.475,155.617 269.863,163.200 270.738 C 173.980 271.983,179.722 272.200,201.800 272.200 C 229.679 272.200,237.551 271.691,257.000 268.630 C 262.588 267.750,271.177 265.908,271.967 265.420 C 272.206 265.272,273.257 265.001,274.301 264.817 C 275.345 264.633,276.830 264.255,277.600 263.976 C 288.118 260.172,293.317 256.913,296.273 252.271 C 297.387 250.521,297.360 249.851,296.200 250.491 M109.047 291.422 C 108.911 291.776,108.800 309.452,108.800 330.702 C 108.800 373.359,108.789 373.579,106.306 378.672 C 104.904 381.546,98.663 388.000,97.285 388.000 C 96.953 388.000,96.400 388.880,96.400 389.408 C 96.400 389.561,99.027 392.700,100.624 394.456 C 103.319 397.419,116.635 387.301,118.596 380.800 C 118.762 380.250,119.033 379.620,119.197 379.400 C 120.897 377.130,121.000 374.419,121.000 331.800 L 121.000 291.000 115.147 290.890 C 110.073 290.794,109.261 290.865,109.047 291.422 M148.000 312.433 C 145.910 312.829,143.030 313.508,141.600 313.940 C 140.170 314.373,138.352 314.924,137.560 315.166 C 135.120 315.909,134.700 316.689,135.170 319.603 C 135.646 322.560,136.509 323.784,137.679 323.158 C 143.567 320.006,158.026 319.302,162.400 321.953 C 165.849 324.044,168.138 332.201,166.469 336.453 L 166.055 337.506 159.328 337.701 C 152.507 337.899,149.673 338.365,144.688 340.108 C 143.416 340.552,142.280 341.070,142.164 341.258 C 142.048 341.446,141.603 341.600,141.176 341.600 C 140.749 341.600,140.400 341.768,140.400 341.973 C 140.400 342.178,140.045 342.459,139.611 342.596 C 133.125 344.655,129.075 358.406,132.717 366.002 C 137.598 376.179,151.920 377.864,164.328 369.720 C 168.257 367.141,168.644 367.186,169.017 370.275 C 169.416 373.571,169.462 373.600,174.204 373.600 L 178.311 373.600 178.591 372.108 C 179.283 368.418,178.372 325.117,177.554 322.857 C 174.193 313.564,162.947 309.597,148.000 312.433 M264.875 312.022 C 264.367 312.226,262.747 312.562,261.275 312.769 C 257.840 313.252,251.880 315.073,249.751 316.289 C 248.840 316.809,248.871 317.395,250.030 321.536 C 250.568 323.460,250.205 323.407,254.600 322.208 C 272.739 317.261,281.271 320.674,281.369 332.914 C 281.407 337.767,281.670 337.578,274.800 337.623 C 271.830 337.643,268.500 337.805,267.400 337.984 C 263.333 338.646,260.792 339.252,259.710 339.816 C 259.100 340.134,258.403 340.396,258.163 340.398 C 257.923 340.399,256.933 340.848,255.963 341.395 C 254.993 341.942,253.930 342.507,253.600 342.651 C 251.087 343.747,246.937 349.772,246.060 353.600 C 243.173 366.187,250.978 375.260,264.200 374.689 C 269.901 374.442,277.004 371.906,279.600 369.191 C 281.680 367.015,282.592 367.397,283.519 370.833 L 284.210 373.400 288.245 373.513 C 293.917 373.673,293.393 376.510,292.944 348.082 L 292.562 323.800 291.476 321.478 C 288.328 314.743,281.752 311.573,271.036 311.625 C 268.156 311.639,265.384 311.818,264.875 312.022 M187.524 313.010 C 187.279 313.254,187.779 315.935,188.380 317.600 C 188.578 318.150,189.130 319.950,189.605 321.600 C 190.081 323.250,190.724 325.167,191.035 325.860 C 191.346 326.554,191.600 327.553,191.600 328.080 C 191.600 328.608,191.770 329.211,191.977 329.420 C 192.184 329.629,192.537 330.520,192.761 331.400 C 193.609 334.740,194.354 337.166,194.769 337.943 C 195.006 338.385,195.200 339.113,195.200 339.560 C 195.200 340.007,195.451 340.964,195.757 341.686 C 196.270 342.897,196.734 344.412,198.608 351.000 C 198.984 352.320,199.788 354.930,200.396 356.800 C 201.003 358.670,201.815 361.280,202.199 362.600 C 202.583 363.920,203.145 365.591,203.449 366.314 C 203.752 367.036,204.006 367.936,204.013 368.314 C 204.020 368.691,204.368 369.990,204.785 371.200 L 205.545 373.400 213.053 373.400 L 220.561 373.400 221.250 372.000 C 221.904 370.670,222.967 368.287,224.283 365.200 C 224.611 364.430,225.126 363.260,225.426 362.600 C 225.727 361.940,226.089 360.903,226.231 360.296 C 226.372 359.689,226.649 359.094,226.844 358.973 C 227.040 358.852,227.201 358.448,227.202 358.076 C 227.204 357.704,227.457 356.917,227.765 356.327 C 228.073 355.737,228.449 354.690,228.600 354.000 C 228.751 353.310,229.127 352.263,229.435 351.673 C 229.743 351.083,229.996 350.354,229.998 350.054 C 230.000 349.506,231.035 346.103,231.655 344.600 C 231.837 344.160,232.160 343.080,232.372 342.200 C 232.584 341.320,233.140 339.340,233.608 337.800 C 234.075 336.260,234.592 334.280,234.758 333.400 C 234.923 332.520,235.259 331.170,235.504 330.400 C 235.749 329.630,236.149 328.100,236.394 327.000 C 236.638 325.900,237.104 323.920,237.429 322.600 C 238.218 319.391,239.154 313.474,238.931 313.100 C 238.833 312.935,236.067 312.800,232.784 312.800 C 226.036 312.800,226.627 312.473,226.266 316.400 C 226.023 319.051,224.570 326.817,223.536 331.000 C 223.318 331.880,222.989 333.410,222.804 334.400 C 222.620 335.390,222.298 336.650,222.089 337.200 C 221.880 337.750,221.584 339.051,221.431 340.091 C 221.279 341.131,220.984 342.086,220.777 342.214 C 220.570 342.342,220.400 342.766,220.400 343.156 C 220.400 343.546,220.030 345.111,219.577 346.633 C 219.125 348.155,218.478 350.390,218.140 351.600 C 217.802 352.810,217.273 354.367,216.963 355.060 C 216.653 355.754,216.400 356.552,216.400 356.834 C 216.400 357.606,214.779 360.800,214.387 360.800 C 213.857 360.800,211.195 351.166,211.199 349.260 C 211.200 348.964,210.955 348.154,210.656 347.460 C 209.943 345.805,208.387 340.739,208.394 340.095 C 208.397 339.817,208.233 339.277,208.028 338.895 C 207.824 338.513,207.265 336.850,206.785 335.200 C 206.306 333.550,205.663 331.609,205.357 330.886 C 205.051 330.164,204.800 329.277,204.800 328.915 C 204.800 328.554,204.289 326.805,203.664 325.029 C 203.040 323.253,202.210 320.720,201.822 319.400 C 201.433 318.080,200.799 316.100,200.414 315.000 L 199.712 313.000 193.733 312.890 C 190.444 312.829,187.650 312.883,187.524 313.010 M166.320 345.280 C 166.657 345.617,166.800 347.845,166.800 352.741 L 166.800 359.723 165.236 361.161 C 156.860 368.865,144.482 367.398,143.379 358.571 C 142.195 349.092,147.348 344.940,160.420 344.841 C 164.151 344.813,165.990 344.950,166.320 345.280 M281.175 345.733 C 282.074 348.098,281.158 359.581,279.976 360.763 C 278.676 362.062,273.516 365.200,272.679 365.200 C 272.359 365.200,271.451 365.470,270.662 365.800 C 266.594 367.500,258.400 364.452,258.400 361.239 C 258.400 360.866,258.175 360.335,257.900 360.060 C 256.202 358.362,257.778 350.986,260.322 348.729 C 264.315 345.184,280.103 342.916,281.175 345.733 " stroke="none" fill="#5b869e" fill-rule="evenodd"></path><path id="path2" d="M228.137 12.218 C 228.457 17.455,227.821 24.861,226.806 27.704 C 225.088 32.521,224.439 33.993,222.793 36.823 C 219.332 42.771,213.533 49.415,206.600 55.378 C 204.620 57.080,202.550 58.872,202.000 59.358 C 201.450 59.844,199.470 61.394,197.600 62.801 C 195.730 64.208,193.390 66.032,192.400 66.855 C 191.410 67.677,188.800 69.812,186.600 71.600 C 177.174 79.257,170.099 87.080,167.095 93.167 L 165.400 96.600 165.400 102.000 C 165.400 110.123,169.278 118.840,176.659 127.305 C 181.708 133.096,182.913 134.403,186.800 138.304 C 190.668 142.186,196.187 147.200,196.591 147.200 C 196.998 147.200,194.398 142.681,191.874 139.000 C 180.483 122.389,178.235 117.345,178.234 108.400 C 178.233 100.704,180.380 95.098,186.191 87.618 C 187.430 86.022,195.188 78.367,197.359 76.597 C 198.436 75.719,200.146 74.310,201.159 73.467 C 202.171 72.624,203.900 71.191,205.000 70.281 C 207.114 68.534,216.707 59.035,218.413 57.000 C 222.928 51.615,229.593 41.158,229.602 39.444 C 229.604 39.200,229.839 38.550,230.125 38.000 C 233.449 31.611,233.795 18.605,230.811 12.223 C 230.145 10.799,229.600 9.489,229.600 9.313 C 229.600 9.137,229.211 8.750,228.737 8.453 L 227.873 7.914 228.137 12.218 M248.317 63.016 C 248.093 63.241,244.549 64.625,242.787 65.177 C 234.973 67.624,220.188 76.261,213.046 82.552 C 202.439 91.896,197.894 105.552,202.226 115.060 C 202.542 115.754,202.800 116.523,202.800 116.769 C 202.800 118.708,209.034 128.741,212.803 132.868 C 218.253 138.835,218.829 146.167,214.539 154.954 C 212.537 159.054,221.955 151.428,225.736 145.887 C 229.063 141.013,231.056 131.867,229.312 129.477 C 229.120 129.215,228.533 127.926,228.008 126.613 C 227.482 125.300,226.046 122.870,224.818 121.213 C 219.274 113.733,217.188 110.193,215.526 105.450 C 212.932 98.045,217.378 89.040,228.092 79.996 C 229.692 78.646,231.360 77.224,231.800 76.836 C 232.686 76.054,234.433 74.820,241.094 70.270 C 243.566 68.581,245.695 67.200,245.825 67.200 C 246.032 67.200,250.372 64.025,251.380 63.135 C 251.593 62.948,251.050 62.800,250.147 62.800 C 249.259 62.800,248.436 62.897,248.317 63.016 " stroke="none" fill="#f19b2b" fill-rule="evenodd"></path><path id="path3" d="M272.000 149.184 C 271.670 149.406,270.780 149.591,270.023 149.594 C 268.441 149.601,262.858 152.184,262.520 153.065 C 262.116 154.118,262.924 154.371,265.400 153.968 C 271.003 153.056,271.670 153.069,274.928 154.163 C 283.811 157.145,288.668 166.441,285.412 174.232 C 285.076 175.038,284.800 175.940,284.800 176.237 C 284.800 178.065,278.327 185.767,274.123 188.941 C 272.760 189.970,271.402 191.034,271.106 191.306 C 270.809 191.578,270.283 191.980,269.936 192.200 C 269.590 192.420,268.241 193.331,266.939 194.224 C 265.637 195.118,264.308 195.975,263.986 196.129 C 263.664 196.283,262.860 196.761,262.200 197.192 C 261.540 197.622,260.417 198.240,259.704 198.565 C 258.104 199.294,256.400 200.954,256.400 201.782 C 256.400 202.478,258.195 202.656,258.600 202.000 C 258.736 201.780,259.432 201.600,260.147 201.600 C 260.862 201.600,261.796 201.336,262.224 201.013 C 262.651 200.690,263.450 200.419,264.000 200.410 C 264.550 200.402,265.516 200.126,266.146 199.798 C 266.776 199.469,267.559 199.200,267.885 199.200 C 268.577 199.200,270.650 198.338,273.200 196.990 C 274.190 196.467,276.080 195.484,277.400 194.807 C 278.720 194.129,280.340 193.223,281.000 192.792 C 281.660 192.361,282.470 191.887,282.800 191.738 C 284.840 190.818,294.000 182.492,294.000 181.558 C 294.000 181.392,294.232 181.019,294.516 180.729 C 295.159 180.069,297.752 174.691,298.353 172.772 C 298.908 170.997,298.942 165.335,298.400 165.000 C 298.180 164.864,298.000 164.238,298.000 163.609 C 298.000 161.697,296.033 158.406,293.195 155.567 C 290.757 153.129,289.396 152.263,285.000 150.350 C 282.698 149.348,273.043 148.482,272.000 149.184 M284.283 151.137 C 292.835 154.130,297.400 160.218,297.400 168.632 C 297.400 173.613,297.407 173.584,295.270 177.800 C 293.638 181.023,288.425 186.771,285.000 189.125 C 284.220 189.662,280.188 192.240,279.400 192.706 C 277.043 194.101,269.505 197.629,267.600 198.229 C 266.390 198.610,265.220 199.054,265.000 199.216 C 264.780 199.377,263.836 199.636,262.902 199.790 C 261.968 199.944,261.103 200.234,260.978 200.435 C 260.854 200.636,260.178 200.789,259.476 200.775 C 258.230 200.750,258.223 200.740,259.189 200.355 C 259.732 200.138,260.272 199.825,260.389 199.659 C 260.505 199.493,261.320 198.929,262.200 198.406 C 287.040 183.624,294.430 167.149,281.150 156.162 C 280.158 155.342,278.233 154.361,274.968 153.013 C 273.326 152.336,267.992 152.305,265.000 152.956 C 263.980 153.178,263.935 153.158,264.700 152.821 C 265.195 152.604,265.600 152.240,265.600 152.013 C 265.600 151.786,265.978 151.600,266.440 151.600 C 266.901 151.600,267.846 151.339,268.540 151.021 C 271.218 149.790,280.634 149.859,284.283 151.137 M158.984 152.177 C 156.336 152.436,153.950 152.784,153.683 152.949 C 153.416 153.114,151.983 153.409,150.499 153.604 C 147.126 154.047,143.209 154.953,142.098 155.548 C 141.633 155.796,140.813 156.000,140.275 156.000 C 139.738 156.000,139.074 156.270,138.800 156.600 C 138.526 156.930,137.797 157.200,137.180 157.200 C 136.562 157.200,135.787 157.470,135.457 157.800 C 135.127 158.130,134.416 158.400,133.878 158.400 C 133.339 158.400,132.674 158.670,132.400 159.000 C 132.126 159.330,131.674 159.600,131.395 159.600 C 128.576 159.600,122.400 164.461,122.400 166.680 C 122.400 168.142,124.300 170.400,125.530 170.400 C 125.734 170.400,126.126 170.670,126.400 171.000 C 126.674 171.330,127.371 171.606,127.949 171.614 C 128.527 171.622,129.450 171.886,130.000 172.200 C 130.550 172.514,131.553 172.778,132.229 172.786 C 132.905 172.794,134.255 173.052,135.229 173.359 C 141.871 175.457,172.709 177.007,188.000 176.010 C 191.850 175.760,198.060 175.466,201.800 175.357 C 205.540 175.249,209.248 174.989,210.040 174.781 C 210.833 174.572,213.533 174.228,216.040 174.016 C 218.548 173.804,221.229 173.444,221.997 173.215 C 222.766 172.987,224.588 172.800,226.047 172.800 C 227.506 172.800,229.465 172.530,230.400 172.200 C 231.335 171.870,232.894 171.600,233.863 171.600 C 234.833 171.600,236.272 171.330,237.062 171.000 C 237.851 170.670,239.161 170.400,239.972 170.400 C 240.783 170.400,241.796 170.136,242.224 169.813 C 242.651 169.490,243.473 169.220,244.051 169.213 C 244.629 169.206,245.311 168.948,245.567 168.639 C 245.823 168.331,246.475 167.967,247.016 167.832 C 247.557 167.696,248.000 167.408,248.000 167.192 C 248.000 166.977,248.211 166.800,248.469 166.800 C 248.726 166.800,249.243 166.523,249.618 166.184 C 249.992 165.845,251.264 165.080,252.444 164.484 C 253.624 163.888,254.546 163.220,254.493 163.000 C 254.273 162.091,242.969 162.950,236.400 164.375 C 235.410 164.589,233.614 164.773,232.409 164.783 C 231.204 164.792,228.864 165.063,227.209 165.385 C 222.250 166.348,217.516 166.781,207.200 167.215 C 201.810 167.441,196.230 167.814,194.800 168.044 C 187.625 169.195,150.817 167.962,148.126 166.481 C 147.646 166.216,146.857 166.000,146.374 166.000 C 145.117 166.000,142.800 164.463,142.800 163.629 C 142.800 162.853,143.993 161.600,144.731 161.600 C 144.989 161.600,145.200 161.434,145.200 161.231 C 145.200 161.028,145.830 160.654,146.600 160.400 C 147.370 160.146,148.000 159.772,148.000 159.569 C 148.000 159.366,148.271 159.200,148.601 159.200 C 148.932 159.200,149.875 158.840,150.696 158.400 C 151.516 157.960,152.395 157.600,152.648 157.600 C 152.901 157.600,153.624 157.331,154.254 157.002 C 154.884 156.674,155.769 156.404,156.220 156.402 C 156.671 156.401,157.211 156.237,157.420 156.038 C 157.792 155.683,161.118 154.686,164.101 154.035 C 164.927 153.855,166.076 153.233,166.656 152.654 L 167.709 151.600 165.755 151.653 C 164.680 151.682,161.633 151.918,158.984 152.177 M163.000 153.171 C 161.219 153.876,159.325 154.496,158.000 154.808 C 156.537 155.152,153.710 156.116,152.000 156.853 C 151.450 157.090,150.460 157.511,149.800 157.788 C 138.271 162.626,138.764 165.843,151.400 168.239 C 162.843 170.409,214.332 168.848,232.435 165.782 C 234.323 165.462,236.509 165.200,237.290 165.200 C 238.072 165.200,240.127 164.942,241.856 164.627 C 247.545 163.591,250.800 163.421,250.800 164.159 C 250.800 164.512,250.606 164.800,250.370 164.800 C 250.133 164.800,248.652 165.565,247.079 166.500 C 244.365 168.112,238.485 169.979,236.074 169.994 C 235.564 169.997,234.827 170.172,234.435 170.381 C 233.661 170.795,232.604 170.954,217.000 172.999 C 195.051 175.876,156.751 175.849,138.800 172.945 C 134.333 172.222,128.370 170.846,127.800 170.407 C 127.580 170.237,126.958 169.962,126.417 169.796 C 125.876 169.629,124.809 168.904,124.046 168.184 L 122.659 166.875 123.399 165.745 C 124.350 164.293,125.287 163.548,127.561 162.431 C 132.183 160.162,135.042 158.990,139.400 157.582 C 141.600 156.871,144.030 156.066,144.800 155.793 C 146.418 155.219,149.876 154.508,153.600 153.983 C 155.030 153.781,156.740 153.448,157.400 153.243 C 158.887 152.779,164.159 152.712,163.000 153.171 M154.340 183.167 C 153.318 183.534,152.238 184.024,151.940 184.255 C 151.643 184.487,151.130 184.801,150.800 184.954 C 148.811 185.874,146.256 187.706,144.900 189.184 C 143.035 191.217,143.035 193.867,144.900 195.854 C 146.276 197.320,151.864 200.400,153.148 200.400 C 153.566 200.400,154.424 200.669,155.054 200.998 C 155.684 201.326,156.672 201.596,157.250 201.598 C 157.827 201.599,159.065 201.870,160.000 202.200 C 160.935 202.530,162.353 202.802,163.150 202.805 C 163.948 202.807,165.590 203.075,166.800 203.400 C 168.010 203.725,170.035 203.993,171.300 203.995 C 172.565 203.998,175.203 204.277,177.162 204.615 C 183.037 205.629,200.269 205.106,211.600 203.571 C 213.250 203.347,216.220 203.005,218.200 202.811 C 220.180 202.616,222.307 202.264,222.926 202.028 C 223.545 201.793,225.126 201.600,226.439 201.600 C 227.752 201.600,229.472 201.330,230.262 201.000 C 231.051 200.670,232.204 200.400,232.823 200.400 C 233.442 200.400,234.455 200.188,235.074 199.930 C 236.225 199.449,239.033 198.712,242.600 197.954 C 245.603 197.316,246.797 195.623,244.700 194.976 C 244.205 194.824,242.284 193.687,240.431 192.449 C 235.228 188.975,235.870 189.164,231.589 189.841 C 229.505 190.171,226.262 190.585,224.383 190.762 C 222.503 190.939,220.073 191.285,218.983 191.532 C 209.771 193.616,176.175 194.521,170.495 192.839 C 169.777 192.627,167.257 192.328,164.895 192.175 C 162.533 192.023,160.420 191.762,160.200 191.595 C 159.980 191.429,159.197 191.163,158.459 191.005 C 155.442 190.360,154.647 187.840,156.568 185.009 C 158.241 182.544,157.585 182.001,154.340 183.167 M155.229 185.100 C 154.115 187.165,154.037 188.338,154.927 189.644 C 155.837 190.979,156.095 191.162,158.400 192.108 C 160.866 193.120,175.579 194.577,187.000 194.941 C 192.670 195.121,209.998 194.064,214.600 193.257 C 217.897 192.679,222.760 192.008,226.691 191.589 C 228.500 191.396,230.333 191.050,230.764 190.819 C 231.766 190.283,235.883 190.273,236.517 190.806 C 238.120 192.153,240.837 194.004,242.326 194.763 C 244.175 195.706,244.325 196.426,242.767 196.886 C 239.761 197.775,235.100 198.910,230.800 199.799 C 225.185 200.959,215.856 202.400,213.953 202.400 C 213.176 202.400,210.664 202.694,208.370 203.053 C 202.216 204.018,176.580 204.031,171.300 203.072 C 169.265 202.702,167.040 202.400,166.357 202.400 C 164.954 202.400,160.602 201.489,154.700 199.960 C 147.378 198.062,142.836 193.933,144.701 190.867 C 146.580 187.776,156.807 182.175,155.229 185.100 M158.049 213.856 C 150.771 217.330,149.359 221.696,154.153 225.905 C 155.618 227.192,159.294 229.200,160.184 229.200 C 160.469 229.200,160.926 229.470,161.200 229.800 C 161.474 230.130,162.182 230.400,162.773 230.400 C 163.364 230.400,164.196 230.664,164.624 230.987 C 165.051 231.310,165.997 231.580,166.726 231.587 C 167.456 231.594,168.446 231.812,168.926 232.071 C 173.655 234.623,206.012 235.546,214.384 233.368 C 215.585 233.056,217.295 232.794,218.184 232.786 C 219.073 232.778,220.250 232.514,220.800 232.200 C 221.350 231.886,222.394 231.622,223.120 231.614 C 223.846 231.606,224.926 231.354,225.520 231.053 C 226.114 230.753,227.297 230.381,228.149 230.226 C 229.001 230.072,229.991 229.797,230.349 229.617 C 230.707 229.436,232.350 228.876,234.000 228.372 C 238.181 227.095,241.046 225.777,241.347 224.993 C 241.637 224.238,241.355 223.600,240.732 223.600 C 240.124 223.600,228.848 218.001,228.579 217.565 C 228.226 216.995,225.328 217.136,223.738 217.800 C 222.949 218.130,221.559 218.404,220.651 218.410 C 219.743 218.415,218.280 218.605,217.400 218.832 C 211.350 220.394,187.272 221.458,182.400 220.378 C 181.190 220.110,177.770 219.749,174.800 219.577 C 164.664 218.988,161.004 217.258,162.902 213.952 C 163.454 212.989,163.458 212.831,162.932 212.629 C 161.863 212.219,161.047 212.424,158.049 213.856 M161.270 215.311 C 160.984 217.750,165.035 219.749,171.600 220.409 C 173.470 220.597,176.845 220.958,179.101 221.212 C 184.121 221.777,208.617 221.507,211.000 220.860 C 211.880 220.621,213.950 220.251,215.600 220.037 C 220.271 219.431,225.516 218.499,226.026 218.184 C 226.280 218.027,229.213 219.256,232.544 220.914 C 235.875 222.573,238.940 224.040,239.354 224.174 C 240.290 224.475,239.171 226.000,238.014 226.000 C 237.651 226.000,237.004 226.264,236.576 226.587 C 236.149 226.910,235.440 227.181,235.000 227.190 C 234.560 227.198,233.684 227.474,233.054 227.802 C 232.424 228.131,231.551 228.400,231.115 228.400 C 230.678 228.400,229.754 228.657,229.060 228.970 C 228.367 229.284,226.990 229.724,226.000 229.949 C 225.010 230.174,223.480 230.540,222.600 230.762 C 218.851 231.708,215.193 232.400,213.943 232.400 C 213.204 232.400,211.189 232.670,209.465 233.000 C 205.039 233.847,184.208 233.842,180.200 232.993 C 178.660 232.667,176.710 232.400,175.866 232.400 C 172.327 232.400,164.012 229.981,158.741 227.419 C 150.743 223.531,150.269 218.832,157.494 215.044 C 160.050 213.704,161.446 213.803,161.270 215.311 M129.600 231.801 C 128.390 232.088,126.665 232.340,125.767 232.361 C 124.868 232.383,123.998 232.535,123.834 232.700 C 123.669 232.865,122.694 233.205,121.667 233.457 C 119.726 233.932,117.891 234.554,115.740 235.466 C 115.046 235.760,114.336 236.000,114.162 236.000 C 113.608 236.000,107.806 238.917,107.667 239.265 C 107.593 239.449,107.377 239.600,107.187 239.600 C 105.653 239.600,101.246 243.806,100.842 245.655 C 100.265 248.298,102.023 251.548,104.051 251.587 C 104.409 251.594,104.910 251.850,105.164 252.156 C 105.418 252.463,106.115 252.802,106.713 252.911 C 107.311 253.020,108.340 253.295,109.000 253.524 C 110.665 254.101,114.434 254.799,118.031 255.196 C 119.697 255.381,121.824 255.737,122.756 255.988 C 123.688 256.239,125.745 256.610,127.326 256.812 C 128.906 257.014,131.010 257.356,132.000 257.572 C 132.990 257.788,135.151 257.973,136.803 257.983 C 138.454 257.992,140.434 258.194,141.203 258.431 C 141.971 258.668,145.930 259.018,150.000 259.208 C 154.070 259.398,159.740 259.730,162.600 259.947 C 174.872 260.877,210.488 260.653,215.946 259.612 C 217.127 259.387,220.078 259.187,222.504 259.168 C 224.931 259.149,227.835 258.960,228.958 258.749 C 230.081 258.537,232.917 258.210,235.260 258.023 C 237.603 257.835,240.123 257.494,240.860 257.266 C 241.597 257.037,243.460 256.678,245.000 256.468 C 246.540 256.258,248.520 255.905,249.400 255.684 C 250.280 255.463,252.440 254.983,254.200 254.618 C 255.960 254.252,258.300 253.712,259.400 253.417 C 262.645 252.547,264.908 251.975,266.400 251.648 C 267.170 251.478,268.193 251.129,268.674 250.870 C 269.154 250.612,269.937 250.400,270.413 250.400 C 271.419 250.400,274.333 249.215,278.800 246.990 C 284.306 244.247,286.600 241.950,286.600 239.181 C 286.600 235.209,282.751 233.033,282.388 236.800 C 282.191 238.839,281.379 240.800,280.732 240.800 C 280.581 240.800,280.219 241.025,279.929 241.300 C 279.093 242.090,275.794 243.600,274.902 243.600 C 274.456 243.600,273.576 243.869,272.946 244.198 C 272.316 244.526,271.327 244.796,270.749 244.798 C 270.171 244.799,269.051 245.070,268.262 245.400 C 267.472 245.730,266.302 246.000,265.662 246.000 C 265.021 246.000,263.851 246.270,263.062 246.600 C 262.272 246.930,260.714 247.200,259.600 247.200 C 258.486 247.200,256.928 247.470,256.138 247.800 C 255.349 248.130,253.778 248.400,252.649 248.400 C 251.519 248.400,249.966 248.600,249.197 248.844 C 247.823 249.281,239.820 250.052,229.200 250.769 C 226.230 250.970,221.820 251.348,219.400 251.609 C 216.479 251.925,206.605 252.083,190.031 252.080 C 166.333 252.076,160.366 251.876,150.600 250.756 C 148.620 250.528,145.200 250.176,143.000 249.973 C 140.800 249.769,138.326 249.415,137.503 249.186 C 136.680 248.957,134.880 248.604,133.503 248.401 C 130.218 247.918,126.983 247.099,125.000 246.250 C 124.120 245.873,122.950 245.375,122.400 245.144 C 119.553 243.946,119.400 243.806,119.400 242.390 C 119.400 241.280,119.615 240.908,120.500 240.484 C 121.105 240.194,121.600 239.786,121.600 239.578 C 121.600 239.370,121.949 239.200,122.376 239.200 C 122.803 239.200,123.254 239.036,123.379 238.835 C 124.284 237.369,134.197 234.369,140.094 233.775 C 142.701 233.512,142.963 233.311,142.148 232.196 C 141.420 231.198,133.228 230.941,129.600 231.801 M138.400 232.575 C 138.400 232.963,137.780 233.225,136.500 233.379 C 135.455 233.505,133.766 233.876,132.746 234.204 C 131.727 234.532,130.608 234.800,130.260 234.800 C 128.750 234.800,120.291 238.970,118.823 240.439 C 115.740 243.521,119.656 246.382,130.000 248.602 C 131.650 248.957,133.630 249.410,134.400 249.609 C 135.170 249.808,137.490 250.162,139.555 250.395 C 141.619 250.629,143.446 250.905,143.613 251.008 C 143.780 251.111,146.231 251.376,149.058 251.596 C 151.886 251.816,155.730 252.206,157.600 252.463 C 162.212 253.097,216.643 253.081,222.000 252.443 C 224.090 252.195,228.726 251.814,232.302 251.597 C 235.879 251.380,239.569 251.027,240.502 250.811 C 241.436 250.596,243.280 250.404,244.600 250.386 C 245.920 250.367,247.900 250.180,249.000 249.970 C 250.100 249.760,252.800 249.320,255.000 248.992 C 261.893 247.965,268.761 246.580,271.839 245.597 C 276.194 244.206,277.132 243.860,278.700 243.064 C 279.635 242.590,280.400 242.066,280.400 241.901 C 280.400 241.735,280.630 241.600,280.911 241.600 C 281.617 241.600,283.600 238.444,283.600 237.320 C 283.600 236.107,284.539 236.142,285.354 237.386 C 286.472 239.092,286.170 240.268,284.078 242.360 C 282.138 244.300,281.605 244.654,278.123 246.320 C 277.065 246.825,275.690 247.500,275.068 247.820 C 274.445 248.139,273.752 248.400,273.528 248.400 C 273.304 248.400,272.554 248.652,271.860 248.960 C 271.167 249.267,269.880 249.709,269.000 249.941 C 268.120 250.173,265.600 250.833,263.400 251.408 C 261.200 251.983,258.524 252.711,257.454 253.027 C 256.384 253.342,255.011 253.600,254.404 253.600 C 253.797 253.600,252.535 253.870,251.600 254.200 C 250.665 254.530,249.363 254.800,248.707 254.800 C 248.051 254.800,246.319 255.062,244.857 255.382 C 239.313 256.596,229.077 257.788,219.200 258.370 C 215.350 258.597,210.310 258.995,208.000 259.255 C 202.331 259.894,171.596 259.893,166.000 259.254 C 163.690 258.991,158.380 258.596,154.200 258.377 C 144.160 257.852,131.860 256.594,126.200 255.513 C 124.880 255.261,122.540 254.928,121.000 254.773 C 112.793 253.944,105.851 252.057,103.100 249.906 C 99.375 246.993,102.877 242.175,111.461 238.404 C 112.527 237.935,113.940 237.309,114.600 237.013 C 118.784 235.134,126.390 233.056,131.200 232.477 C 136.143 231.882,138.400 231.913,138.400 232.575 M295.494 249.735 C 293.738 251.172,283.891 256.000,282.716 256.000 C 282.406 256.000,281.804 256.264,281.376 256.587 C 280.949 256.910,280.139 257.180,279.576 257.187 C 279.014 257.194,278.204 257.464,277.776 257.787 C 277.349 258.110,276.583 258.380,276.074 258.387 C 275.564 258.394,274.754 258.611,274.274 258.869 C 273.793 259.127,272.320 259.589,271.000 259.896 C 266.510 260.939,263.804 261.525,261.400 261.976 C 260.080 262.223,257.830 262.685,256.400 263.003 C 254.970 263.320,252.581 263.666,251.090 263.772 C 249.600 263.878,248.197 264.078,247.974 264.216 C 247.751 264.354,245.730 264.622,243.484 264.813 C 241.238 265.003,238.590 265.340,237.600 265.562 C 236.610 265.784,234.486 265.973,232.879 265.983 C 231.272 265.992,228.752 266.256,227.279 266.569 C 214.553 269.270,163.928 268.613,145.600 265.508 C 142.014 264.900,137.511 264.878,137.312 265.468 C 137.137 265.987,140.853 268.000,141.987 268.000 C 142.384 268.000,143.224 268.269,143.854 268.598 C 144.484 268.926,145.754 269.196,146.676 269.198 C 147.598 269.199,148.455 269.365,148.579 269.566 C 148.704 269.767,150.199 270.043,151.903 270.179 C 153.606 270.315,155.720 270.627,156.600 270.873 C 157.480 271.118,160.180 271.455,162.600 271.622 C 165.020 271.789,168.710 272.119,170.800 272.356 C 179.281 273.318,197.210 273.969,204.800 273.590 C 208.870 273.388,217.060 273.113,223.000 272.981 C 229.443 272.837,235.104 272.509,237.031 272.170 C 238.808 271.856,241.727 271.600,243.517 271.600 C 245.307 271.600,247.543 271.349,248.486 271.042 C 249.429 270.735,251.370 270.365,252.800 270.220 C 254.230 270.076,255.940 269.797,256.600 269.600 C 257.260 269.404,258.970 269.067,260.400 268.852 C 263.341 268.409,267.368 267.574,271.200 266.611 C 272.630 266.252,274.610 265.785,275.600 265.573 C 277.519 265.163,280.116 264.295,282.400 263.301 C 283.989 262.610,285.913 261.794,286.800 261.434 C 287.130 261.301,287.940 260.836,288.600 260.402 C 289.260 259.967,290.205 259.434,290.700 259.216 C 291.195 258.998,291.600 258.635,291.600 258.410 C 291.600 258.184,291.831 258.000,292.114 258.000 C 292.764 258.000,296.800 253.941,296.800 253.287 C 296.800 253.019,296.968 252.800,297.173 252.800 C 297.563 252.800,297.766 252.268,298.202 250.100 C 298.530 248.472,297.248 248.299,295.494 249.735 M296.273 252.271 C 293.740 256.248,288.341 259.964,281.200 262.644 C 276.885 264.263,276.177 264.487,274.301 264.817 C 273.257 265.001,272.206 265.272,271.967 265.420 C 271.177 265.908,262.588 267.750,257.000 268.630 C 237.551 271.691,229.679 272.200,201.800 272.200 C 179.722 272.200,173.980 271.983,163.200 270.738 C 155.617 269.863,146.875 268.475,145.800 267.975 C 145.360 267.771,144.280 267.448,143.400 267.257 C 140.496 266.628,143.011 266.228,146.554 266.756 C 148.339 267.021,151.870 267.404,154.400 267.607 C 156.930 267.810,160.980 268.157,163.400 268.379 C 182.824 270.157,225.625 268.764,243.235 265.782 C 245.123 265.462,247.373 265.197,248.235 265.194 C 249.096 265.190,250.880 264.927,252.200 264.608 C 253.520 264.289,255.214 264.022,255.965 264.014 C 256.716 264.006,258.246 263.744,259.365 263.431 C 261.495 262.835,264.557 262.175,267.600 261.655 C 268.590 261.486,270.030 261.149,270.800 260.905 C 271.570 260.662,273.550 260.065,275.200 259.578 C 279.851 258.205,285.427 256.299,286.705 255.644 C 287.087 255.449,288.390 254.822,289.600 254.253 C 292.015 253.116,294.886 251.533,295.200 251.166 C 296.701 249.409,297.543 250.276,296.273 252.271 M108.277 290.500 C 107.830 291.242,107.750 297.720,107.822 327.400 C 107.911 364.589,107.684 373.147,106.543 375.600 C 104.592 379.795,103.947 380.759,101.200 383.595 C 99.550 385.299,97.637 386.980,96.948 387.331 C 94.694 388.483,94.764 388.920,97.800 392.629 C 101.830 397.553,101.900 397.554,109.393 392.893 C 113.646 390.247,120.400 381.829,120.400 379.175 C 120.400 378.720,120.623 377.954,120.896 377.474 C 122.695 374.306,123.516 291.405,121.761 290.122 C 120.345 289.087,108.935 289.407,108.277 290.500 M121.000 331.800 C 121.000 374.419,120.897 377.130,119.197 379.400 C 119.033 379.620,118.762 380.250,118.596 380.800 C 116.635 387.301,103.319 397.419,100.624 394.456 C 99.027 392.700,96.400 389.561,96.400 389.408 C 96.400 388.880,96.953 388.000,97.285 388.000 C 98.663 388.000,104.904 381.546,106.306 378.672 C 108.789 373.579,108.800 373.359,108.800 330.702 C 108.800 309.452,108.911 291.776,109.047 291.422 C 109.261 290.865,110.073 290.794,115.147 290.890 L 121.000 291.000 121.000 331.800 M150.000 311.199 C 145.969 311.577,142.004 312.303,141.419 312.772 C 141.189 312.957,140.403 313.235,139.673 313.392 C 138.943 313.548,137.863 313.927,137.273 314.235 C 136.683 314.543,135.913 314.796,135.562 314.798 C 134.400 314.802,133.487 316.242,133.733 317.682 C 134.893 324.471,135.377 324.989,139.319 323.657 C 140.715 323.186,142.258 322.800,142.748 322.800 C 143.238 322.800,144.216 322.501,144.920 322.136 C 147.332 320.885,159.361 321.112,161.400 322.448 C 164.452 324.448,166.006 327.864,165.994 332.552 C 165.986 335.847,165.991 335.843,161.200 336.153 C 158.890 336.303,156.280 336.595,155.400 336.803 C 154.520 337.011,152.990 337.192,152.000 337.205 C 151.010 337.218,149.750 337.486,149.200 337.800 C 148.650 338.114,147.777 338.378,147.260 338.386 C 146.251 338.401,144.840 338.961,140.906 340.907 C 126.118 348.222,126.623 370.615,141.670 374.771 C 144.789 375.632,154.634 375.558,156.807 374.656 C 160.393 373.169,161.961 372.355,164.456 370.686 C 167.673 368.533,168.398 368.615,168.406 371.129 C 168.416 374.114,168.533 374.182,173.909 374.332 C 178.018 374.446,178.726 374.371,179.225 373.771 C 180.191 372.607,179.497 323.335,178.500 322.339 C 178.225 322.065,178.000 321.524,178.000 321.138 C 178.000 318.409,172.109 313.628,166.673 311.944 C 163.806 311.057,155.491 310.685,150.000 311.199 M265.000 311.197 C 261.174 311.636,257.072 312.547,254.200 313.598 C 252.880 314.081,251.211 314.569,250.491 314.683 C 248.013 315.074,247.451 318.154,249.118 322.200 C 250.080 324.533,250.243 324.567,254.400 323.300 C 255.170 323.066,256.867 322.547,258.171 322.148 C 261.637 321.086,274.260 321.050,274.848 322.100 C 275.063 322.485,275.469 322.800,275.750 322.800 C 277.972 322.800,279.904 326.657,280.259 331.806 C 280.573 336.355,280.692 336.259,274.400 336.553 C 267.541 336.874,263.563 337.329,262.526 337.910 C 262.046 338.180,261.114 338.400,260.455 338.400 C 259.796 338.400,258.987 338.670,258.657 339.000 C 258.327 339.330,257.721 339.600,257.310 339.600 C 254.592 339.600,248.974 344.938,246.214 350.144 L 244.760 352.887 244.903 358.544 C 244.998 362.282,245.245 364.689,245.632 365.643 C 246.323 367.345,249.454 371.600,250.016 371.600 C 250.231 371.600,251.152 372.140,252.063 372.800 C 252.975 373.460,253.918 374.001,254.160 374.002 C 254.402 374.004,255.140 374.310,255.800 374.682 C 257.652 375.728,268.705 375.701,271.210 374.646 C 272.195 374.231,273.630 373.636,274.400 373.324 C 276.489 372.477,278.033 371.599,279.658 370.335 C 281.624 368.804,281.906 368.888,282.224 371.100 C 282.673 374.220,283.011 374.401,288.362 374.394 C 290.913 374.391,293.233 374.240,293.517 374.060 C 294.286 373.572,294.030 325.233,293.249 323.200 C 292.207 320.492,291.125 318.400,290.764 318.400 C 290.564 318.400,290.400 318.185,290.400 317.923 C 290.400 317.522,287.984 315.095,286.589 314.095 C 285.855 313.569,283.443 312.442,281.600 311.765 C 279.522 311.002,269.655 310.664,265.000 311.197 M164.200 312.251 C 171.437 313.952,175.500 317.179,177.554 322.857 C 178.372 325.117,179.283 368.418,178.591 372.108 L 178.311 373.600 174.204 373.600 C 169.462 373.600,169.416 373.571,169.017 370.275 C 168.644 367.186,168.257 367.141,164.328 369.720 C 158.872 373.301,154.419 374.800,149.241 374.800 C 141.094 374.800,135.511 371.827,132.717 366.002 C 129.075 358.406,133.125 344.655,139.611 342.596 C 140.045 342.459,140.400 342.178,140.400 341.973 C 140.400 341.768,140.749 341.600,141.176 341.600 C 141.603 341.600,142.048 341.446,142.164 341.258 C 142.280 341.070,143.416 340.552,144.688 340.108 C 149.673 338.365,152.507 337.899,159.328 337.701 L 166.055 337.506 166.469 336.453 C 168.138 332.201,165.849 324.044,162.400 321.953 C 158.026 319.302,143.567 320.006,137.679 323.158 C 136.509 323.784,135.646 322.560,135.170 319.603 C 134.700 316.689,135.120 315.909,137.560 315.166 C 138.352 314.924,140.170 314.373,141.600 313.940 C 148.969 311.711,158.781 310.978,164.200 312.251 M187.200 311.956 C 185.973 312.294,185.657 313.975,186.574 315.284 C 186.918 315.776,187.206 316.633,187.214 317.189 C 187.222 317.745,187.486 318.650,187.800 319.200 C 188.114 319.750,188.384 320.650,188.399 321.200 C 188.415 321.750,188.775 322.920,189.200 323.800 C 189.625 324.680,189.979 325.627,189.986 325.905 C 189.994 326.183,190.169 326.723,190.377 327.105 C 190.836 327.952,192.400 333.145,192.400 333.822 C 192.400 334.089,192.669 334.824,192.998 335.454 C 193.326 336.084,193.596 336.909,193.598 337.286 C 193.599 337.664,193.849 338.564,194.154 339.286 C 194.666 340.501,194.947 341.470,196.041 345.800 C 196.264 346.680,196.616 347.571,196.823 347.780 C 197.030 347.989,197.200 348.810,197.200 349.604 C 197.200 350.397,197.464 351.396,197.787 351.824 C 198.110 352.251,198.380 353.151,198.387 353.824 C 198.394 354.496,198.664 355.396,198.987 355.824 C 199.310 356.251,199.580 357.022,199.587 357.538 C 199.594 358.054,199.858 358.954,200.174 359.538 C 200.786 360.669,202.400 365.806,202.400 366.622 C 202.400 366.889,202.669 367.624,202.998 368.254 C 203.326 368.884,203.596 369.709,203.598 370.086 C 203.601 370.920,204.845 373.686,205.400 374.094 C 206.129 374.630,220.180 374.453,220.870 373.900 C 221.734 373.207,223.577 369.478,227.147 361.200 C 227.695 359.930,228.789 356.845,229.062 355.800 C 229.177 355.360,229.508 354.460,229.796 353.800 C 230.468 352.265,231.600 348.317,231.600 347.511 C 231.600 347.170,231.869 346.376,232.198 345.746 C 232.526 345.116,232.796 344.289,232.798 343.908 C 232.799 343.528,233.049 342.538,233.353 341.708 C 233.658 340.879,234.208 339.030,234.577 337.600 C 234.945 336.170,235.496 334.100,235.800 333.000 C 236.414 330.784,236.990 328.513,237.777 325.200 C 238.064 323.990,238.502 322.493,238.750 321.874 C 238.997 321.255,239.200 320.109,239.200 319.328 C 239.200 318.546,239.499 317.066,239.864 316.037 C 241.267 312.088,240.449 311.575,232.850 311.640 C 225.659 311.702,225.484 311.870,224.947 319.200 C 224.827 320.850,224.384 323.236,223.964 324.502 C 223.544 325.767,223.197 327.207,223.194 327.702 C 223.191 328.196,222.929 329.320,222.612 330.200 C 222.295 331.080,222.027 332.464,222.018 333.276 C 222.008 334.088,221.830 334.858,221.623 334.986 C 221.416 335.114,221.137 336.069,221.003 337.109 C 220.869 338.149,220.592 339.307,220.387 339.683 C 220.182 340.058,219.900 341.138,219.760 342.083 C 219.620 343.027,219.257 344.199,218.953 344.686 C 218.649 345.173,218.400 346.198,218.400 346.962 C 218.400 347.727,218.241 348.451,218.046 348.571 C 217.852 348.692,217.570 349.603,217.421 350.597 C 217.272 351.591,216.893 352.898,216.578 353.502 C 216.263 354.106,216.004 354.805,216.002 355.056 C 215.997 355.990,214.444 358.979,214.269 358.392 C 213.569 356.053,213.015 353.837,212.572 351.600 C 211.685 347.123,211.355 345.827,210.870 344.926 C 210.612 344.446,210.400 343.625,210.400 343.103 C 210.400 342.580,210.136 341.804,209.813 341.376 C 209.490 340.949,209.213 340.150,209.199 339.600 C 209.184 339.050,208.914 338.150,208.600 337.600 C 208.286 337.050,208.022 336.177,208.014 335.660 C 208.006 335.144,207.755 334.154,207.456 333.460 C 207.157 332.767,206.511 330.850,206.019 329.200 C 205.527 327.550,204.894 325.660,204.611 325.000 C 203.843 323.203,203.160 321.168,202.800 319.600 C 202.623 318.830,202.286 317.660,202.051 317.000 C 201.815 316.340,201.520 315.289,201.395 314.666 C 200.834 311.869,192.962 310.366,187.200 311.956 M279.319 312.379 C 285.551 313.973,289.269 316.755,291.476 321.478 L 292.562 323.800 292.944 348.082 C 293.393 376.510,293.917 373.673,288.245 373.513 L 284.210 373.400 283.519 370.833 C 282.592 367.397,281.680 367.015,279.600 369.191 C 277.004 371.906,269.901 374.442,264.200 374.689 C 250.978 375.260,243.173 366.187,246.060 353.600 C 246.937 349.772,251.087 343.747,253.600 342.651 C 253.930 342.507,254.993 341.942,255.963 341.395 C 256.933 340.848,257.923 340.399,258.163 340.398 C 258.403 340.396,259.100 340.134,259.710 339.816 C 260.792 339.252,263.333 338.646,267.400 337.984 C 268.500 337.805,271.830 337.643,274.800 337.623 C 281.670 337.578,281.407 337.767,281.369 332.914 C 281.271 320.674,272.739 317.261,254.600 322.208 C 250.205 323.407,250.568 323.460,250.030 321.536 C 248.871 317.395,248.840 316.809,249.751 316.289 C 251.880 315.073,257.840 313.252,261.275 312.769 C 262.747 312.562,264.367 312.226,264.875 312.022 C 266.669 311.302,276.012 311.534,279.319 312.379 M294.815 312.582 C 294.532 312.923,294.470 313.380,294.666 313.682 C 294.850 313.967,295.180 314.920,295.400 315.800 C 296.018 318.272,297.701 318.145,298.040 315.600 C 298.261 313.945,298.285 313.913,298.346 315.200 C 298.441 317.211,298.974 317.925,299.936 317.329 C 300.511 316.973,300.810 316.970,301.159 317.319 C 301.507 317.667,301.821 317.654,302.441 317.267 C 303.088 316.863,303.388 316.858,303.848 317.240 C 304.796 318.026,305.258 317.126,305.123 314.757 C 304.979 312.238,303.930 311.650,302.437 313.252 C 301.730 314.012,301.600 314.045,301.600 313.466 C 301.600 312.071,295.859 311.324,294.815 312.582 M200.414 315.000 C 200.799 316.100,201.433 318.080,201.822 319.400 C 202.210 320.720,203.040 323.253,203.664 325.029 C 204.289 326.805,204.800 328.554,204.800 328.915 C 204.800 329.277,205.051 330.164,205.357 330.886 C 205.663 331.609,206.306 333.550,206.785 335.200 C 207.265 336.850,207.824 338.513,208.028 338.895 C 208.233 339.277,208.397 339.817,208.394 340.095 C 208.387 340.739,209.943 345.805,210.656 347.460 C 210.955 348.154,211.200 348.964,211.199 349.260 C 211.195 351.166,213.857 360.800,214.387 360.800 C 214.779 360.800,216.400 357.606,216.400 356.834 C 216.400 356.552,216.653 355.754,216.963 355.060 C 217.273 354.367,217.802 352.810,218.140 351.600 C 218.478 350.390,219.125 348.155,219.577 346.633 C 220.030 345.111,220.400 343.546,220.400 343.156 C 220.400 342.766,220.570 342.342,220.777 342.214 C 220.984 342.086,221.279 341.131,221.431 340.091 C 221.584 339.051,221.880 337.750,222.089 337.200 C 222.298 336.650,222.620 335.390,222.804 334.400 C 222.989 333.410,223.318 331.880,223.536 331.000 C 224.570 326.817,226.023 319.051,226.266 316.400 C 226.627 312.473,226.036 312.800,232.784 312.800 C 236.067 312.800,238.833 312.935,238.931 313.100 C 239.154 313.474,238.218 319.391,237.429 322.600 C 237.104 323.920,236.638 325.900,236.394 327.000 C 236.149 328.100,235.749 329.630,235.504 330.400 C 235.259 331.170,234.923 332.520,234.758 333.400 C 234.592 334.280,234.075 336.260,233.608 337.800 C 233.140 339.340,232.584 341.320,232.372 342.200 C 232.160 343.080,231.837 344.160,231.655 344.600 C 231.035 346.103,230.000 349.506,229.998 350.054 C 229.996 350.354,229.743 351.083,229.435 351.673 C 229.127 352.263,228.751 353.310,228.600 354.000 C 228.449 354.690,228.073 355.737,227.765 356.327 C 227.457 356.917,227.204 357.704,227.202 358.076 C 227.201 358.448,227.040 358.852,226.844 358.973 C 226.649 359.094,226.372 359.689,226.231 360.296 C 226.089 360.903,225.727 361.940,225.426 362.600 C 225.126 363.260,224.611 364.430,224.283 365.200 C 222.967 368.287,221.904 370.670,221.250 372.000 L 220.561 373.400 213.053 373.400 L 205.545 373.400 204.785 371.200 C 204.368 369.990,204.020 368.691,204.013 368.314 C 204.006 367.936,203.752 367.036,203.449 366.314 C 203.145 365.591,202.583 363.920,202.199 362.600 C 201.815 361.280,201.003 358.670,200.396 356.800 C 199.788 354.930,198.984 352.320,198.608 351.000 C 196.734 344.412,196.270 342.897,195.757 341.686 C 195.451 340.964,195.200 340.007,195.200 339.560 C 195.200 339.113,195.006 338.385,194.769 337.943 C 194.354 337.166,193.609 334.740,192.761 331.400 C 192.537 330.520,192.184 329.629,191.977 329.420 C 191.770 329.211,191.600 328.608,191.600 328.080 C 191.600 327.553,191.346 326.554,191.035 325.860 C 190.724 325.167,190.081 323.250,189.605 321.600 C 189.130 319.950,188.578 318.150,188.380 317.600 C 186.624 312.733,186.596 312.759,193.733 312.890 L 199.712 313.000 200.414 315.000 M152.000 345.686 C 145.157 347.518,142.495 351.497,143.379 358.571 C 144.482 367.398,156.860 368.865,165.236 361.161 L 166.800 359.723 166.800 352.741 C 166.800 347.845,166.657 345.617,166.320 345.280 C 165.488 344.448,155.570 344.729,152.000 345.686 M266.753 345.602 C 260.020 347.440,257.400 350.487,257.400 356.480 C 257.400 358.411,257.587 359.747,257.900 360.060 C 258.175 360.335,258.400 360.866,258.400 361.239 C 258.400 364.452,266.594 367.500,270.662 365.800 C 271.451 365.470,272.359 365.200,272.679 365.200 C 273.516 365.200,278.676 362.062,279.976 360.763 C 281.158 359.581,282.074 348.098,281.175 345.733 C 280.699 344.483,271.169 344.397,266.753 345.602 M165.748 346.500 C 165.881 346.995,165.992 350.132,165.995 353.471 L 166.000 359.542 164.577 360.715 C 155.234 368.416,144.238 365.887,144.259 356.041 C 144.272 350.281,147.193 347.453,154.175 346.442 C 155.922 346.189,157.437 345.896,157.542 345.791 C 158.306 345.027,165.520 345.651,165.748 346.500 M280.111 346.113 C 280.219 346.394,280.212 349.480,280.095 352.969 L 279.881 359.314 278.457 360.657 C 277.674 361.396,276.823 362.000,276.566 362.000 C 276.308 362.000,275.881 362.261,275.617 362.580 C 273.014 365.716,263.713 365.980,260.735 363.002 C 254.554 356.821,258.877 347.912,268.783 346.417 C 270.424 346.169,271.849 345.884,271.950 345.783 C 272.416 345.317,279.922 345.620,280.111 346.113 " stroke="none" fill="#afc4d3" fill-rule="evenodd"></path><path id="path4" d="M226.206 5.580 C 226.070 6.010,226.162 7.116,226.411 8.040 C 226.994 10.205,227.013 21.838,226.437 23.326 C 226.196 23.945,225.994 24.935,225.986 25.526 C 225.979 26.117,225.625 27.320,225.200 28.200 C 224.775 29.080,224.418 29.980,224.406 30.200 C 224.338 31.487,219.455 39.855,217.222 42.511 C 212.258 48.415,204.458 56.126,201.320 58.232 C 200.044 59.088,198.336 60.331,197.525 60.994 C 196.714 61.657,195.027 63.010,193.777 64.000 C 192.526 64.990,191.299 65.980,191.051 66.200 C 190.803 66.420,189.880 67.130,189.000 67.779 C 188.120 68.427,187.310 69.057,187.200 69.179 C 187.090 69.300,186.100 70.102,185.000 70.959 C 183.900 71.817,181.648 73.887,179.996 75.559 C 178.344 77.232,176.053 79.410,174.905 80.400 C 163.380 90.339,160.831 104.820,168.410 117.309 C 168.841 118.019,169.320 118.870,169.474 119.200 C 170.311 120.985,173.930 126.131,175.917 128.361 C 184.575 138.074,185.712 139.261,191.000 144.106 C 197.748 150.288,197.706 150.253,198.718 150.574 C 199.751 150.902,199.670 149.506,198.552 147.714 C 198.249 147.227,198.000 146.588,198.000 146.295 C 198.000 146.002,197.728 145.411,197.396 144.981 C 197.064 144.552,195.662 142.490,194.279 140.400 C 192.896 138.310,190.413 134.620,188.760 132.200 C 185.919 128.042,185.014 126.388,182.017 119.878 C 180.225 115.985,179.122 109.686,179.650 106.350 C 179.871 104.947,180.149 102.900,180.268 101.800 C 180.608 98.640,183.077 93.872,187.309 88.207 C 188.926 86.041,195.751 79.389,198.522 77.278 C 200.019 76.137,201.999 74.503,202.922 73.646 C 203.845 72.789,205.230 71.579,206.000 70.957 C 210.541 67.286,220.110 57.267,222.814 53.351 C 225.915 48.862,228.000 45.701,228.000 45.490 C 228.000 45.350,228.508 44.372,229.129 43.318 C 229.750 42.263,230.364 41.040,230.495 40.600 C 230.626 40.160,231.121 38.810,231.596 37.600 C 235.394 27.930,235.200 17.528,231.070 9.337 C 229.200 5.627,226.784 3.761,226.206 5.580 M229.600 9.313 C 229.600 9.489,230.145 10.799,230.811 12.223 C 233.795 18.605,233.449 31.611,230.125 38.000 C 229.839 38.550,229.604 39.200,229.602 39.444 C 229.593 41.158,222.928 51.615,218.413 57.000 C 216.707 59.035,207.114 68.534,205.000 70.281 C 203.900 71.191,202.171 72.624,201.159 73.467 C 200.146 74.310,198.436 75.719,197.359 76.597 C 181.622 89.427,175.160 103.570,179.173 116.400 C 180.996 122.228,183.825 127.261,191.874 139.000 C 194.398 142.681,196.998 147.200,196.591 147.200 C 196.187 147.200,190.668 142.186,186.800 138.304 C 182.913 134.403,181.708 133.096,176.659 127.305 C 169.278 118.840,165.400 110.123,165.400 102.000 L 165.400 96.600 167.095 93.167 C 170.099 87.080,177.174 79.257,186.600 71.600 C 188.800 69.812,191.410 67.677,192.400 66.855 C 193.390 66.032,195.730 64.208,197.600 62.801 C 199.470 61.394,201.450 59.844,202.000 59.358 C 202.550 58.872,204.620 57.080,206.600 55.378 C 213.533 49.415,219.332 42.771,222.793 36.823 C 224.439 33.993,225.088 32.521,226.806 27.704 C 227.821 24.861,228.457 17.455,228.137 12.218 L 227.873 7.914 228.737 8.453 C 229.211 8.750,229.600 9.137,229.600 9.313 M252.765 60.395 C 252.134 60.765,250.076 61.335,246.968 62.001 C 246.070 62.193,244.514 62.787,243.509 63.321 C 242.505 63.855,241.170 64.421,240.542 64.577 C 239.914 64.734,237.228 65.928,234.573 67.231 C 231.918 68.534,229.628 69.600,229.483 69.600 C 229.338 69.600,227.494 70.770,225.385 72.200 C 223.276 73.630,221.402 74.800,221.222 74.800 C 220.902 74.800,216.000 78.024,214.800 79.024 C 209.973 83.045,202.683 91.831,201.876 94.600 C 201.748 95.040,201.183 96.744,200.622 98.386 C 199.031 103.034,199.114 110.602,200.801 114.741 C 201.461 116.359,202.001 117.889,202.002 118.141 C 202.004 118.394,202.294 119.140,202.647 119.800 C 203.001 120.460,203.928 122.260,204.709 123.800 C 205.981 126.309,207.416 128.650,208.019 129.200 C 215.405 135.939,218.022 148.176,213.379 154.263 C 212.841 154.969,212.400 155.684,212.400 155.852 C 212.400 156.020,211.932 156.832,211.360 157.658 C 208.138 162.307,215.950 157.972,222.639 151.400 C 228.402 145.737,230.567 141.040,230.567 134.200 C 230.567 128.784,230.603 128.945,228.288 124.000 C 228.031 123.450,226.453 121.200,224.783 119.000 C 217.185 108.996,214.875 102.554,216.963 97.200 C 217.350 96.210,217.770 94.950,217.897 94.400 C 218.569 91.497,229.304 79.234,232.314 77.932 C 232.482 77.859,233.424 77.207,234.409 76.483 C 235.394 75.758,239.080 73.266,242.600 70.944 C 246.120 68.623,249.372 66.381,249.826 65.962 C 250.280 65.543,250.794 65.200,250.968 65.200 C 251.142 65.200,251.967 64.660,252.800 64.000 C 253.633 63.340,254.436 62.800,254.584 62.800 C 255.170 62.800,257.578 60.689,257.372 60.355 C 257.084 59.889,253.580 59.919,252.765 60.395 M251.380 63.135 C 250.372 64.025,246.032 67.200,245.825 67.200 C 245.695 67.200,243.566 68.581,241.094 70.270 C 234.433 74.820,232.686 76.054,231.800 76.836 C 231.360 77.224,229.692 78.646,228.092 79.996 C 217.378 89.040,212.932 98.045,215.526 105.450 C 217.188 110.193,219.274 113.733,224.818 121.213 C 226.046 122.870,227.482 125.300,228.008 126.613 C 228.533 127.926,229.120 129.215,229.312 129.477 C 231.056 131.867,229.063 141.013,225.736 145.887 C 221.955 151.428,212.537 159.054,214.539 154.954 C 218.829 146.167,218.253 138.835,212.803 132.868 C 209.034 128.741,202.800 118.708,202.800 116.769 C 202.800 116.523,202.542 115.754,202.226 115.060 C 197.894 105.552,202.439 91.896,213.046 82.552 C 220.188 76.261,234.973 67.624,242.787 65.177 C 244.549 64.625,248.093 63.241,248.317 63.016 C 248.436 62.897,249.259 62.800,250.147 62.800 C 251.050 62.800,251.593 62.948,251.380 63.135 " stroke="none" fill="#f9d19a" fill-rule="evenodd"></path></g></svg>