<svg id="svg" version="1.1" xmlns="http://www.w3.org/2000/svg" xmlns:xlink="http://www.w3.org/1999/xlink" width="400" height="438.3092562867844" viewBox="0, 0, 400,438.3092562867844"><g id="svgg"><path id="path0" d="M297.644 123.313 C 297.564 149.929,297.623 148.816,295.959 155.254 C 293.557 164.552,287.630 175.370,281.763 181.166 C 281.405 181.520,280.872 182.105,280.578 182.467 C 280.284 182.829,279.730 183.353,279.347 183.631 C 278.965 183.909,278.652 184.242,278.652 184.371 C 278.652 184.500,278.381 184.765,278.051 184.960 C 277.721 185.155,277.225 185.609,276.949 185.969 C 276.673 186.329,276.336 186.624,276.200 186.624 C 276.065 186.624,275.630 186.957,275.235 187.365 C 274.841 187.772,274.436 188.055,274.337 187.994 C 274.238 187.933,274.157 187.985,274.157 188.109 C 274.157 188.234,274.037 188.339,273.890 188.343 C 273.743 188.347,273.150 188.777,272.574 189.299 C 271.997 189.821,271.458 190.206,271.376 190.156 C 271.294 190.105,270.923 190.360,270.552 190.723 C 270.181 191.086,269.874 191.299,269.870 191.197 C 269.867 191.095,269.766 191.180,269.646 191.386 C 269.526 191.592,269.240 191.760,269.010 191.760 C 268.781 191.760,268.593 191.862,268.593 191.987 C 268.593 192.112,268.497 192.154,268.379 192.081 C 268.261 192.009,268.165 192.057,268.165 192.188 C 268.165 192.320,268.068 192.368,267.951 192.295 C 267.833 192.223,267.737 192.241,267.737 192.336 C 267.736 192.489,265.659 193.772,265.383 193.791 C 264.995 193.817,263.884 194.420,263.884 194.604 C 263.884 194.727,263.824 194.768,263.751 194.694 C 263.677 194.621,263.220 194.769,262.734 195.024 C 262.249 195.278,261.803 195.494,261.744 195.504 C 261.685 195.514,260.832 195.836,259.848 196.221 C 256.906 197.371,253.666 198.375,251.379 198.847 C 245.580 200.042,249.834 199.950,193.793 200.098 C 146.515 200.222,141.821 200.266,139.935 200.596 C 119.138 204.235,103.960 219.514,100.231 240.565 C 99.872 242.589,99.495 314.821,99.843 314.821 C 99.960 314.821,121.338 299.573,297.342 173.959 C 337.226 145.494,369.953 122.204,370.069 122.204 C 370.186 122.204,370.081 121.925,369.838 121.583 C 369.595 121.241,369.395 120.891,369.395 120.804 C 369.395 120.643,367.501 117.688,367.274 117.496 C 367.205 117.437,366.805 116.890,366.386 116.279 C 361.325 108.915,353.107 103.202,344.434 101.019 C 339.023 99.657,339.306 99.672,317.557 99.577 L 297.715 99.489 297.644 123.313 M189.581 420.706 C 192.208 420.740,196.446 420.740,198.998 420.706 C 201.550 420.672,199.401 420.644,194.222 420.644 C 189.042 420.644,186.954 420.672,189.581 420.706 M178.117 420.916 C 178.558 420.962,179.280 420.962,179.722 420.916 C 180.163 420.869,179.802 420.832,178.919 420.832 C 178.036 420.832,177.675 420.869,178.117 420.916 M208.507 420.916 C 208.949 420.962,209.671 420.962,210.112 420.916 C 210.554 420.869,210.193 420.832,209.310 420.832 C 208.427 420.832,208.066 420.869,208.507 420.916 M172.877 421.129 C 173.262 421.177,173.840 421.176,174.161 421.127 C 174.483 421.078,174.168 421.039,173.462 421.040 C 172.755 421.041,172.492 421.081,172.877 421.129 M214.183 421.129 C 214.567 421.177,215.145 421.176,215.467 421.127 C 215.788 421.078,215.474 421.039,214.767 421.040 C 214.061 421.041,213.798 421.081,214.183 421.129 M168.807 421.339 C 169.072 421.390,169.505 421.390,169.770 421.339 C 170.035 421.288,169.818 421.246,169.288 421.246 C 168.759 421.246,168.542 421.288,168.807 421.339 M218.459 421.339 C 218.724 421.390,219.157 421.390,219.422 421.339 C 219.687 421.288,219.470 421.246,218.941 421.246 C 218.411 421.246,218.194 421.288,218.459 421.339 M165.385 421.553 C 165.651 421.604,166.037 421.602,166.241 421.549 C 166.446 421.495,166.228 421.453,165.757 421.456 C 165.286 421.458,165.119 421.502,165.385 421.553 M222.100 421.553 C 222.366 421.604,222.751 421.602,222.956 421.549 C 223.161 421.495,222.943 421.453,222.472 421.456 C 222.001 421.458,221.834 421.502,222.100 421.553 M162.175 421.767 C 162.441 421.818,162.826 421.816,163.031 421.763 C 163.235 421.709,163.018 421.667,162.547 421.670 C 162.076 421.672,161.909 421.716,162.175 421.767 M225.310 421.767 C 225.576 421.818,225.962 421.816,226.166 421.763 C 226.371 421.709,226.153 421.667,225.682 421.670 C 225.211 421.672,225.044 421.716,225.310 421.767 M159.497 421.977 C 159.703 422.031,160.040 422.031,160.246 421.977 C 160.452 421.924,160.284 421.880,159.872 421.880 C 159.460 421.880,159.291 421.924,159.497 421.977 M228.092 421.981 C 228.359 422.032,228.744 422.030,228.948 421.977 C 229.153 421.923,228.935 421.881,228.464 421.884 C 227.994 421.886,227.826 421.930,228.092 421.981 M156.929 422.191 C 157.135 422.245,157.472 422.245,157.678 422.191 C 157.884 422.138,157.715 422.094,157.303 422.094 C 156.891 422.094,156.723 422.138,156.929 422.191 M277.261 430.177 C 277.496 430.278,277.833 430.360,278.010 430.360 C 278.212 430.360,278.172 430.293,277.903 430.177 C 277.667 430.075,277.330 429.993,277.154 429.993 C 276.951 429.993,276.991 430.061,277.261 430.177 M109.363 430.498 C 108.951 430.656,108.759 430.786,108.935 430.786 C 109.112 430.786,109.593 430.656,110.005 430.498 C 110.417 430.339,110.610 430.209,110.433 430.209 C 110.257 430.209,109.775 430.339,109.363 430.498 M106.942 431.286 C 106.258 431.524,105.736 431.757,105.781 431.803 C 105.879 431.900,108.507 431.035,108.507 430.906 C 108.507 430.766,108.263 430.826,106.942 431.286 M281.024 431.336 C 281.196 431.507,284.069 432.535,284.150 432.454 C 284.195 432.409,283.549 432.119,282.714 431.809 C 281.242 431.264,280.838 431.151,281.024 431.336 M103.371 432.647 C 99.495 434.222,93.194 437.835,93.605 438.246 C 93.668 438.308,94.374 437.868,95.174 437.267 C 96.793 436.052,101.064 433.784,103.692 432.743 C 104.633 432.371,105.444 432.026,105.493 431.977 C 105.719 431.754,105.047 431.966,103.371 432.647 M285.072 432.903 C 288.526 434.496,291.239 435.957,292.750 437.042 C 293.736 437.749,294.586 438.283,294.640 438.229 C 294.972 437.897,289.493 434.618,286.391 433.293 C 284.609 432.532,283.654 432.250,285.072 432.903 M190.209 434.831 C 192.357 434.866,195.872 434.866,198.020 434.831 C 200.169 434.796,198.411 434.768,194.114 434.768 C 189.818 434.768,188.060 434.796,190.209 434.831 M183.039 435.041 C 183.480 435.087,184.203 435.087,184.644 435.041 C 185.086 434.995,184.724 434.957,183.842 434.957 C 182.959 434.957,182.598 434.995,183.039 435.041 M203.585 435.041 C 204.026 435.087,204.749 435.087,205.190 435.041 C 205.631 434.995,205.270 434.957,204.387 434.957 C 203.505 434.957,203.143 434.995,203.585 435.041 M180.043 435.252 C 180.367 435.301,180.896 435.301,181.220 435.252 C 181.544 435.203,181.279 435.163,180.631 435.163 C 179.984 435.163,179.719 435.203,180.043 435.252 M207.009 435.252 C 207.333 435.301,207.862 435.301,208.186 435.252 C 208.510 435.203,208.245 435.163,207.598 435.163 C 206.950 435.163,206.685 435.203,207.009 435.252 M177.692 435.467 C 178.017 435.516,178.498 435.514,178.762 435.464 C 179.025 435.413,178.759 435.373,178.170 435.374 C 177.582 435.376,177.366 435.417,177.692 435.467 M209.580 435.467 C 209.906 435.516,210.387 435.514,210.650 435.464 C 210.914 435.413,210.647 435.373,210.059 435.374 C 209.470 435.376,209.255 435.417,209.580 435.467 M175.658 435.678 C 175.924 435.730,176.309 435.728,176.514 435.674 C 176.719 435.621,176.501 435.579,176.030 435.581 C 175.559 435.583,175.392 435.627,175.658 435.678 M211.825 435.678 C 212.089 435.729,212.523 435.729,212.788 435.678 C 213.052 435.627,212.836 435.585,212.306 435.585 C 211.776 435.585,211.560 435.627,211.825 435.678 M173.732 435.892 C 173.998 435.944,174.383 435.942,174.588 435.888 C 174.792 435.835,174.575 435.793,174.104 435.795 C 173.633 435.797,173.466 435.841,173.732 435.892 M213.753 435.892 C 214.019 435.944,214.405 435.942,214.609 435.888 C 214.814 435.835,214.596 435.793,214.125 435.795 C 213.654 435.797,213.487 435.841,213.753 435.892 M172.124 436.103 C 172.330 436.156,172.667 436.156,172.873 436.103 C 173.079 436.049,172.911 436.005,172.499 436.005 C 172.087 436.005,171.918 436.049,172.124 436.103 M215.356 436.103 C 215.562 436.156,215.899 436.156,216.105 436.103 C 216.311 436.049,216.142 436.005,215.730 436.005 C 215.318 436.005,215.150 436.049,215.356 436.103 M168.325 436.605 C 165.283 437.168,161.052 438.168,161.327 438.259 C 161.455 438.302,162.560 438.091,163.782 437.791 C 165.003 437.491,167.296 437.012,168.876 436.728 C 170.457 436.443,171.461 436.210,171.108 436.209 C 170.754 436.209,169.502 436.387,168.325 436.605 M219.369 436.729 C 220.958 437.015,223.299 437.497,224.572 437.801 C 225.845 438.105,226.928 438.312,226.978 438.262 C 227.198 438.042,217.977 436.141,216.924 436.189 C 216.679 436.200,217.780 436.443,219.369 436.729 M190.423 436.543 C 192.453 436.578,195.776 436.578,197.806 436.543 C 199.837 436.508,198.175 436.479,194.114 436.479 C 190.054 436.479,188.392 436.508,190.423 436.543 M184.109 436.753 C 184.551 436.799,185.273 436.799,185.714 436.753 C 186.156 436.707,185.795 436.669,184.912 436.669 C 184.029 436.669,183.668 436.707,184.109 436.753 M202.617 436.752 C 202.997 436.799,203.671 436.800,204.115 436.753 C 204.559 436.707,204.248 436.668,203.424 436.667 C 202.600 436.666,202.237 436.704,202.617 436.752 M181.327 436.964 C 181.651 437.013,182.180 437.013,182.504 436.964 C 182.828 436.915,182.563 436.875,181.915 436.875 C 181.268 436.875,181.003 436.915,181.327 436.964 M185.448 437.036 C 182.504 437.238,177.354 437.796,175.855 438.075 C 175.363 438.166,183.628 438.241,194.222 438.241 C 214.840 438.241,215.125 438.220,206.421 437.337 C 202.387 436.928,189.671 436.745,185.448 437.036 M205.725 436.964 C 206.049 437.013,206.578 437.013,206.902 436.964 C 207.226 436.915,206.961 436.875,206.314 436.875 C 205.666 436.875,205.401 436.915,205.725 436.964 M175.423 437.566 C 173.559 437.844,171.922 438.118,171.785 438.174 C 171.319 438.364,172.473 438.310,173.505 438.094 C 174.070 437.975,175.928 437.695,177.635 437.472 C 179.342 437.248,180.305 437.065,179.775 437.063 C 179.246 437.062,177.287 437.289,175.423 437.566 M196.427 437.185 C 195.285 437.223,193.359 437.223,192.146 437.185 C 190.933 437.147,191.867 437.115,194.222 437.115 C 196.576 437.115,197.568 437.146,196.427 437.185 M208.240 437.176 C 208.652 437.222,210.663 437.498,212.710 437.791 C 214.756 438.083,216.482 438.271,216.544 438.209 C 216.607 438.146,216.569 438.094,216.462 438.093 C 216.354 438.092,214.628 437.851,212.627 437.559 C 210.626 437.266,208.652 437.042,208.240 437.060 L 207.491 437.094 208.240 437.176 M188.497 437.396 C 187.937 437.441,187.022 437.441,186.463 437.396 C 185.904 437.352,186.362 437.316,187.480 437.316 C 188.598 437.316,189.056 437.352,188.497 437.396 M207.013 437.688 C 208.398 437.829,209.487 437.989,209.433 438.044 C 209.378 438.098,208.197 438.028,206.807 437.889 C 205.417 437.749,203.028 437.552,201.498 437.451 L 198.716 437.267 201.605 437.350 C 203.194 437.395,205.628 437.547,207.013 437.688 M184.751 437.608 C 184.369 437.655,183.743 437.655,183.360 437.608 C 182.978 437.561,183.291 437.522,184.056 437.522 C 184.821 437.522,185.134 437.561,184.751 437.608 M181.487 437.890 C 180.840 437.980,179.925 438.048,179.454 438.042 L 178.598 438.031 179.561 437.881 C 180.091 437.799,181.006 437.731,181.594 437.729 L 182.665 437.727 181.487 437.890 M190.750 438.038 C 190.253 438.082,189.387 438.083,188.824 438.039 C 188.261 437.995,188.668 437.958,189.727 437.957 C 190.787 437.957,191.247 437.993,190.750 438.038 M199.518 438.038 C 199.018 438.083,198.200 438.083,197.699 438.038 C 197.199 437.993,197.608 437.956,198.609 437.956 C 199.609 437.956,200.019 437.993,199.518 438.038 " stroke="none" fill="#fceb74" fill-rule="evenodd"></path><path id="path1" d="M318.615 240.370 L 250.607 288.910 248.417 288.979 C 247.213 289.017,266.322 289.069,290.882 289.093 C 319.946 289.123,336.309 289.062,337.752 288.921 C 355.247 287.200,365.872 277.375,375.046 254.435 C 383.345 233.684,386.953 215.785,386.690 196.665 L 386.624 191.831 318.615 240.370 M211.216 317.016 C 142.902 365.791,128.205 376.244,127.947 376.241 C 127.790 376.240,127.256 376.007,126.760 375.723 C 126.264 375.440,125.638 375.149,125.369 375.078 C 121.816 374.137,136.774 380.825,142.322 382.657 C 175.972 393.775,210.649 393.702,244.462 382.442 C 270.124 373.896,284.204 359.808,286.132 340.748 C 286.270 339.386,286.356 331.278,286.356 319.721 L 286.356 300.910 260.065 300.910 L 233.775 300.910 211.216 317.016 M249.534 325.217 C 260.751 327.909,266.368 341.516,260.352 351.419 C 252.758 363.921,234.765 362.404,229.351 348.807 C 224.156 335.759,235.962 321.961,249.534 325.217 " stroke="none" fill="#fcd43c" fill-rule="evenodd"></path><path id="path2" d="M297.444 173.856 C 257.693 202.243,196.947 245.597,162.451 270.198 L 99.732 314.928 99.807 328.090 C 99.878 340.419,99.911 341.403,100.336 343.643 C 102.492 355.016,109.300 364.604,120.656 372.264 C 121.982 373.158,123.121 373.890,123.186 373.890 C 123.252 373.890,123.450 374.034,123.626 374.211 C 123.803 374.387,124.133 374.532,124.360 374.532 C 124.587 374.532,124.773 374.620,124.773 374.729 C 124.773 374.837,125.062 374.990,125.417 375.067 C 125.771 375.145,126.004 375.300,125.936 375.411 C 125.867 375.522,125.890 375.587,125.987 375.556 C 126.282 375.462,127.557 376.068,127.445 376.249 C 126.831 377.242,130.145 374.899,211.216 317.016 L 233.775 300.910 213.516 300.910 L 193.258 300.910 193.258 295.039 L 193.258 289.168 221.883 289.100 L 250.508 289.032 318.476 240.496 L 386.443 191.961 386.363 189.346 C 386.319 187.908,386.281 186.586,386.279 186.410 C 386.073 171.379,378.356 138.148,372.238 125.950 C 371.707 124.890,371.072 123.614,370.828 123.114 C 370.574 122.594,370.241 122.213,370.050 122.225 C 369.867 122.236,337.194 145.470,297.444 173.856 M276.454 186.196 C 276.253 186.431,276.162 186.624,276.252 186.624 C 276.342 186.624,276.581 186.431,276.783 186.196 C 276.984 185.960,277.075 185.768,276.985 185.768 C 276.895 185.768,276.656 185.960,276.454 186.196 M274.935 187.391 C 274.598 187.687,274.364 187.972,274.416 188.024 C 274.467 188.075,274.785 187.830,275.123 187.478 C 275.867 186.700,275.771 186.655,274.935 187.391 " stroke="none" fill="#fce058" fill-rule="evenodd"></path><path id="path3" d="M178.277 0.224 C 135.588 2.444,112.157 10.742,104.282 26.431 C 100.288 34.389,99.735 39.435,99.733 67.897 L 99.732 87.961 146.388 87.961 L 193.044 87.961 193.044 93.740 L 193.044 99.518 128.464 99.522 C 66.180 99.525,60.248 99.578,56.073 100.168 C 31.265 103.675,13.338 120.281,6.752 145.853 C -2.186 180.560,-2.270 205.614,6.428 241.570 C 13.140 269.313,27.506 285.281,48.749 288.607 C 51.082 288.972,58.577 289.083,58.886 288.757 C 58.967 288.673,65.589 280.905,73.604 271.496 L 88.175 254.388 88.197 250.415 C 88.230 244.172,88.370 241.557,88.816 238.844 C 88.923 238.197,89.056 237.378,89.112 237.025 C 90.277 229.688,94.940 218.800,99.241 213.379 C 99.382 213.201,100.291 212.045,101.261 210.810 C 110.968 198.452,128.062 189.256,142.393 188.683 C 144.512 188.598,139.017 194.777,185.146 140.610 C 206.848 115.126,236.824 79.925,251.760 62.386 C 282.592 26.181,279.610 29.616,279.988 29.873 C 280.147 29.981,280.097 29.904,279.876 29.701 C 279.656 29.498,279.533 29.238,279.604 29.123 C 279.676 29.008,279.536 28.808,279.294 28.678 C 279.052 28.549,278.899 28.370,278.955 28.280 C 279.082 28.074,278.340 26.921,278.182 27.079 C 278.118 27.143,277.900 26.846,277.697 26.418 C 277.494 25.990,277.168 25.449,276.973 25.215 C 276.778 24.981,276.446 24.581,276.235 24.327 C 268.140 14.542,257.753 8.093,244.787 4.802 C 238.662 3.248,225.260 1.507,211.771 0.515 C 206.323 0.114,184.102 -0.079,178.277 0.224 M145.104 29.325 C 157.969 32.952,162.245 49.541,152.736 58.932 C 141.781 69.751,123.287 61.952,123.276 46.509 C 123.268 34.819,134.163 26.241,145.104 29.325 M176.672 421.633 C 142.830 423.085,114.887 428.115,101.659 435.136 C 99.801 436.122,96.950 437.984,96.950 438.211 C 96.950 438.263,111.306 438.306,128.851 438.308 L 160.752 438.311 162.826 437.785 C 165.257 437.170,170.608 436.160,171.282 436.189 C 171.539 436.201,170.546 436.428,169.074 436.694 C 167.603 436.960,165.436 437.408,164.259 437.690 L 162.119 438.202 163.510 438.268 C 167.002 438.434,172.056 438.154,175.602 437.597 C 177.603 437.284,179.577 437.036,179.989 437.046 C 180.401 437.057,179.342 437.249,177.635 437.474 C 173.790 437.980,172.097 438.343,174.211 438.209 C 174.976 438.161,176.661 437.976,177.956 437.798 C 187.360 436.510,201.405 436.547,211.058 437.885 C 215.060 438.440,291.528 438.547,291.072 437.997 C 290.168 436.908,285.505 434.418,281.113 432.680 C 260.643 424.577,216.607 419.919,176.672 421.633 M184.433 423.903 C 184.228 423.957,183.843 423.959,183.577 423.907 C 183.310 423.856,183.478 423.812,183.949 423.810 C 184.419 423.808,184.637 423.849,184.433 423.903 M204.764 423.903 C 204.560 423.957,204.175 423.959,203.908 423.907 C 203.642 423.856,203.810 423.812,204.280 423.810 C 204.751 423.808,204.969 423.849,204.764 423.903 M198.020 434.831 C 195.872 434.866,192.357 434.866,190.209 434.831 C 188.060 434.796,189.818 434.768,194.114 434.768 C 198.411 434.768,200.169 434.796,198.020 434.831 M184.644 435.041 C 184.203 435.087,183.480 435.087,183.039 435.041 C 182.598 434.995,182.959 434.957,183.842 434.957 C 184.724 434.957,185.086 434.995,184.644 435.041 M205.190 435.041 C 204.749 435.087,204.026 435.087,203.585 435.041 C 203.143 434.995,203.505 434.957,204.387 434.957 C 205.270 434.957,205.631 434.995,205.190 435.041 M181.220 435.252 C 180.896 435.301,180.367 435.301,180.043 435.252 C 179.719 435.203,179.984 435.163,180.631 435.163 C 181.279 435.163,181.544 435.203,181.220 435.252 M208.186 435.252 C 207.862 435.301,207.333 435.301,207.009 435.252 C 206.685 435.203,206.950 435.163,207.598 435.163 C 208.245 435.163,208.510 435.203,208.186 435.252 M178.762 435.464 C 178.498 435.514,178.017 435.516,177.692 435.467 C 177.366 435.417,177.582 435.376,178.170 435.374 C 178.759 435.373,179.025 435.413,178.762 435.464 M210.650 435.464 C 210.387 435.514,209.906 435.516,209.580 435.467 C 209.255 435.417,209.470 435.376,210.059 435.374 C 210.647 435.373,210.914 435.413,210.650 435.464 M176.514 435.674 C 176.309 435.728,175.924 435.730,175.658 435.678 C 175.392 435.627,175.559 435.583,176.030 435.581 C 176.501 435.579,176.719 435.621,176.514 435.674 M212.788 435.678 C 212.523 435.729,212.089 435.729,211.825 435.678 C 211.560 435.627,211.776 435.585,212.306 435.585 C 212.836 435.585,213.052 435.627,212.788 435.678 M174.588 435.888 C 174.383 435.942,173.998 435.944,173.732 435.892 C 173.466 435.841,173.633 435.797,174.104 435.795 C 174.575 435.793,174.792 435.835,174.588 435.888 M214.609 435.888 C 214.405 435.942,214.019 435.944,213.753 435.892 C 213.487 435.841,213.654 435.797,214.125 435.795 C 214.596 435.793,214.814 435.835,214.609 435.888 M172.873 436.103 C 172.667 436.156,172.330 436.156,172.124 436.103 C 171.918 436.049,172.087 436.005,172.499 436.005 C 172.911 436.005,173.079 436.049,172.873 436.103 M216.105 436.103 C 215.899 436.156,215.562 436.156,215.356 436.103 C 215.150 436.049,215.318 436.005,215.730 436.005 C 216.142 436.005,216.311 436.049,216.105 436.103 M219.813 436.608 C 222.872 437.157,226.246 437.924,226.126 438.043 C 226.077 438.093,225.138 437.926,224.040 437.673 C 222.942 437.420,220.792 436.987,219.262 436.711 C 217.731 436.435,216.679 436.201,216.924 436.189 C 217.168 436.178,218.468 436.367,219.813 436.608 M197.806 436.543 C 195.776 436.578,192.453 436.578,190.423 436.543 C 188.392 436.508,190.054 436.479,194.114 436.479 C 198.175 436.479,199.837 436.508,197.806 436.543 M185.714 436.753 C 185.273 436.799,184.551 436.799,184.109 436.753 C 183.668 436.707,184.029 436.669,184.912 436.669 C 185.795 436.669,186.156 436.707,185.714 436.753 M204.115 436.753 C 203.671 436.800,202.997 436.799,202.617 436.752 C 202.237 436.704,202.600 436.666,203.424 436.667 C 204.248 436.668,204.559 436.707,204.115 436.753 M182.504 436.964 C 182.180 437.013,181.651 437.013,181.327 436.964 C 181.003 436.915,181.268 436.875,181.915 436.875 C 182.563 436.875,182.828 436.915,182.504 436.964 M206.902 436.964 C 206.578 437.013,206.049 437.013,205.725 436.964 C 205.401 436.915,205.666 436.875,206.314 436.875 C 206.961 436.875,207.226 436.915,206.902 436.964 M192.146 437.185 C 193.359 437.223,195.285 437.223,196.427 437.185 C 197.568 437.146,196.576 437.115,194.222 437.115 C 191.867 437.115,190.933 437.147,192.146 437.185 M212.150 437.483 C 214.007 437.736,215.482 437.986,215.430 438.039 C 215.353 438.116,210.708 437.566,208.026 437.164 C 207.557 437.093,207.570 437.080,208.133 437.053 C 208.486 437.036,210.294 437.229,212.150 437.483 M186.463 437.396 C 187.022 437.441,187.937 437.441,188.497 437.396 C 189.056 437.352,188.598 437.316,187.480 437.316 C 186.362 437.316,185.904 437.352,186.463 437.396 M201.605 437.472 C 203.194 437.565,205.923 437.800,207.669 437.994 C 209.414 438.187,210.884 438.304,210.935 438.254 C 211.171 438.017,202.653 437.229,200.321 437.272 C 199.130 437.294,199.462 437.346,201.605 437.472 M183.360 437.608 C 183.743 437.655,184.369 437.655,184.751 437.608 C 185.134 437.561,184.821 437.522,184.056 437.522 C 183.291 437.522,182.978 437.561,183.360 437.608 M178.812 437.985 C 176.546 438.335,177.805 438.343,180.524 437.996 C 181.983 437.810,182.324 437.723,181.594 437.722 C 181.006 437.722,179.754 437.840,178.812 437.985 M188.824 438.039 C 189.387 438.083,190.253 438.082,190.750 438.038 C 191.247 437.993,190.787 437.957,189.727 437.957 C 188.668 437.958,188.261 437.995,188.824 438.039 M197.699 438.038 C 198.200 438.083,199.018 438.083,199.518 438.038 C 200.019 437.993,199.609 437.956,198.609 437.956 C 197.608 437.956,197.199 437.993,197.699 438.038 M185.182 438.249 C 185.508 438.298,185.989 438.297,186.252 438.246 C 186.516 438.195,186.249 438.155,185.661 438.156 C 185.072 438.158,184.857 438.200,185.182 438.249 M202.194 438.246 C 202.459 438.297,202.892 438.297,203.157 438.246 C 203.422 438.195,203.205 438.154,202.675 438.154 C 202.146 438.154,201.929 438.195,202.194 438.246 " stroke="none" fill="#3b7cad" fill-rule="evenodd"></path><path id="path4" d="M277.595 26.217 C 277.595 26.335,277.737 26.618,277.909 26.847 C 278.082 27.075,278.224 27.166,278.224 27.048 C 278.224 26.930,278.082 26.647,277.909 26.419 C 277.737 26.190,277.595 26.100,277.595 26.217 M279.508 29.294 C 279.508 29.426,279.609 29.535,279.734 29.535 C 279.858 29.535,279.722 29.751,279.431 30.016 C 279.141 30.281,266.686 44.848,251.754 62.386 C 176.291 151.022,145.607 187.024,144.866 187.801 L 144.050 188.657 194.497 188.545 C 241.493 188.441,245.083 188.408,246.977 188.056 C 267.651 184.219,282.148 169.401,285.861 148.315 C 286.316 145.728,286.575 53.151,286.141 48.368 C 285.745 44.011,284.445 38.625,283.121 35.861 C 282.900 35.398,282.718 34.899,282.718 34.753 C 282.718 34.607,282.570 34.340,282.389 34.159 C 282.209 33.978,282.063 33.779,282.066 33.717 C 282.079 33.435,280.908 31.073,280.456 30.471 C 280.180 30.102,280.001 29.755,280.057 29.698 C 280.114 29.642,280.013 29.474,279.834 29.325 C 279.611 29.140,279.508 29.130,279.508 29.294 M140.824 188.764 C 140.383 188.905,140.364 188.939,140.717 188.953 C 140.952 188.963,141.289 188.878,141.466 188.764 C 141.841 188.522,141.581 188.522,140.824 188.764 M139.005 188.978 C 138.459 189.212,139.022 189.212,139.754 188.978 C 140.184 188.840,140.205 188.805,139.861 188.800 C 139.625 188.797,139.240 188.877,139.005 188.978 M88.175 250.361 L 88.175 254.388 73.508 271.603 L 58.840 288.818 56.868 288.937 C 55.783 289.003,62.432 289.075,71.643 289.098 L 88.390 289.139 88.390 267.737 C 88.390 255.966,88.341 246.335,88.283 246.335 C 88.224 246.335,88.175 248.147,88.175 250.361 M177.421 420.554 C 137.637 422.143,105.920 428.378,93.847 436.982 C 92.315 438.074,92.194 438.209,92.694 438.267 C 93.098 438.314,93.750 437.975,95.048 437.044 C 97.459 435.315,105.065 431.586,105.432 431.953 C 105.477 431.998,104.815 432.303,103.961 432.632 C 101.576 433.549,96.786 436.060,95.265 437.190 L 93.902 438.202 95.301 438.265 C 96.679 438.327,96.725 438.311,98.163 437.268 C 118.705 422.381,198.406 416.527,254.147 425.813 C 271.270 428.666,286.276 433.595,290.983 437.914 C 291.357 438.258,291.691 438.319,292.909 438.266 L 294.382 438.202 292.976 437.194 C 291.150 435.886,288.646 434.492,286.303 433.481 C 285.273 433.037,284.465 432.639,284.507 432.597 C 284.829 432.275,290.892 435.403,293.312 437.139 C 295.693 438.847,296.868 438.786,294.596 437.072 C 283.826 428.951,254.498 422.896,215.516 420.745 C 210.146 420.448,183.418 420.315,177.421 420.554 M198.998 420.706 C 196.446 420.740,192.208 420.740,189.581 420.706 C 186.954 420.672,189.042 420.644,194.222 420.644 C 199.401 420.644,201.550 420.672,198.998 420.706 M179.722 420.916 C 179.280 420.962,178.558 420.962,178.117 420.916 C 177.675 420.869,178.036 420.832,178.919 420.832 C 179.802 420.832,180.163 420.869,179.722 420.916 M210.112 420.916 C 209.671 420.962,208.949 420.962,208.507 420.916 C 208.066 420.869,208.427 420.832,209.310 420.832 C 210.193 420.832,210.554 420.869,210.112 420.916 M174.161 421.127 C 173.840 421.176,173.262 421.177,172.877 421.129 C 172.492 421.081,172.755 421.041,173.462 421.040 C 174.168 421.039,174.483 421.078,174.161 421.127 M215.467 421.127 C 215.145 421.176,214.567 421.177,214.183 421.129 C 213.798 421.081,214.061 421.041,214.767 421.040 C 215.474 421.039,215.788 421.078,215.467 421.127 M169.770 421.339 C 169.505 421.390,169.072 421.390,168.807 421.339 C 168.542 421.288,168.759 421.246,169.288 421.246 C 169.818 421.246,170.035 421.288,169.770 421.339 M219.422 421.339 C 219.157 421.390,218.724 421.390,218.459 421.339 C 218.194 421.288,218.411 421.246,218.941 421.246 C 219.470 421.246,219.687 421.288,219.422 421.339 M166.241 421.549 C 166.037 421.602,165.651 421.604,165.385 421.553 C 165.119 421.502,165.286 421.458,165.757 421.456 C 166.228 421.453,166.446 421.495,166.241 421.549 M222.956 421.549 C 222.751 421.602,222.366 421.604,222.100 421.553 C 221.834 421.502,222.001 421.458,222.472 421.456 C 222.943 421.453,223.161 421.495,222.956 421.549 M163.031 421.763 C 162.826 421.816,162.441 421.818,162.175 421.767 C 161.909 421.716,162.076 421.672,162.547 421.670 C 163.018 421.667,163.235 421.709,163.031 421.763 M226.166 421.763 C 225.962 421.816,225.576 421.818,225.310 421.767 C 225.044 421.716,225.211 421.672,225.682 421.670 C 226.153 421.667,226.371 421.709,226.166 421.763 M160.246 421.977 C 160.040 422.031,159.703 422.031,159.497 421.977 C 159.291 421.924,159.460 421.880,159.872 421.880 C 160.284 421.880,160.452 421.924,160.246 421.977 M228.948 421.977 C 228.744 422.030,228.359 422.032,228.092 421.981 C 227.826 421.930,227.994 421.886,228.464 421.884 C 228.935 421.881,229.153 421.923,228.948 421.977 M157.678 422.191 C 157.472 422.245,157.135 422.245,156.929 422.191 C 156.723 422.138,156.891 422.094,157.303 422.094 C 157.715 422.094,157.884 422.138,157.678 422.191 M183.577 423.907 C 183.843 423.959,184.228 423.957,184.433 423.903 C 184.637 423.849,184.419 423.808,183.949 423.810 C 183.478 423.812,183.310 423.856,183.577 423.907 M203.908 423.907 C 204.175 423.959,204.560 423.957,204.764 423.903 C 204.969 423.849,204.751 423.808,204.280 423.810 C 203.810 423.812,203.642 423.856,203.908 423.907 M277.903 430.177 C 278.172 430.293,278.212 430.360,278.010 430.360 C 277.833 430.360,277.496 430.278,277.261 430.177 C 276.991 430.061,276.951 429.993,277.154 429.993 C 277.330 429.993,277.667 430.075,277.903 430.177 M110.005 430.498 C 109.593 430.656,109.112 430.786,108.935 430.786 C 108.759 430.786,108.951 430.656,109.363 430.498 C 109.775 430.339,110.257 430.209,110.433 430.209 C 110.610 430.209,110.417 430.339,110.005 430.498 M108.507 430.906 C 108.507 431.035,105.879 431.900,105.781 431.803 C 105.736 431.757,106.258 431.524,106.942 431.286 C 108.263 430.826,108.507 430.766,108.507 430.906 M282.714 431.809 C 283.549 432.119,284.195 432.409,284.150 432.454 C 284.069 432.535,281.196 431.507,281.024 431.336 C 280.838 431.151,281.242 431.264,282.714 431.809 " stroke="none" fill="#2d6c9c" fill-rule="evenodd"></path></g></svg>